G04 #@! TF.GenerationSoftware,KiCad,Pcbnew,5.1.10-1.fc34*
G04 #@! TF.CreationDate,2021-08-21T17:02:38+03:00*
G04 #@! TF.ProjectId,nmea0183-5V-buffer-board,6e6d6561-3031-4383-932d-35562d627566,rev?*
G04 #@! TF.SameCoordinates,Original*
G04 #@! TF.FileFunction,Soldermask,Top*
G04 #@! TF.FilePolarity,Negative*
%FSLAX46Y46*%
G04 Gerber Fmt 4.6, Leading zero omitted, Abs format (unit mm)*
G04 Created by KiCad (PCBNEW 5.1.10-1.fc34) date 2021-08-21 17:02:38*
%MOMM*%
%LPD*%
G01*
G04 APERTURE LIST*
%ADD10C,3.200000*%
%ADD11C,2.235200*%
%ADD12O,1.600000X1.600000*%
%ADD13R,1.600000X1.600000*%
%ADD14O,1.905000X2.000000*%
%ADD15R,1.905000X2.000000*%
%ADD16O,1.700000X1.700000*%
%ADD17R,1.700000X1.700000*%
%ADD18C,1.600000*%
%ADD19C,2.000000*%
%ADD20R,2.000000X2.000000*%
G04 APERTURE END LIST*
D10*
X160274000Y-132080000D03*
X160274000Y-79756000D03*
X130810000Y-132080000D03*
X130810000Y-79756000D03*
D11*
X151302720Y-80772000D03*
G36*
G01*
X145186400Y-81788000D02*
X145186400Y-79756000D01*
G75*
G02*
X145288000Y-79654400I101600J0D01*
G01*
X147320000Y-79654400D01*
G75*
G02*
X147421600Y-79756000I0J-101600D01*
G01*
X147421600Y-81788000D01*
G75*
G02*
X147320000Y-81889600I-101600J0D01*
G01*
X145288000Y-81889600D01*
G75*
G02*
X145186400Y-81788000I0J101600D01*
G01*
G37*
D12*
X150114000Y-104902000D03*
X142494000Y-127762000D03*
X150114000Y-107442000D03*
X142494000Y-125222000D03*
X150114000Y-109982000D03*
X142494000Y-122682000D03*
X150114000Y-112522000D03*
X142494000Y-120142000D03*
X150114000Y-115062000D03*
X142494000Y-117602000D03*
X150114000Y-117602000D03*
X142494000Y-115062000D03*
X150114000Y-120142000D03*
X142494000Y-112522000D03*
X150114000Y-122682000D03*
X142494000Y-109982000D03*
X150114000Y-125222000D03*
X142494000Y-107442000D03*
X150114000Y-127762000D03*
D13*
X142494000Y-104902000D03*
D14*
X148844000Y-98806000D03*
X146304000Y-98806000D03*
D15*
X143764000Y-98806000D03*
D16*
X155956000Y-127762000D03*
X155956000Y-125222000D03*
X155956000Y-122682000D03*
X155956000Y-120142000D03*
X155956000Y-117602000D03*
X155956000Y-115062000D03*
X155956000Y-112522000D03*
X155956000Y-109982000D03*
X155956000Y-107442000D03*
X155956000Y-104902000D03*
X155956000Y-102362000D03*
D17*
X155956000Y-99822000D03*
D16*
X135128000Y-127868000D03*
X135128000Y-125328000D03*
X135128000Y-122788000D03*
X135128000Y-120248000D03*
X135128000Y-117708000D03*
X135128000Y-115168000D03*
X135128000Y-112628000D03*
X135128000Y-110088000D03*
X135128000Y-107548000D03*
X135128000Y-105008000D03*
X135128000Y-102468000D03*
D17*
X135128000Y-99928000D03*
D18*
X152948000Y-91186000D03*
D13*
X155448000Y-91186000D03*
D19*
X140890000Y-87376000D03*
D20*
X135890000Y-87376000D03*
M02*
