%FSLAX45Y45*%
G04 Gerber Fmt 4.5, Leading zero omitted, Abs format (unit mm)*
G04 Created by KiCad (PCBNEW 5.1.10-1.fc34) date 2021-08-21 17:03:26*
%MOMM*%
%LPD*%
G01*
G04 APERTURE LIST*
%TA.AperFunction,Profile*%
%ADD10C,0.150000*%
%TD*%
%ADD11C,0.200000*%
%ADD12C,0.300000*%
G04 APERTURE END LIST*
D10*
X12725400Y-13563600D02*
X12725400Y-7620000D01*
X16383000Y-13563600D02*
X12725400Y-13563600D01*
X16383000Y-7620000D02*
X16383000Y-13563600D01*
X12725400Y-7620000D02*
X16383000Y-7620000D01*
D11*
X12883200Y-8336600D02*
X12923200Y-8376600D01*
X12923200Y-8336600D02*
X12883200Y-8376600D01*
X12883200Y-8819200D02*
X12923200Y-8859200D01*
X12923200Y-8819200D02*
X12883200Y-8859200D01*
X12883200Y-9479600D02*
X12923200Y-9519600D01*
X12923200Y-9479600D02*
X12883200Y-9519600D01*
X12883200Y-10140000D02*
X12923200Y-10180000D01*
X12923200Y-10140000D02*
X12883200Y-10180000D01*
X12883200Y-10648000D02*
X12923200Y-10688000D01*
X12923200Y-10648000D02*
X12883200Y-10688000D01*
X12883200Y-11156000D02*
X12923200Y-11196000D01*
X12923200Y-11156000D02*
X12883200Y-11196000D01*
X12883200Y-11689400D02*
X12923200Y-11729400D01*
X12923200Y-11689400D02*
X12883200Y-11729400D01*
X12883200Y-12197400D02*
X12923200Y-12237400D01*
X12923200Y-12197400D02*
X12883200Y-12237400D01*
X12908600Y-12705400D02*
X12948600Y-12745400D01*
X12948600Y-12705400D02*
X12908600Y-12745400D01*
X13518200Y-7752400D02*
X13558200Y-7792400D01*
X13558200Y-7752400D02*
X13518200Y-7792400D01*
X13518200Y-13365800D02*
X13558200Y-13405800D01*
X13558200Y-13365800D02*
X13518200Y-13405800D01*
X13924600Y-13391200D02*
X13964600Y-13431200D01*
X13964600Y-13391200D02*
X13924600Y-13431200D01*
X14026200Y-7752400D02*
X14066200Y-7792400D01*
X14066200Y-7752400D02*
X14026200Y-7792400D01*
X14508800Y-7752400D02*
X14548800Y-7792400D01*
X14548800Y-7752400D02*
X14508800Y-7792400D01*
X14508800Y-13391200D02*
X14548800Y-13431200D01*
X14548800Y-13391200D02*
X14508800Y-13431200D01*
X14991400Y-7752400D02*
X15031400Y-7792400D01*
X15031400Y-7752400D02*
X14991400Y-7792400D01*
X15093000Y-13391200D02*
X15133000Y-13431200D01*
X15133000Y-13391200D02*
X15093000Y-13431200D01*
X15423200Y-7752400D02*
X15463200Y-7792400D01*
X15463200Y-7752400D02*
X15423200Y-7792400D01*
X15601000Y-13340400D02*
X15641000Y-13380400D01*
X15641000Y-13340400D02*
X15601000Y-13380400D01*
X16185200Y-8463600D02*
X16225200Y-8503600D01*
X16225200Y-8463600D02*
X16185200Y-8503600D01*
X16185200Y-9098600D02*
X16225200Y-9138600D01*
X16225200Y-9098600D02*
X16185200Y-9138600D01*
X16185200Y-9606600D02*
X16225200Y-9646600D01*
X16225200Y-9606600D02*
X16185200Y-9646600D01*
X16185200Y-10089200D02*
X16225200Y-10129200D01*
X16225200Y-10089200D02*
X16185200Y-10129200D01*
X16185200Y-10622600D02*
X16225200Y-10662600D01*
X16225200Y-10622600D02*
X16185200Y-10662600D01*
X16185200Y-11130600D02*
X16225200Y-11170600D01*
X16225200Y-11130600D02*
X16185200Y-11170600D01*
X16185200Y-11638600D02*
X16225200Y-11678600D01*
X16225200Y-11638600D02*
X16185200Y-11678600D01*
X16185200Y-12121200D02*
X16225200Y-12161200D01*
X16225200Y-12121200D02*
X16185200Y-12161200D01*
X16185200Y-12654600D02*
X16225200Y-12694600D01*
X16225200Y-12654600D02*
X16185200Y-12694600D01*
X14289400Y-10490200D02*
G75*
G03*
X14289400Y-10490200I-40000J0D01*
G01*
X14289400Y-10744200D02*
G75*
G03*
X14289400Y-10744200I-40000J0D01*
G01*
X14289400Y-10998200D02*
G75*
G03*
X14289400Y-10998200I-40000J0D01*
G01*
X14289400Y-11252200D02*
G75*
G03*
X14289400Y-11252200I-40000J0D01*
G01*
X14289400Y-11506200D02*
G75*
G03*
X14289400Y-11506200I-40000J0D01*
G01*
X14289400Y-11760200D02*
G75*
G03*
X14289400Y-11760200I-40000J0D01*
G01*
X14289400Y-12014200D02*
G75*
G03*
X14289400Y-12014200I-40000J0D01*
G01*
X14289400Y-12268200D02*
G75*
G03*
X14289400Y-12268200I-40000J0D01*
G01*
X14289400Y-12522200D02*
G75*
G03*
X14289400Y-12522200I-40000J0D01*
G01*
X14289400Y-12776200D02*
G75*
G03*
X14289400Y-12776200I-40000J0D01*
G01*
X15051400Y-10490200D02*
G75*
G03*
X15051400Y-10490200I-40000J0D01*
G01*
X15051400Y-10744200D02*
G75*
G03*
X15051400Y-10744200I-40000J0D01*
G01*
X15051400Y-10998200D02*
G75*
G03*
X15051400Y-10998200I-40000J0D01*
G01*
X15051400Y-11252200D02*
G75*
G03*
X15051400Y-11252200I-40000J0D01*
G01*
X15051400Y-11506200D02*
G75*
G03*
X15051400Y-11506200I-40000J0D01*
G01*
X15051400Y-11760200D02*
G75*
G03*
X15051400Y-11760200I-40000J0D01*
G01*
X15051400Y-12014200D02*
G75*
G03*
X15051400Y-12014200I-40000J0D01*
G01*
X15051400Y-12268200D02*
G75*
G03*
X15051400Y-12268200I-40000J0D01*
G01*
X15051400Y-12522200D02*
G75*
G03*
X15051400Y-12522200I-40000J0D01*
G01*
X15051400Y-12776200D02*
G75*
G03*
X15051400Y-12776200I-40000J0D01*
G01*
X15334800Y-9118600D02*
G75*
G03*
X15334800Y-9118600I-40000J0D01*
G01*
X15584800Y-9118600D02*
G75*
G03*
X15584800Y-9118600I-40000J0D01*
G01*
X13512800Y-9942800D02*
X13512800Y-10042800D01*
X13462800Y-9992800D02*
X13562800Y-9992800D01*
X13512800Y-10196800D02*
X13512800Y-10296800D01*
X13462800Y-10246800D02*
X13562800Y-10246800D01*
X13512800Y-10450800D02*
X13512800Y-10550800D01*
X13462800Y-10500800D02*
X13562800Y-10500800D01*
X13512800Y-10704800D02*
X13512800Y-10804800D01*
X13462800Y-10754800D02*
X13562800Y-10754800D01*
X13512800Y-10958800D02*
X13512800Y-11058800D01*
X13462800Y-11008800D02*
X13562800Y-11008800D01*
X13512800Y-11212800D02*
X13512800Y-11312800D01*
X13462800Y-11262800D02*
X13562800Y-11262800D01*
X13512800Y-11466800D02*
X13512800Y-11566800D01*
X13462800Y-11516800D02*
X13562800Y-11516800D01*
X13512800Y-11720800D02*
X13512800Y-11820800D01*
X13462800Y-11770800D02*
X13562800Y-11770800D01*
X13512800Y-11974800D02*
X13512800Y-12074800D01*
X13462800Y-12024800D02*
X13562800Y-12024800D01*
X13512800Y-12228800D02*
X13512800Y-12328800D01*
X13462800Y-12278800D02*
X13562800Y-12278800D01*
X13512800Y-12482800D02*
X13512800Y-12582800D01*
X13462800Y-12532800D02*
X13562800Y-12532800D01*
X13512800Y-12736800D02*
X13512800Y-12836800D01*
X13462800Y-12786800D02*
X13562800Y-12786800D01*
X13589000Y-8687600D02*
X13589000Y-8787600D01*
X13539000Y-8737600D02*
X13639000Y-8737600D01*
X14089000Y-8687600D02*
X14089000Y-8787600D01*
X14039000Y-8737600D02*
X14139000Y-8737600D01*
X15595600Y-9932200D02*
X15595600Y-10032200D01*
X15545600Y-9982200D02*
X15645600Y-9982200D01*
X15595600Y-10186200D02*
X15595600Y-10286200D01*
X15545600Y-10236200D02*
X15645600Y-10236200D01*
X15595600Y-10440200D02*
X15595600Y-10540200D01*
X15545600Y-10490200D02*
X15645600Y-10490200D01*
X15595600Y-10694200D02*
X15595600Y-10794200D01*
X15545600Y-10744200D02*
X15645600Y-10744200D01*
X15595600Y-10948200D02*
X15595600Y-11048200D01*
X15545600Y-10998200D02*
X15645600Y-10998200D01*
X15595600Y-11202200D02*
X15595600Y-11302200D01*
X15545600Y-11252200D02*
X15645600Y-11252200D01*
X15595600Y-11456200D02*
X15595600Y-11556200D01*
X15545600Y-11506200D02*
X15645600Y-11506200D01*
X15595600Y-11710200D02*
X15595600Y-11810200D01*
X15545600Y-11760200D02*
X15645600Y-11760200D01*
X15595600Y-11964200D02*
X15595600Y-12064200D01*
X15545600Y-12014200D02*
X15645600Y-12014200D01*
X15595600Y-12218200D02*
X15595600Y-12318200D01*
X15545600Y-12268200D02*
X15645600Y-12268200D01*
X15595600Y-12472200D02*
X15595600Y-12572200D01*
X15545600Y-12522200D02*
X15645600Y-12522200D01*
X15595600Y-12726200D02*
X15595600Y-12826200D01*
X15545600Y-12776200D02*
X15645600Y-12776200D01*
X14415291Y-9919491D02*
X14415291Y-9841709D01*
X14337509Y-9841709D01*
X14337509Y-9919491D01*
X14415291Y-9919491D01*
X14669291Y-9919491D02*
X14669291Y-9841709D01*
X14591509Y-9841709D01*
X14591509Y-9919491D01*
X14669291Y-9919491D01*
X14923291Y-9919491D02*
X14923291Y-9841709D01*
X14845509Y-9841709D01*
X14845509Y-9919491D01*
X14923291Y-9919491D01*
X14630400Y-8142097D02*
X14695297Y-8077200D01*
X14630400Y-8012303D01*
X14565503Y-8077200D01*
X14630400Y-8142097D01*
X15130272Y-8142097D02*
X15195169Y-8077200D01*
X15130272Y-8012303D01*
X15065375Y-8077200D01*
X15130272Y-8142097D01*
D12*
X13004328Y-14036814D02*
X13004328Y-13736814D01*
X13075757Y-13736814D01*
X13118614Y-13751100D01*
X13147186Y-13779671D01*
X13161471Y-13808243D01*
X13175757Y-13865386D01*
X13175757Y-13908243D01*
X13161471Y-13965386D01*
X13147186Y-13993957D01*
X13118614Y-14022529D01*
X13075757Y-14036814D01*
X13004328Y-14036814D01*
X13304328Y-14036814D02*
X13304328Y-13836814D01*
X13304328Y-13893957D02*
X13318614Y-13865386D01*
X13332900Y-13851100D01*
X13361471Y-13836814D01*
X13390043Y-13836814D01*
X13490043Y-14036814D02*
X13490043Y-13836814D01*
X13490043Y-13736814D02*
X13475757Y-13751100D01*
X13490043Y-13765386D01*
X13504328Y-13751100D01*
X13490043Y-13736814D01*
X13490043Y-13765386D01*
X13675757Y-14036814D02*
X13647186Y-14022529D01*
X13632900Y-13993957D01*
X13632900Y-13736814D01*
X13832900Y-14036814D02*
X13804328Y-14022529D01*
X13790043Y-13993957D01*
X13790043Y-13736814D01*
X14175757Y-14036814D02*
X14175757Y-13736814D01*
X14275757Y-13951100D01*
X14375757Y-13736814D01*
X14375757Y-14036814D01*
X14647186Y-14036814D02*
X14647186Y-13879671D01*
X14632900Y-13851100D01*
X14604328Y-13836814D01*
X14547186Y-13836814D01*
X14518614Y-13851100D01*
X14647186Y-14022529D02*
X14618614Y-14036814D01*
X14547186Y-14036814D01*
X14518614Y-14022529D01*
X14504328Y-13993957D01*
X14504328Y-13965386D01*
X14518614Y-13936814D01*
X14547186Y-13922529D01*
X14618614Y-13922529D01*
X14647186Y-13908243D01*
X14790043Y-13836814D02*
X14790043Y-14136814D01*
X14790043Y-13851100D02*
X14818614Y-13836814D01*
X14875757Y-13836814D01*
X14904328Y-13851100D01*
X14918614Y-13865386D01*
X14932900Y-13893957D01*
X14932900Y-13979671D01*
X14918614Y-14008243D01*
X14904328Y-14022529D01*
X14875757Y-14036814D01*
X14818614Y-14036814D01*
X14790043Y-14022529D01*
X15061471Y-14008243D02*
X15075757Y-14022529D01*
X15061471Y-14036814D01*
X15047186Y-14022529D01*
X15061471Y-14008243D01*
X15061471Y-14036814D01*
X15061471Y-13851100D02*
X15075757Y-13865386D01*
X15061471Y-13879671D01*
X15047186Y-13865386D01*
X15061471Y-13851100D01*
X15061471Y-13879671D01*
X12677900Y-14511100D02*
X12717900Y-14551100D01*
X12717900Y-14511100D02*
X12677900Y-14551100D01*
X13061471Y-14366814D02*
X13090043Y-14366814D01*
X13118614Y-14381100D01*
X13132900Y-14395386D01*
X13147186Y-14423957D01*
X13161471Y-14481100D01*
X13161471Y-14552529D01*
X13147186Y-14609671D01*
X13132900Y-14638243D01*
X13118614Y-14652529D01*
X13090043Y-14666814D01*
X13061471Y-14666814D01*
X13032900Y-14652529D01*
X13018614Y-14638243D01*
X13004328Y-14609671D01*
X12990043Y-14552529D01*
X12990043Y-14481100D01*
X13004328Y-14423957D01*
X13018614Y-14395386D01*
X13032900Y-14381100D01*
X13061471Y-14366814D01*
X13290043Y-14638243D02*
X13304328Y-14652529D01*
X13290043Y-14666814D01*
X13275757Y-14652529D01*
X13290043Y-14638243D01*
X13290043Y-14666814D01*
X13561471Y-14466814D02*
X13561471Y-14666814D01*
X13490043Y-14352529D02*
X13418614Y-14566814D01*
X13604328Y-14566814D01*
X13775757Y-14366814D02*
X13804328Y-14366814D01*
X13832900Y-14381100D01*
X13847186Y-14395386D01*
X13861471Y-14423957D01*
X13875757Y-14481100D01*
X13875757Y-14552529D01*
X13861471Y-14609671D01*
X13847186Y-14638243D01*
X13832900Y-14652529D01*
X13804328Y-14666814D01*
X13775757Y-14666814D01*
X13747186Y-14652529D01*
X13732900Y-14638243D01*
X13718614Y-14609671D01*
X13704328Y-14552529D01*
X13704328Y-14481100D01*
X13718614Y-14423957D01*
X13732900Y-14395386D01*
X13747186Y-14381100D01*
X13775757Y-14366814D01*
X14061471Y-14366814D02*
X14090043Y-14366814D01*
X14118614Y-14381100D01*
X14132900Y-14395386D01*
X14147186Y-14423957D01*
X14161471Y-14481100D01*
X14161471Y-14552529D01*
X14147186Y-14609671D01*
X14132900Y-14638243D01*
X14118614Y-14652529D01*
X14090043Y-14666814D01*
X14061471Y-14666814D01*
X14032900Y-14652529D01*
X14018614Y-14638243D01*
X14004328Y-14609671D01*
X13990043Y-14552529D01*
X13990043Y-14481100D01*
X14004328Y-14423957D01*
X14018614Y-14395386D01*
X14032900Y-14381100D01*
X14061471Y-14366814D01*
X14290043Y-14666814D02*
X14290043Y-14466814D01*
X14290043Y-14495386D02*
X14304328Y-14481100D01*
X14332900Y-14466814D01*
X14375757Y-14466814D01*
X14404328Y-14481100D01*
X14418614Y-14509671D01*
X14418614Y-14666814D01*
X14418614Y-14509671D02*
X14432900Y-14481100D01*
X14461471Y-14466814D01*
X14504328Y-14466814D01*
X14532900Y-14481100D01*
X14547186Y-14509671D01*
X14547186Y-14666814D01*
X14690043Y-14666814D02*
X14690043Y-14466814D01*
X14690043Y-14495386D02*
X14704328Y-14481100D01*
X14732900Y-14466814D01*
X14775757Y-14466814D01*
X14804328Y-14481100D01*
X14818614Y-14509671D01*
X14818614Y-14666814D01*
X14818614Y-14509671D02*
X14832900Y-14481100D01*
X14861471Y-14466814D01*
X14904328Y-14466814D01*
X14932900Y-14481100D01*
X14947186Y-14509671D01*
X14947186Y-14666814D01*
X15532900Y-14352529D02*
X15275757Y-14738243D01*
X15918614Y-14366814D02*
X15947186Y-14366814D01*
X15975757Y-14381100D01*
X15990043Y-14395386D01*
X16004328Y-14423957D01*
X16018614Y-14481100D01*
X16018614Y-14552529D01*
X16004328Y-14609671D01*
X15990043Y-14638243D01*
X15975757Y-14652529D01*
X15947186Y-14666814D01*
X15918614Y-14666814D01*
X15890043Y-14652529D01*
X15875757Y-14638243D01*
X15861471Y-14609671D01*
X15847186Y-14552529D01*
X15847186Y-14481100D01*
X15861471Y-14423957D01*
X15875757Y-14395386D01*
X15890043Y-14381100D01*
X15918614Y-14366814D01*
X16147186Y-14638243D02*
X16161471Y-14652529D01*
X16147186Y-14666814D01*
X16132900Y-14652529D01*
X16147186Y-14638243D01*
X16147186Y-14666814D01*
X16347186Y-14366814D02*
X16375757Y-14366814D01*
X16404328Y-14381100D01*
X16418614Y-14395386D01*
X16432900Y-14423957D01*
X16447186Y-14481100D01*
X16447186Y-14552529D01*
X16432900Y-14609671D01*
X16418614Y-14638243D01*
X16404328Y-14652529D01*
X16375757Y-14666814D01*
X16347186Y-14666814D01*
X16318614Y-14652529D01*
X16304328Y-14638243D01*
X16290043Y-14609671D01*
X16275757Y-14552529D01*
X16275757Y-14481100D01*
X16290043Y-14423957D01*
X16304328Y-14395386D01*
X16318614Y-14381100D01*
X16347186Y-14366814D01*
X16732900Y-14666814D02*
X16561471Y-14666814D01*
X16647186Y-14666814D02*
X16647186Y-14366814D01*
X16618614Y-14409671D01*
X16590043Y-14438243D01*
X16561471Y-14452529D01*
X17004328Y-14366814D02*
X16861471Y-14366814D01*
X16847186Y-14509671D01*
X16861471Y-14495386D01*
X16890043Y-14481100D01*
X16961471Y-14481100D01*
X16990043Y-14495386D01*
X17004328Y-14509671D01*
X17018614Y-14538243D01*
X17018614Y-14609671D01*
X17004328Y-14638243D01*
X16990043Y-14652529D01*
X16961471Y-14666814D01*
X16890043Y-14666814D01*
X16861471Y-14652529D01*
X16847186Y-14638243D01*
X17118614Y-14366814D02*
X17318614Y-14366814D01*
X17190043Y-14666814D01*
X17418614Y-14366814D02*
X17418614Y-14423957D01*
X17532900Y-14366814D02*
X17532900Y-14423957D01*
X17975757Y-14781100D02*
X17961471Y-14766814D01*
X17932900Y-14723957D01*
X17918614Y-14695386D01*
X17904328Y-14652529D01*
X17890043Y-14581100D01*
X17890043Y-14523957D01*
X17904328Y-14452529D01*
X17918614Y-14409671D01*
X17932900Y-14381100D01*
X17961471Y-14338243D01*
X17975757Y-14323957D01*
X18075757Y-14395386D02*
X18090043Y-14381100D01*
X18118614Y-14366814D01*
X18190043Y-14366814D01*
X18218614Y-14381100D01*
X18232900Y-14395386D01*
X18247186Y-14423957D01*
X18247186Y-14452529D01*
X18232900Y-14495386D01*
X18061471Y-14666814D01*
X18247186Y-14666814D01*
X18418614Y-14495386D02*
X18390043Y-14481100D01*
X18375757Y-14466814D01*
X18361471Y-14438243D01*
X18361471Y-14423957D01*
X18375757Y-14395386D01*
X18390043Y-14381100D01*
X18418614Y-14366814D01*
X18475757Y-14366814D01*
X18504328Y-14381100D01*
X18518614Y-14395386D01*
X18532900Y-14423957D01*
X18532900Y-14438243D01*
X18518614Y-14466814D01*
X18504328Y-14481100D01*
X18475757Y-14495386D01*
X18418614Y-14495386D01*
X18390043Y-14509671D01*
X18375757Y-14523957D01*
X18361471Y-14552529D01*
X18361471Y-14609671D01*
X18375757Y-14638243D01*
X18390043Y-14652529D01*
X18418614Y-14666814D01*
X18475757Y-14666814D01*
X18504328Y-14652529D01*
X18518614Y-14638243D01*
X18532900Y-14609671D01*
X18532900Y-14552529D01*
X18518614Y-14523957D01*
X18504328Y-14509671D01*
X18475757Y-14495386D01*
X18890043Y-14666814D02*
X18890043Y-14366814D01*
X19018614Y-14666814D02*
X19018614Y-14509671D01*
X19004328Y-14481100D01*
X18975757Y-14466814D01*
X18932900Y-14466814D01*
X18904328Y-14481100D01*
X18890043Y-14495386D01*
X19204328Y-14666814D02*
X19175757Y-14652529D01*
X19161471Y-14638243D01*
X19147186Y-14609671D01*
X19147186Y-14523957D01*
X19161471Y-14495386D01*
X19175757Y-14481100D01*
X19204328Y-14466814D01*
X19247186Y-14466814D01*
X19275757Y-14481100D01*
X19290043Y-14495386D01*
X19304328Y-14523957D01*
X19304328Y-14609671D01*
X19290043Y-14638243D01*
X19275757Y-14652529D01*
X19247186Y-14666814D01*
X19204328Y-14666814D01*
X19475757Y-14666814D02*
X19447186Y-14652529D01*
X19432900Y-14623957D01*
X19432900Y-14366814D01*
X19704328Y-14652529D02*
X19675757Y-14666814D01*
X19618614Y-14666814D01*
X19590043Y-14652529D01*
X19575757Y-14623957D01*
X19575757Y-14509671D01*
X19590043Y-14481100D01*
X19618614Y-14466814D01*
X19675757Y-14466814D01*
X19704328Y-14481100D01*
X19718614Y-14509671D01*
X19718614Y-14538243D01*
X19575757Y-14566814D01*
X19832900Y-14652529D02*
X19861471Y-14666814D01*
X19918614Y-14666814D01*
X19947186Y-14652529D01*
X19961471Y-14623957D01*
X19961471Y-14609671D01*
X19947186Y-14581100D01*
X19918614Y-14566814D01*
X19875757Y-14566814D01*
X19847186Y-14552529D01*
X19832900Y-14523957D01*
X19832900Y-14509671D01*
X19847186Y-14481100D01*
X19875757Y-14466814D01*
X19918614Y-14466814D01*
X19947186Y-14481100D01*
X20061471Y-14781100D02*
X20075757Y-14766814D01*
X20104328Y-14723957D01*
X20118614Y-14695386D01*
X20132900Y-14652529D01*
X20147186Y-14581100D01*
X20147186Y-14523957D01*
X20132900Y-14452529D01*
X20118614Y-14409671D01*
X20104328Y-14381100D01*
X20075757Y-14338243D01*
X20061471Y-14323957D01*
X12717900Y-14927100D02*
G75*
G03*
X12717900Y-14927100I-40000J0D01*
G01*
X13061471Y-14762814D02*
X13090043Y-14762814D01*
X13118614Y-14777100D01*
X13132900Y-14791386D01*
X13147186Y-14819957D01*
X13161471Y-14877100D01*
X13161471Y-14948529D01*
X13147186Y-15005671D01*
X13132900Y-15034243D01*
X13118614Y-15048529D01*
X13090043Y-15062814D01*
X13061471Y-15062814D01*
X13032900Y-15048529D01*
X13018614Y-15034243D01*
X13004328Y-15005671D01*
X12990043Y-14948529D01*
X12990043Y-14877100D01*
X13004328Y-14819957D01*
X13018614Y-14791386D01*
X13032900Y-14777100D01*
X13061471Y-14762814D01*
X13290043Y-15034243D02*
X13304328Y-15048529D01*
X13290043Y-15062814D01*
X13275757Y-15048529D01*
X13290043Y-15034243D01*
X13290043Y-15062814D01*
X13475757Y-14891386D02*
X13447186Y-14877100D01*
X13432900Y-14862814D01*
X13418614Y-14834243D01*
X13418614Y-14819957D01*
X13432900Y-14791386D01*
X13447186Y-14777100D01*
X13475757Y-14762814D01*
X13532900Y-14762814D01*
X13561471Y-14777100D01*
X13575757Y-14791386D01*
X13590043Y-14819957D01*
X13590043Y-14834243D01*
X13575757Y-14862814D01*
X13561471Y-14877100D01*
X13532900Y-14891386D01*
X13475757Y-14891386D01*
X13447186Y-14905671D01*
X13432900Y-14919957D01*
X13418614Y-14948529D01*
X13418614Y-15005671D01*
X13432900Y-15034243D01*
X13447186Y-15048529D01*
X13475757Y-15062814D01*
X13532900Y-15062814D01*
X13561471Y-15048529D01*
X13575757Y-15034243D01*
X13590043Y-15005671D01*
X13590043Y-14948529D01*
X13575757Y-14919957D01*
X13561471Y-14905671D01*
X13532900Y-14891386D01*
X13775757Y-14762814D02*
X13804328Y-14762814D01*
X13832900Y-14777100D01*
X13847186Y-14791386D01*
X13861471Y-14819957D01*
X13875757Y-14877100D01*
X13875757Y-14948529D01*
X13861471Y-15005671D01*
X13847186Y-15034243D01*
X13832900Y-15048529D01*
X13804328Y-15062814D01*
X13775757Y-15062814D01*
X13747186Y-15048529D01*
X13732900Y-15034243D01*
X13718614Y-15005671D01*
X13704328Y-14948529D01*
X13704328Y-14877100D01*
X13718614Y-14819957D01*
X13732900Y-14791386D01*
X13747186Y-14777100D01*
X13775757Y-14762814D01*
X14061471Y-14762814D02*
X14090043Y-14762814D01*
X14118614Y-14777100D01*
X14132900Y-14791386D01*
X14147186Y-14819957D01*
X14161471Y-14877100D01*
X14161471Y-14948529D01*
X14147186Y-15005671D01*
X14132900Y-15034243D01*
X14118614Y-15048529D01*
X14090043Y-15062814D01*
X14061471Y-15062814D01*
X14032900Y-15048529D01*
X14018614Y-15034243D01*
X14004328Y-15005671D01*
X13990043Y-14948529D01*
X13990043Y-14877100D01*
X14004328Y-14819957D01*
X14018614Y-14791386D01*
X14032900Y-14777100D01*
X14061471Y-14762814D01*
X14290043Y-15062814D02*
X14290043Y-14862814D01*
X14290043Y-14891386D02*
X14304328Y-14877100D01*
X14332900Y-14862814D01*
X14375757Y-14862814D01*
X14404328Y-14877100D01*
X14418614Y-14905671D01*
X14418614Y-15062814D01*
X14418614Y-14905671D02*
X14432900Y-14877100D01*
X14461471Y-14862814D01*
X14504328Y-14862814D01*
X14532900Y-14877100D01*
X14547186Y-14905671D01*
X14547186Y-15062814D01*
X14690043Y-15062814D02*
X14690043Y-14862814D01*
X14690043Y-14891386D02*
X14704328Y-14877100D01*
X14732900Y-14862814D01*
X14775757Y-14862814D01*
X14804328Y-14877100D01*
X14818614Y-14905671D01*
X14818614Y-15062814D01*
X14818614Y-14905671D02*
X14832900Y-14877100D01*
X14861471Y-14862814D01*
X14904328Y-14862814D01*
X14932900Y-14877100D01*
X14947186Y-14905671D01*
X14947186Y-15062814D01*
X15532900Y-14748529D02*
X15275757Y-15134243D01*
X15918614Y-14762814D02*
X15947186Y-14762814D01*
X15975757Y-14777100D01*
X15990043Y-14791386D01*
X16004328Y-14819957D01*
X16018614Y-14877100D01*
X16018614Y-14948529D01*
X16004328Y-15005671D01*
X15990043Y-15034243D01*
X15975757Y-15048529D01*
X15947186Y-15062814D01*
X15918614Y-15062814D01*
X15890043Y-15048529D01*
X15875757Y-15034243D01*
X15861471Y-15005671D01*
X15847186Y-14948529D01*
X15847186Y-14877100D01*
X15861471Y-14819957D01*
X15875757Y-14791386D01*
X15890043Y-14777100D01*
X15918614Y-14762814D01*
X16147186Y-15034243D02*
X16161471Y-15048529D01*
X16147186Y-15062814D01*
X16132900Y-15048529D01*
X16147186Y-15034243D01*
X16147186Y-15062814D01*
X16347186Y-14762814D02*
X16375757Y-14762814D01*
X16404328Y-14777100D01*
X16418614Y-14791386D01*
X16432900Y-14819957D01*
X16447186Y-14877100D01*
X16447186Y-14948529D01*
X16432900Y-15005671D01*
X16418614Y-15034243D01*
X16404328Y-15048529D01*
X16375757Y-15062814D01*
X16347186Y-15062814D01*
X16318614Y-15048529D01*
X16304328Y-15034243D01*
X16290043Y-15005671D01*
X16275757Y-14948529D01*
X16275757Y-14877100D01*
X16290043Y-14819957D01*
X16304328Y-14791386D01*
X16318614Y-14777100D01*
X16347186Y-14762814D01*
X16547186Y-14762814D02*
X16732900Y-14762814D01*
X16632900Y-14877100D01*
X16675757Y-14877100D01*
X16704328Y-14891386D01*
X16718614Y-14905671D01*
X16732900Y-14934243D01*
X16732900Y-15005671D01*
X16718614Y-15034243D01*
X16704328Y-15048529D01*
X16675757Y-15062814D01*
X16590043Y-15062814D01*
X16561471Y-15048529D01*
X16547186Y-15034243D01*
X17018614Y-15062814D02*
X16847186Y-15062814D01*
X16932900Y-15062814D02*
X16932900Y-14762814D01*
X16904328Y-14805671D01*
X16875757Y-14834243D01*
X16847186Y-14848529D01*
X17290043Y-14762814D02*
X17147186Y-14762814D01*
X17132900Y-14905671D01*
X17147186Y-14891386D01*
X17175757Y-14877100D01*
X17247186Y-14877100D01*
X17275757Y-14891386D01*
X17290043Y-14905671D01*
X17304328Y-14934243D01*
X17304328Y-15005671D01*
X17290043Y-15034243D01*
X17275757Y-15048529D01*
X17247186Y-15062814D01*
X17175757Y-15062814D01*
X17147186Y-15048529D01*
X17132900Y-15034243D01*
X17418614Y-14762814D02*
X17418614Y-14819957D01*
X17532900Y-14762814D02*
X17532900Y-14819957D01*
X17975757Y-15177100D02*
X17961471Y-15162814D01*
X17932900Y-15119957D01*
X17918614Y-15091386D01*
X17904328Y-15048529D01*
X17890043Y-14977100D01*
X17890043Y-14919957D01*
X17904328Y-14848529D01*
X17918614Y-14805671D01*
X17932900Y-14777100D01*
X17961471Y-14734243D01*
X17975757Y-14719957D01*
X18075757Y-14791386D02*
X18090043Y-14777100D01*
X18118614Y-14762814D01*
X18190043Y-14762814D01*
X18218614Y-14777100D01*
X18232900Y-14791386D01*
X18247186Y-14819957D01*
X18247186Y-14848529D01*
X18232900Y-14891386D01*
X18061471Y-15062814D01*
X18247186Y-15062814D01*
X18361471Y-14791386D02*
X18375757Y-14777100D01*
X18404328Y-14762814D01*
X18475757Y-14762814D01*
X18504328Y-14777100D01*
X18518614Y-14791386D01*
X18532900Y-14819957D01*
X18532900Y-14848529D01*
X18518614Y-14891386D01*
X18347186Y-15062814D01*
X18532900Y-15062814D01*
X18890043Y-15062814D02*
X18890043Y-14762814D01*
X19018614Y-15062814D02*
X19018614Y-14905671D01*
X19004328Y-14877100D01*
X18975757Y-14862814D01*
X18932900Y-14862814D01*
X18904328Y-14877100D01*
X18890043Y-14891386D01*
X19204328Y-15062814D02*
X19175757Y-15048529D01*
X19161471Y-15034243D01*
X19147186Y-15005671D01*
X19147186Y-14919957D01*
X19161471Y-14891386D01*
X19175757Y-14877100D01*
X19204328Y-14862814D01*
X19247186Y-14862814D01*
X19275757Y-14877100D01*
X19290043Y-14891386D01*
X19304328Y-14919957D01*
X19304328Y-15005671D01*
X19290043Y-15034243D01*
X19275757Y-15048529D01*
X19247186Y-15062814D01*
X19204328Y-15062814D01*
X19475757Y-15062814D02*
X19447186Y-15048529D01*
X19432900Y-15019957D01*
X19432900Y-14762814D01*
X19704328Y-15048529D02*
X19675757Y-15062814D01*
X19618614Y-15062814D01*
X19590043Y-15048529D01*
X19575757Y-15019957D01*
X19575757Y-14905671D01*
X19590043Y-14877100D01*
X19618614Y-14862814D01*
X19675757Y-14862814D01*
X19704328Y-14877100D01*
X19718614Y-14905671D01*
X19718614Y-14934243D01*
X19575757Y-14962814D01*
X19832900Y-15048529D02*
X19861471Y-15062814D01*
X19918614Y-15062814D01*
X19947186Y-15048529D01*
X19961471Y-15019957D01*
X19961471Y-15005671D01*
X19947186Y-14977100D01*
X19918614Y-14962814D01*
X19875757Y-14962814D01*
X19847186Y-14948529D01*
X19832900Y-14919957D01*
X19832900Y-14905671D01*
X19847186Y-14877100D01*
X19875757Y-14862814D01*
X19918614Y-14862814D01*
X19947186Y-14877100D01*
X20061471Y-15177100D02*
X20075757Y-15162814D01*
X20104328Y-15119957D01*
X20118614Y-15091386D01*
X20132900Y-15048529D01*
X20147186Y-14977100D01*
X20147186Y-14919957D01*
X20132900Y-14848529D01*
X20118614Y-14805671D01*
X20104328Y-14777100D01*
X20075757Y-14734243D01*
X20061471Y-14719957D01*
X12667900Y-15273100D02*
X12667900Y-15373100D01*
X12617900Y-15323100D02*
X12717900Y-15323100D01*
X13161471Y-15458814D02*
X12990043Y-15458814D01*
X13075757Y-15458814D02*
X13075757Y-15158814D01*
X13047186Y-15201671D01*
X13018614Y-15230243D01*
X12990043Y-15244529D01*
X13290043Y-15430243D02*
X13304328Y-15444529D01*
X13290043Y-15458814D01*
X13275757Y-15444529D01*
X13290043Y-15430243D01*
X13290043Y-15458814D01*
X13490043Y-15158814D02*
X13518614Y-15158814D01*
X13547186Y-15173100D01*
X13561471Y-15187386D01*
X13575757Y-15215957D01*
X13590043Y-15273100D01*
X13590043Y-15344529D01*
X13575757Y-15401671D01*
X13561471Y-15430243D01*
X13547186Y-15444529D01*
X13518614Y-15458814D01*
X13490043Y-15458814D01*
X13461471Y-15444529D01*
X13447186Y-15430243D01*
X13432900Y-15401671D01*
X13418614Y-15344529D01*
X13418614Y-15273100D01*
X13432900Y-15215957D01*
X13447186Y-15187386D01*
X13461471Y-15173100D01*
X13490043Y-15158814D01*
X13775757Y-15158814D02*
X13804328Y-15158814D01*
X13832900Y-15173100D01*
X13847186Y-15187386D01*
X13861471Y-15215957D01*
X13875757Y-15273100D01*
X13875757Y-15344529D01*
X13861471Y-15401671D01*
X13847186Y-15430243D01*
X13832900Y-15444529D01*
X13804328Y-15458814D01*
X13775757Y-15458814D01*
X13747186Y-15444529D01*
X13732900Y-15430243D01*
X13718614Y-15401671D01*
X13704328Y-15344529D01*
X13704328Y-15273100D01*
X13718614Y-15215957D01*
X13732900Y-15187386D01*
X13747186Y-15173100D01*
X13775757Y-15158814D01*
X14061471Y-15158814D02*
X14090043Y-15158814D01*
X14118614Y-15173100D01*
X14132900Y-15187386D01*
X14147186Y-15215957D01*
X14161471Y-15273100D01*
X14161471Y-15344529D01*
X14147186Y-15401671D01*
X14132900Y-15430243D01*
X14118614Y-15444529D01*
X14090043Y-15458814D01*
X14061471Y-15458814D01*
X14032900Y-15444529D01*
X14018614Y-15430243D01*
X14004328Y-15401671D01*
X13990043Y-15344529D01*
X13990043Y-15273100D01*
X14004328Y-15215957D01*
X14018614Y-15187386D01*
X14032900Y-15173100D01*
X14061471Y-15158814D01*
X14290043Y-15458814D02*
X14290043Y-15258814D01*
X14290043Y-15287386D02*
X14304328Y-15273100D01*
X14332900Y-15258814D01*
X14375757Y-15258814D01*
X14404328Y-15273100D01*
X14418614Y-15301671D01*
X14418614Y-15458814D01*
X14418614Y-15301671D02*
X14432900Y-15273100D01*
X14461471Y-15258814D01*
X14504328Y-15258814D01*
X14532900Y-15273100D01*
X14547186Y-15301671D01*
X14547186Y-15458814D01*
X14690043Y-15458814D02*
X14690043Y-15258814D01*
X14690043Y-15287386D02*
X14704328Y-15273100D01*
X14732900Y-15258814D01*
X14775757Y-15258814D01*
X14804328Y-15273100D01*
X14818614Y-15301671D01*
X14818614Y-15458814D01*
X14818614Y-15301671D02*
X14832900Y-15273100D01*
X14861471Y-15258814D01*
X14904328Y-15258814D01*
X14932900Y-15273100D01*
X14947186Y-15301671D01*
X14947186Y-15458814D01*
X15532900Y-15144529D02*
X15275757Y-15530243D01*
X15918614Y-15158814D02*
X15947186Y-15158814D01*
X15975757Y-15173100D01*
X15990043Y-15187386D01*
X16004328Y-15215957D01*
X16018614Y-15273100D01*
X16018614Y-15344529D01*
X16004328Y-15401671D01*
X15990043Y-15430243D01*
X15975757Y-15444529D01*
X15947186Y-15458814D01*
X15918614Y-15458814D01*
X15890043Y-15444529D01*
X15875757Y-15430243D01*
X15861471Y-15401671D01*
X15847186Y-15344529D01*
X15847186Y-15273100D01*
X15861471Y-15215957D01*
X15875757Y-15187386D01*
X15890043Y-15173100D01*
X15918614Y-15158814D01*
X16147186Y-15430243D02*
X16161471Y-15444529D01*
X16147186Y-15458814D01*
X16132900Y-15444529D01*
X16147186Y-15430243D01*
X16147186Y-15458814D01*
X16347186Y-15158814D02*
X16375757Y-15158814D01*
X16404328Y-15173100D01*
X16418614Y-15187386D01*
X16432900Y-15215957D01*
X16447186Y-15273100D01*
X16447186Y-15344529D01*
X16432900Y-15401671D01*
X16418614Y-15430243D01*
X16404328Y-15444529D01*
X16375757Y-15458814D01*
X16347186Y-15458814D01*
X16318614Y-15444529D01*
X16304328Y-15430243D01*
X16290043Y-15401671D01*
X16275757Y-15344529D01*
X16275757Y-15273100D01*
X16290043Y-15215957D01*
X16304328Y-15187386D01*
X16318614Y-15173100D01*
X16347186Y-15158814D01*
X16547186Y-15158814D02*
X16732900Y-15158814D01*
X16632900Y-15273100D01*
X16675757Y-15273100D01*
X16704328Y-15287386D01*
X16718614Y-15301671D01*
X16732900Y-15330243D01*
X16732900Y-15401671D01*
X16718614Y-15430243D01*
X16704328Y-15444529D01*
X16675757Y-15458814D01*
X16590043Y-15458814D01*
X16561471Y-15444529D01*
X16547186Y-15430243D01*
X16875757Y-15458814D02*
X16932900Y-15458814D01*
X16961471Y-15444529D01*
X16975757Y-15430243D01*
X17004328Y-15387386D01*
X17018614Y-15330243D01*
X17018614Y-15215957D01*
X17004328Y-15187386D01*
X16990043Y-15173100D01*
X16961471Y-15158814D01*
X16904328Y-15158814D01*
X16875757Y-15173100D01*
X16861471Y-15187386D01*
X16847186Y-15215957D01*
X16847186Y-15287386D01*
X16861471Y-15315957D01*
X16875757Y-15330243D01*
X16904328Y-15344529D01*
X16961471Y-15344529D01*
X16990043Y-15330243D01*
X17004328Y-15315957D01*
X17018614Y-15287386D01*
X17275757Y-15258814D02*
X17275757Y-15458814D01*
X17204328Y-15144529D02*
X17132900Y-15358814D01*
X17318614Y-15358814D01*
X17418614Y-15158814D02*
X17418614Y-15215957D01*
X17532900Y-15158814D02*
X17532900Y-15215957D01*
X17975757Y-15573100D02*
X17961471Y-15558814D01*
X17932900Y-15515957D01*
X17918614Y-15487386D01*
X17904328Y-15444529D01*
X17890043Y-15373100D01*
X17890043Y-15315957D01*
X17904328Y-15244529D01*
X17918614Y-15201671D01*
X17932900Y-15173100D01*
X17961471Y-15130243D01*
X17975757Y-15115957D01*
X18075757Y-15187386D02*
X18090043Y-15173100D01*
X18118614Y-15158814D01*
X18190043Y-15158814D01*
X18218614Y-15173100D01*
X18232900Y-15187386D01*
X18247186Y-15215957D01*
X18247186Y-15244529D01*
X18232900Y-15287386D01*
X18061471Y-15458814D01*
X18247186Y-15458814D01*
X18504328Y-15158814D02*
X18447186Y-15158814D01*
X18418614Y-15173100D01*
X18404328Y-15187386D01*
X18375757Y-15230243D01*
X18361471Y-15287386D01*
X18361471Y-15401671D01*
X18375757Y-15430243D01*
X18390043Y-15444529D01*
X18418614Y-15458814D01*
X18475757Y-15458814D01*
X18504328Y-15444529D01*
X18518614Y-15430243D01*
X18532900Y-15401671D01*
X18532900Y-15330243D01*
X18518614Y-15301671D01*
X18504328Y-15287386D01*
X18475757Y-15273100D01*
X18418614Y-15273100D01*
X18390043Y-15287386D01*
X18375757Y-15301671D01*
X18361471Y-15330243D01*
X18890043Y-15458814D02*
X18890043Y-15158814D01*
X19018614Y-15458814D02*
X19018614Y-15301671D01*
X19004328Y-15273100D01*
X18975757Y-15258814D01*
X18932900Y-15258814D01*
X18904328Y-15273100D01*
X18890043Y-15287386D01*
X19204328Y-15458814D02*
X19175757Y-15444529D01*
X19161471Y-15430243D01*
X19147186Y-15401671D01*
X19147186Y-15315957D01*
X19161471Y-15287386D01*
X19175757Y-15273100D01*
X19204328Y-15258814D01*
X19247186Y-15258814D01*
X19275757Y-15273100D01*
X19290043Y-15287386D01*
X19304328Y-15315957D01*
X19304328Y-15401671D01*
X19290043Y-15430243D01*
X19275757Y-15444529D01*
X19247186Y-15458814D01*
X19204328Y-15458814D01*
X19475757Y-15458814D02*
X19447186Y-15444529D01*
X19432900Y-15415957D01*
X19432900Y-15158814D01*
X19704328Y-15444529D02*
X19675757Y-15458814D01*
X19618614Y-15458814D01*
X19590043Y-15444529D01*
X19575757Y-15415957D01*
X19575757Y-15301671D01*
X19590043Y-15273100D01*
X19618614Y-15258814D01*
X19675757Y-15258814D01*
X19704328Y-15273100D01*
X19718614Y-15301671D01*
X19718614Y-15330243D01*
X19575757Y-15358814D01*
X19832900Y-15444529D02*
X19861471Y-15458814D01*
X19918614Y-15458814D01*
X19947186Y-15444529D01*
X19961471Y-15415957D01*
X19961471Y-15401671D01*
X19947186Y-15373100D01*
X19918614Y-15358814D01*
X19875757Y-15358814D01*
X19847186Y-15344529D01*
X19832900Y-15315957D01*
X19832900Y-15301671D01*
X19847186Y-15273100D01*
X19875757Y-15258814D01*
X19918614Y-15258814D01*
X19947186Y-15273100D01*
X20061471Y-15573100D02*
X20075757Y-15558814D01*
X20104328Y-15515957D01*
X20118614Y-15487386D01*
X20132900Y-15444529D01*
X20147186Y-15373100D01*
X20147186Y-15315957D01*
X20132900Y-15244529D01*
X20118614Y-15201671D01*
X20104328Y-15173100D01*
X20075757Y-15130243D01*
X20061471Y-15115957D01*
X12701791Y-15757991D02*
X12701791Y-15680209D01*
X12624009Y-15680209D01*
X12624009Y-15757991D01*
X12701791Y-15757991D01*
X13161471Y-15854814D02*
X12990043Y-15854814D01*
X13075757Y-15854814D02*
X13075757Y-15554814D01*
X13047186Y-15597671D01*
X13018614Y-15626243D01*
X12990043Y-15640529D01*
X13290043Y-15826243D02*
X13304328Y-15840529D01*
X13290043Y-15854814D01*
X13275757Y-15840529D01*
X13290043Y-15826243D01*
X13290043Y-15854814D01*
X13590043Y-15854814D02*
X13418614Y-15854814D01*
X13504328Y-15854814D02*
X13504328Y-15554814D01*
X13475757Y-15597671D01*
X13447186Y-15626243D01*
X13418614Y-15640529D01*
X13775757Y-15554814D02*
X13804328Y-15554814D01*
X13832900Y-15569100D01*
X13847186Y-15583386D01*
X13861471Y-15611957D01*
X13875757Y-15669100D01*
X13875757Y-15740529D01*
X13861471Y-15797671D01*
X13847186Y-15826243D01*
X13832900Y-15840529D01*
X13804328Y-15854814D01*
X13775757Y-15854814D01*
X13747186Y-15840529D01*
X13732900Y-15826243D01*
X13718614Y-15797671D01*
X13704328Y-15740529D01*
X13704328Y-15669100D01*
X13718614Y-15611957D01*
X13732900Y-15583386D01*
X13747186Y-15569100D01*
X13775757Y-15554814D01*
X14061471Y-15554814D02*
X14090043Y-15554814D01*
X14118614Y-15569100D01*
X14132900Y-15583386D01*
X14147186Y-15611957D01*
X14161471Y-15669100D01*
X14161471Y-15740529D01*
X14147186Y-15797671D01*
X14132900Y-15826243D01*
X14118614Y-15840529D01*
X14090043Y-15854814D01*
X14061471Y-15854814D01*
X14032900Y-15840529D01*
X14018614Y-15826243D01*
X14004328Y-15797671D01*
X13990043Y-15740529D01*
X13990043Y-15669100D01*
X14004328Y-15611957D01*
X14018614Y-15583386D01*
X14032900Y-15569100D01*
X14061471Y-15554814D01*
X14290043Y-15854814D02*
X14290043Y-15654814D01*
X14290043Y-15683386D02*
X14304328Y-15669100D01*
X14332900Y-15654814D01*
X14375757Y-15654814D01*
X14404328Y-15669100D01*
X14418614Y-15697671D01*
X14418614Y-15854814D01*
X14418614Y-15697671D02*
X14432900Y-15669100D01*
X14461471Y-15654814D01*
X14504328Y-15654814D01*
X14532900Y-15669100D01*
X14547186Y-15697671D01*
X14547186Y-15854814D01*
X14690043Y-15854814D02*
X14690043Y-15654814D01*
X14690043Y-15683386D02*
X14704328Y-15669100D01*
X14732900Y-15654814D01*
X14775757Y-15654814D01*
X14804328Y-15669100D01*
X14818614Y-15697671D01*
X14818614Y-15854814D01*
X14818614Y-15697671D02*
X14832900Y-15669100D01*
X14861471Y-15654814D01*
X14904328Y-15654814D01*
X14932900Y-15669100D01*
X14947186Y-15697671D01*
X14947186Y-15854814D01*
X15532900Y-15540529D02*
X15275757Y-15926243D01*
X15918614Y-15554814D02*
X15947186Y-15554814D01*
X15975757Y-15569100D01*
X15990043Y-15583386D01*
X16004328Y-15611957D01*
X16018614Y-15669100D01*
X16018614Y-15740529D01*
X16004328Y-15797671D01*
X15990043Y-15826243D01*
X15975757Y-15840529D01*
X15947186Y-15854814D01*
X15918614Y-15854814D01*
X15890043Y-15840529D01*
X15875757Y-15826243D01*
X15861471Y-15797671D01*
X15847186Y-15740529D01*
X15847186Y-15669100D01*
X15861471Y-15611957D01*
X15875757Y-15583386D01*
X15890043Y-15569100D01*
X15918614Y-15554814D01*
X16147186Y-15826243D02*
X16161471Y-15840529D01*
X16147186Y-15854814D01*
X16132900Y-15840529D01*
X16147186Y-15826243D01*
X16147186Y-15854814D01*
X16347186Y-15554814D02*
X16375757Y-15554814D01*
X16404328Y-15569100D01*
X16418614Y-15583386D01*
X16432900Y-15611957D01*
X16447186Y-15669100D01*
X16447186Y-15740529D01*
X16432900Y-15797671D01*
X16418614Y-15826243D01*
X16404328Y-15840529D01*
X16375757Y-15854814D01*
X16347186Y-15854814D01*
X16318614Y-15840529D01*
X16304328Y-15826243D01*
X16290043Y-15797671D01*
X16275757Y-15740529D01*
X16275757Y-15669100D01*
X16290043Y-15611957D01*
X16304328Y-15583386D01*
X16318614Y-15569100D01*
X16347186Y-15554814D01*
X16704328Y-15654814D02*
X16704328Y-15854814D01*
X16632900Y-15540529D02*
X16561471Y-15754814D01*
X16747186Y-15754814D01*
X16832900Y-15554814D02*
X17018614Y-15554814D01*
X16918614Y-15669100D01*
X16961471Y-15669100D01*
X16990043Y-15683386D01*
X17004328Y-15697671D01*
X17018614Y-15726243D01*
X17018614Y-15797671D01*
X17004328Y-15826243D01*
X16990043Y-15840529D01*
X16961471Y-15854814D01*
X16875757Y-15854814D01*
X16847186Y-15840529D01*
X16832900Y-15826243D01*
X17118614Y-15554814D02*
X17304328Y-15554814D01*
X17204328Y-15669100D01*
X17247186Y-15669100D01*
X17275757Y-15683386D01*
X17290043Y-15697671D01*
X17304328Y-15726243D01*
X17304328Y-15797671D01*
X17290043Y-15826243D01*
X17275757Y-15840529D01*
X17247186Y-15854814D01*
X17161471Y-15854814D01*
X17132900Y-15840529D01*
X17118614Y-15826243D01*
X17418614Y-15554814D02*
X17418614Y-15611957D01*
X17532900Y-15554814D02*
X17532900Y-15611957D01*
X17975757Y-15969100D02*
X17961471Y-15954814D01*
X17932900Y-15911957D01*
X17918614Y-15883386D01*
X17904328Y-15840529D01*
X17890043Y-15769100D01*
X17890043Y-15711957D01*
X17904328Y-15640529D01*
X17918614Y-15597671D01*
X17932900Y-15569100D01*
X17961471Y-15526243D01*
X17975757Y-15511957D01*
X18061471Y-15554814D02*
X18247186Y-15554814D01*
X18147186Y-15669100D01*
X18190043Y-15669100D01*
X18218614Y-15683386D01*
X18232900Y-15697671D01*
X18247186Y-15726243D01*
X18247186Y-15797671D01*
X18232900Y-15826243D01*
X18218614Y-15840529D01*
X18190043Y-15854814D01*
X18104328Y-15854814D01*
X18075757Y-15840529D01*
X18061471Y-15826243D01*
X18604328Y-15854814D02*
X18604328Y-15554814D01*
X18732900Y-15854814D02*
X18732900Y-15697671D01*
X18718614Y-15669100D01*
X18690043Y-15654814D01*
X18647186Y-15654814D01*
X18618614Y-15669100D01*
X18604328Y-15683386D01*
X18918614Y-15854814D02*
X18890043Y-15840529D01*
X18875757Y-15826243D01*
X18861471Y-15797671D01*
X18861471Y-15711957D01*
X18875757Y-15683386D01*
X18890043Y-15669100D01*
X18918614Y-15654814D01*
X18961471Y-15654814D01*
X18990043Y-15669100D01*
X19004328Y-15683386D01*
X19018614Y-15711957D01*
X19018614Y-15797671D01*
X19004328Y-15826243D01*
X18990043Y-15840529D01*
X18961471Y-15854814D01*
X18918614Y-15854814D01*
X19190043Y-15854814D02*
X19161471Y-15840529D01*
X19147186Y-15811957D01*
X19147186Y-15554814D01*
X19418614Y-15840529D02*
X19390043Y-15854814D01*
X19332900Y-15854814D01*
X19304328Y-15840529D01*
X19290043Y-15811957D01*
X19290043Y-15697671D01*
X19304328Y-15669100D01*
X19332900Y-15654814D01*
X19390043Y-15654814D01*
X19418614Y-15669100D01*
X19432900Y-15697671D01*
X19432900Y-15726243D01*
X19290043Y-15754814D01*
X19547186Y-15840529D02*
X19575757Y-15854814D01*
X19632900Y-15854814D01*
X19661471Y-15840529D01*
X19675757Y-15811957D01*
X19675757Y-15797671D01*
X19661471Y-15769100D01*
X19632900Y-15754814D01*
X19590043Y-15754814D01*
X19561471Y-15740529D01*
X19547186Y-15711957D01*
X19547186Y-15697671D01*
X19561471Y-15669100D01*
X19590043Y-15654814D01*
X19632900Y-15654814D01*
X19661471Y-15669100D01*
X19775757Y-15969100D02*
X19790043Y-15954814D01*
X19818614Y-15911957D01*
X19832900Y-15883386D01*
X19847186Y-15840529D01*
X19861471Y-15769100D01*
X19861471Y-15711957D01*
X19847186Y-15640529D01*
X19832900Y-15597671D01*
X19818614Y-15569100D01*
X19790043Y-15526243D01*
X19775757Y-15511957D01*
X12653003Y-16179997D02*
X12717900Y-16115100D01*
X12653003Y-16050203D01*
X12588106Y-16115100D01*
X12653003Y-16179997D01*
X13161471Y-16250814D02*
X12990043Y-16250814D01*
X13075757Y-16250814D02*
X13075757Y-15950814D01*
X13047186Y-15993671D01*
X13018614Y-16022243D01*
X12990043Y-16036529D01*
X13290043Y-16222243D02*
X13304328Y-16236529D01*
X13290043Y-16250814D01*
X13275757Y-16236529D01*
X13290043Y-16222243D01*
X13290043Y-16250814D01*
X13418614Y-15979386D02*
X13432900Y-15965100D01*
X13461471Y-15950814D01*
X13532900Y-15950814D01*
X13561471Y-15965100D01*
X13575757Y-15979386D01*
X13590043Y-16007957D01*
X13590043Y-16036529D01*
X13575757Y-16079386D01*
X13404328Y-16250814D01*
X13590043Y-16250814D01*
X13732900Y-16250814D02*
X13790043Y-16250814D01*
X13818614Y-16236529D01*
X13832900Y-16222243D01*
X13861471Y-16179386D01*
X13875757Y-16122243D01*
X13875757Y-16007957D01*
X13861471Y-15979386D01*
X13847186Y-15965100D01*
X13818614Y-15950814D01*
X13761471Y-15950814D01*
X13732900Y-15965100D01*
X13718614Y-15979386D01*
X13704328Y-16007957D01*
X13704328Y-16079386D01*
X13718614Y-16107957D01*
X13732900Y-16122243D01*
X13761471Y-16136529D01*
X13818614Y-16136529D01*
X13847186Y-16122243D01*
X13861471Y-16107957D01*
X13875757Y-16079386D01*
X14047186Y-16079386D02*
X14018614Y-16065100D01*
X14004328Y-16050814D01*
X13990043Y-16022243D01*
X13990043Y-16007957D01*
X14004328Y-15979386D01*
X14018614Y-15965100D01*
X14047186Y-15950814D01*
X14104328Y-15950814D01*
X14132900Y-15965100D01*
X14147186Y-15979386D01*
X14161471Y-16007957D01*
X14161471Y-16022243D01*
X14147186Y-16050814D01*
X14132900Y-16065100D01*
X14104328Y-16079386D01*
X14047186Y-16079386D01*
X14018614Y-16093671D01*
X14004328Y-16107957D01*
X13990043Y-16136529D01*
X13990043Y-16193671D01*
X14004328Y-16222243D01*
X14018614Y-16236529D01*
X14047186Y-16250814D01*
X14104328Y-16250814D01*
X14132900Y-16236529D01*
X14147186Y-16222243D01*
X14161471Y-16193671D01*
X14161471Y-16136529D01*
X14147186Y-16107957D01*
X14132900Y-16093671D01*
X14104328Y-16079386D01*
X14290043Y-16250814D02*
X14290043Y-16050814D01*
X14290043Y-16079386D02*
X14304328Y-16065100D01*
X14332900Y-16050814D01*
X14375757Y-16050814D01*
X14404328Y-16065100D01*
X14418614Y-16093671D01*
X14418614Y-16250814D01*
X14418614Y-16093671D02*
X14432900Y-16065100D01*
X14461471Y-16050814D01*
X14504328Y-16050814D01*
X14532900Y-16065100D01*
X14547186Y-16093671D01*
X14547186Y-16250814D01*
X14690043Y-16250814D02*
X14690043Y-16050814D01*
X14690043Y-16079386D02*
X14704328Y-16065100D01*
X14732900Y-16050814D01*
X14775757Y-16050814D01*
X14804328Y-16065100D01*
X14818614Y-16093671D01*
X14818614Y-16250814D01*
X14818614Y-16093671D02*
X14832900Y-16065100D01*
X14861471Y-16050814D01*
X14904328Y-16050814D01*
X14932900Y-16065100D01*
X14947186Y-16093671D01*
X14947186Y-16250814D01*
X15532900Y-15936529D02*
X15275757Y-16322243D01*
X15918614Y-15950814D02*
X15947186Y-15950814D01*
X15975757Y-15965100D01*
X15990043Y-15979386D01*
X16004328Y-16007957D01*
X16018614Y-16065100D01*
X16018614Y-16136529D01*
X16004328Y-16193671D01*
X15990043Y-16222243D01*
X15975757Y-16236529D01*
X15947186Y-16250814D01*
X15918614Y-16250814D01*
X15890043Y-16236529D01*
X15875757Y-16222243D01*
X15861471Y-16193671D01*
X15847186Y-16136529D01*
X15847186Y-16065100D01*
X15861471Y-16007957D01*
X15875757Y-15979386D01*
X15890043Y-15965100D01*
X15918614Y-15950814D01*
X16147186Y-16222243D02*
X16161471Y-16236529D01*
X16147186Y-16250814D01*
X16132900Y-16236529D01*
X16147186Y-16222243D01*
X16147186Y-16250814D01*
X16347186Y-15950814D02*
X16375757Y-15950814D01*
X16404328Y-15965100D01*
X16418614Y-15979386D01*
X16432900Y-16007957D01*
X16447186Y-16065100D01*
X16447186Y-16136529D01*
X16432900Y-16193671D01*
X16418614Y-16222243D01*
X16404328Y-16236529D01*
X16375757Y-16250814D01*
X16347186Y-16250814D01*
X16318614Y-16236529D01*
X16304328Y-16222243D01*
X16290043Y-16193671D01*
X16275757Y-16136529D01*
X16275757Y-16065100D01*
X16290043Y-16007957D01*
X16304328Y-15979386D01*
X16318614Y-15965100D01*
X16347186Y-15950814D01*
X16718614Y-15950814D02*
X16575757Y-15950814D01*
X16561471Y-16093671D01*
X16575757Y-16079386D01*
X16604328Y-16065100D01*
X16675757Y-16065100D01*
X16704328Y-16079386D01*
X16718614Y-16093671D01*
X16732900Y-16122243D01*
X16732900Y-16193671D01*
X16718614Y-16222243D01*
X16704328Y-16236529D01*
X16675757Y-16250814D01*
X16604328Y-16250814D01*
X16575757Y-16236529D01*
X16561471Y-16222243D01*
X17018614Y-16250814D02*
X16847186Y-16250814D01*
X16932900Y-16250814D02*
X16932900Y-15950814D01*
X16904328Y-15993671D01*
X16875757Y-16022243D01*
X16847186Y-16036529D01*
X17304328Y-16250814D02*
X17132900Y-16250814D01*
X17218614Y-16250814D02*
X17218614Y-15950814D01*
X17190043Y-15993671D01*
X17161471Y-16022243D01*
X17132900Y-16036529D01*
X17418614Y-15950814D02*
X17418614Y-16007957D01*
X17532900Y-15950814D02*
X17532900Y-16007957D01*
X17975757Y-16365100D02*
X17961471Y-16350814D01*
X17932900Y-16307957D01*
X17918614Y-16279386D01*
X17904328Y-16236529D01*
X17890043Y-16165100D01*
X17890043Y-16107957D01*
X17904328Y-16036529D01*
X17918614Y-15993671D01*
X17932900Y-15965100D01*
X17961471Y-15922243D01*
X17975757Y-15907957D01*
X18075757Y-15979386D02*
X18090043Y-15965100D01*
X18118614Y-15950814D01*
X18190043Y-15950814D01*
X18218614Y-15965100D01*
X18232900Y-15979386D01*
X18247186Y-16007957D01*
X18247186Y-16036529D01*
X18232900Y-16079386D01*
X18061471Y-16250814D01*
X18247186Y-16250814D01*
X18604328Y-16250814D02*
X18604328Y-15950814D01*
X18732900Y-16250814D02*
X18732900Y-16093671D01*
X18718614Y-16065100D01*
X18690043Y-16050814D01*
X18647186Y-16050814D01*
X18618614Y-16065100D01*
X18604328Y-16079386D01*
X18918614Y-16250814D02*
X18890043Y-16236529D01*
X18875757Y-16222243D01*
X18861471Y-16193671D01*
X18861471Y-16107957D01*
X18875757Y-16079386D01*
X18890043Y-16065100D01*
X18918614Y-16050814D01*
X18961471Y-16050814D01*
X18990043Y-16065100D01*
X19004328Y-16079386D01*
X19018614Y-16107957D01*
X19018614Y-16193671D01*
X19004328Y-16222243D01*
X18990043Y-16236529D01*
X18961471Y-16250814D01*
X18918614Y-16250814D01*
X19190043Y-16250814D02*
X19161471Y-16236529D01*
X19147186Y-16207957D01*
X19147186Y-15950814D01*
X19418614Y-16236529D02*
X19390043Y-16250814D01*
X19332900Y-16250814D01*
X19304328Y-16236529D01*
X19290043Y-16207957D01*
X19290043Y-16093671D01*
X19304328Y-16065100D01*
X19332900Y-16050814D01*
X19390043Y-16050814D01*
X19418614Y-16065100D01*
X19432900Y-16093671D01*
X19432900Y-16122243D01*
X19290043Y-16150814D01*
X19547186Y-16236529D02*
X19575757Y-16250814D01*
X19632900Y-16250814D01*
X19661471Y-16236529D01*
X19675757Y-16207957D01*
X19675757Y-16193671D01*
X19661471Y-16165100D01*
X19632900Y-16150814D01*
X19590043Y-16150814D01*
X19561471Y-16136529D01*
X19547186Y-16107957D01*
X19547186Y-16093671D01*
X19561471Y-16065100D01*
X19590043Y-16050814D01*
X19632900Y-16050814D01*
X19661471Y-16065100D01*
X19775757Y-16365100D02*
X19790043Y-16350814D01*
X19818614Y-16307957D01*
X19832900Y-16279386D01*
X19847186Y-16236529D01*
X19861471Y-16165100D01*
X19861471Y-16107957D01*
X19847186Y-16036529D01*
X19832900Y-15993671D01*
X19818614Y-15965100D01*
X19790043Y-15922243D01*
X19775757Y-15907957D01*
M02*
