G04 #@! TF.GenerationSoftware,KiCad,Pcbnew,5.1.10-1.fc34*
G04 #@! TF.CreationDate,2021-08-21T17:02:38+03:00*
G04 #@! TF.ProjectId,nmea0183-5V-buffer-board,6e6d6561-3031-4383-932d-35562d627566,rev?*
G04 #@! TF.SameCoordinates,Original*
G04 #@! TF.FileFunction,Copper,L1,Top*
G04 #@! TF.FilePolarity,Positive*
%FSLAX46Y46*%
G04 Gerber Fmt 4.6, Leading zero omitted, Abs format (unit mm)*
G04 Created by KiCad (PCBNEW 5.1.10-1.fc34) date 2021-08-21 17:02:38*
%MOMM*%
%LPD*%
G01*
G04 APERTURE LIST*
G04 #@! TA.AperFunction,ComponentPad*
%ADD10C,2.032000*%
G04 #@! TD*
G04 #@! TA.AperFunction,ComponentPad*
%ADD11R,2.032000X2.032000*%
G04 #@! TD*
G04 #@! TA.AperFunction,ComponentPad*
%ADD12O,1.600000X1.600000*%
G04 #@! TD*
G04 #@! TA.AperFunction,ComponentPad*
%ADD13R,1.600000X1.600000*%
G04 #@! TD*
G04 #@! TA.AperFunction,ComponentPad*
%ADD14O,1.905000X2.000000*%
G04 #@! TD*
G04 #@! TA.AperFunction,ComponentPad*
%ADD15R,1.905000X2.000000*%
G04 #@! TD*
G04 #@! TA.AperFunction,ComponentPad*
%ADD16O,1.700000X1.700000*%
G04 #@! TD*
G04 #@! TA.AperFunction,ComponentPad*
%ADD17R,1.700000X1.700000*%
G04 #@! TD*
G04 #@! TA.AperFunction,ComponentPad*
%ADD18C,1.600000*%
G04 #@! TD*
G04 #@! TA.AperFunction,ComponentPad*
%ADD19C,2.000000*%
G04 #@! TD*
G04 #@! TA.AperFunction,ComponentPad*
%ADD20R,2.000000X2.000000*%
G04 #@! TD*
G04 #@! TA.AperFunction,ViaPad*
%ADD21C,0.800000*%
G04 #@! TD*
G04 #@! TA.AperFunction,Conductor*
%ADD22C,0.500000*%
G04 #@! TD*
G04 #@! TA.AperFunction,Conductor*
%ADD23C,0.254000*%
G04 #@! TD*
G04 #@! TA.AperFunction,Conductor*
%ADD24C,0.100000*%
G04 #@! TD*
G04 APERTURE END LIST*
D10*
X151302720Y-80772000D03*
D11*
X146304000Y-80772000D03*
D12*
X150114000Y-104902000D03*
X142494000Y-127762000D03*
X150114000Y-107442000D03*
X142494000Y-125222000D03*
X150114000Y-109982000D03*
X142494000Y-122682000D03*
X150114000Y-112522000D03*
X142494000Y-120142000D03*
X150114000Y-115062000D03*
X142494000Y-117602000D03*
X150114000Y-117602000D03*
X142494000Y-115062000D03*
X150114000Y-120142000D03*
X142494000Y-112522000D03*
X150114000Y-122682000D03*
X142494000Y-109982000D03*
X150114000Y-125222000D03*
X142494000Y-107442000D03*
X150114000Y-127762000D03*
D13*
X142494000Y-104902000D03*
D14*
X148844000Y-98806000D03*
X146304000Y-98806000D03*
D15*
X143764000Y-98806000D03*
D16*
X155956000Y-127762000D03*
X155956000Y-125222000D03*
X155956000Y-122682000D03*
X155956000Y-120142000D03*
X155956000Y-117602000D03*
X155956000Y-115062000D03*
X155956000Y-112522000D03*
X155956000Y-109982000D03*
X155956000Y-107442000D03*
X155956000Y-104902000D03*
X155956000Y-102362000D03*
D17*
X155956000Y-99822000D03*
D16*
X135128000Y-127868000D03*
X135128000Y-125328000D03*
X135128000Y-122788000D03*
X135128000Y-120248000D03*
X135128000Y-117708000D03*
X135128000Y-115168000D03*
X135128000Y-112628000D03*
X135128000Y-110088000D03*
X135128000Y-107548000D03*
X135128000Y-105008000D03*
X135128000Y-102468000D03*
D17*
X135128000Y-99928000D03*
D18*
X152948000Y-91186000D03*
D13*
X155448000Y-91186000D03*
D19*
X140890000Y-87376000D03*
D20*
X135890000Y-87376000D03*
D21*
X162052000Y-84836000D03*
X162052000Y-91186000D03*
X162052000Y-96266000D03*
X162052000Y-101092000D03*
X162052000Y-106426000D03*
X162052000Y-111506000D03*
X162052000Y-116586000D03*
X162052000Y-121412000D03*
X162052000Y-126746000D03*
X156210000Y-133604000D03*
X151130000Y-134112000D03*
X145288000Y-134112000D03*
X139446000Y-134112000D03*
X135382000Y-133858000D03*
X129286000Y-127254000D03*
X129032000Y-122174000D03*
X129032000Y-117094000D03*
X129032000Y-111760000D03*
X129032000Y-106680000D03*
X129032000Y-101600000D03*
X129032000Y-94996000D03*
X129032000Y-88392000D03*
X129032000Y-83566000D03*
X135382000Y-77724000D03*
X140462000Y-77724000D03*
X145288000Y-77724000D03*
X150114000Y-77724000D03*
X154432000Y-77724000D03*
D22*
X146304000Y-104676900D02*
X144169400Y-104676900D01*
X144169400Y-104676900D02*
X143944300Y-104902000D01*
X148663700Y-107442000D02*
X148663700Y-107036600D01*
X148663700Y-107036600D02*
X146304000Y-104676900D01*
X146304000Y-104676900D02*
X146304000Y-98806000D01*
X142494000Y-104902000D02*
X143944300Y-104902000D01*
X150114000Y-107442000D02*
X148663700Y-107442000D01*
X135128000Y-127762000D02*
X135128000Y-127868000D01*
X135128000Y-125328000D02*
X135128000Y-127762000D01*
X135128000Y-127762000D02*
X141043700Y-127762000D01*
X142494000Y-127762000D02*
X141043700Y-127762000D01*
X155956000Y-125222000D02*
X155956000Y-127762000D01*
X155956000Y-122682000D02*
X155956000Y-125222000D01*
X155956000Y-120142000D02*
X155956000Y-122682000D01*
X135128000Y-122788000D02*
X135128000Y-125328000D01*
X135128000Y-120248000D02*
X135128000Y-122788000D01*
X150114000Y-104902000D02*
X150114000Y-103451700D01*
X148844000Y-98806000D02*
X148844000Y-102181700D01*
X148844000Y-102181700D02*
X150114000Y-103451700D01*
X142494000Y-122682000D02*
X139799600Y-119987600D01*
X139799600Y-119987600D02*
X139799600Y-112219600D01*
X139799600Y-112219600D02*
X135128000Y-107548000D01*
X155956000Y-115062000D02*
X154455700Y-116562300D01*
X154455700Y-116562300D02*
X154455700Y-125518900D01*
X154455700Y-125518900D02*
X150757700Y-129216900D01*
X150757700Y-129216900D02*
X149451400Y-129216900D01*
X149451400Y-129216900D02*
X146304000Y-126069500D01*
X146304000Y-126069500D02*
X146304000Y-118872000D01*
X146304000Y-118872000D02*
X142494000Y-115062000D01*
X155956000Y-112522000D02*
X157480100Y-114046100D01*
X157480100Y-114046100D02*
X157480100Y-128390700D01*
X157480100Y-128390700D02*
X155742600Y-130128200D01*
X155742600Y-130128200D02*
X149089200Y-130128200D01*
X149089200Y-130128200D02*
X144992400Y-126031400D01*
X144992400Y-126031400D02*
X144992400Y-122640400D01*
X144992400Y-122640400D02*
X142494000Y-120142000D01*
X143944300Y-125222000D02*
X143944300Y-126256600D01*
X143944300Y-126256600D02*
X148716200Y-131028500D01*
X148716200Y-131028500D02*
X156115600Y-131028500D01*
X156115600Y-131028500D02*
X158380400Y-128763700D01*
X158380400Y-128763700D02*
X158380400Y-112406400D01*
X158380400Y-112406400D02*
X155956000Y-109982000D01*
X142494000Y-125222000D02*
X143944300Y-125222000D01*
X155956000Y-107442000D02*
X153555300Y-109842700D01*
X153555300Y-109842700D02*
X153555300Y-121780700D01*
X153555300Y-121780700D02*
X150114000Y-125222000D01*
X155956000Y-104902000D02*
X152655000Y-108203000D01*
X152655000Y-108203000D02*
X152655000Y-117601000D01*
X152655000Y-117601000D02*
X150114000Y-120142000D01*
X155956000Y-102362000D02*
X151754700Y-106563300D01*
X151754700Y-106563300D02*
X151754700Y-113421300D01*
X151754700Y-113421300D02*
X150114000Y-115062000D01*
D23*
X163120001Y-134926000D02*
X127964000Y-134926000D01*
X127964000Y-131859872D01*
X128575000Y-131859872D01*
X128575000Y-132300128D01*
X128660890Y-132731925D01*
X128829369Y-133138669D01*
X129073962Y-133504729D01*
X129385271Y-133816038D01*
X129751331Y-134060631D01*
X130158075Y-134229110D01*
X130589872Y-134315000D01*
X131030128Y-134315000D01*
X131461925Y-134229110D01*
X131868669Y-134060631D01*
X132234729Y-133816038D01*
X132546038Y-133504729D01*
X132790631Y-133138669D01*
X132959110Y-132731925D01*
X133045000Y-132300128D01*
X133045000Y-131859872D01*
X132959110Y-131428075D01*
X132790631Y-131021331D01*
X132546038Y-130655271D01*
X132234729Y-130343962D01*
X131868669Y-130099369D01*
X131461925Y-129930890D01*
X131030128Y-129845000D01*
X130589872Y-129845000D01*
X130158075Y-129930890D01*
X129751331Y-130099369D01*
X129385271Y-130343962D01*
X129073962Y-130655271D01*
X128829369Y-131021331D01*
X128660890Y-131428075D01*
X128575000Y-131859872D01*
X127964000Y-131859872D01*
X127964000Y-128224890D01*
X133686524Y-128224890D01*
X133731175Y-128372099D01*
X133856359Y-128634920D01*
X134030412Y-128868269D01*
X134246645Y-129063178D01*
X134496748Y-129212157D01*
X134771109Y-129309481D01*
X135001000Y-129188814D01*
X135001000Y-127995000D01*
X135255000Y-127995000D01*
X135255000Y-129188814D01*
X135484891Y-129309481D01*
X135759252Y-129212157D01*
X136009355Y-129063178D01*
X136225588Y-128868269D01*
X136399641Y-128634920D01*
X136524825Y-128372099D01*
X136569476Y-128224890D01*
X136509393Y-128111039D01*
X141102096Y-128111039D01*
X141142754Y-128245087D01*
X141262963Y-128499420D01*
X141430481Y-128725414D01*
X141638869Y-128914385D01*
X141880119Y-129059070D01*
X142144960Y-129153909D01*
X142367000Y-129032624D01*
X142367000Y-127889000D01*
X142621000Y-127889000D01*
X142621000Y-129032624D01*
X142843040Y-129153909D01*
X143107881Y-129059070D01*
X143349131Y-128914385D01*
X143557519Y-128725414D01*
X143725037Y-128499420D01*
X143845246Y-128245087D01*
X143885904Y-128111039D01*
X143763915Y-127889000D01*
X142621000Y-127889000D01*
X142367000Y-127889000D01*
X141224085Y-127889000D01*
X141102096Y-128111039D01*
X136509393Y-128111039D01*
X136448155Y-127995000D01*
X135255000Y-127995000D01*
X135001000Y-127995000D01*
X133807845Y-127995000D01*
X133686524Y-128224890D01*
X127964000Y-128224890D01*
X127964000Y-125684890D01*
X133686524Y-125684890D01*
X133731175Y-125832099D01*
X133856359Y-126094920D01*
X134030412Y-126328269D01*
X134246645Y-126523178D01*
X134372255Y-126598000D01*
X134246645Y-126672822D01*
X134030412Y-126867731D01*
X133856359Y-127101080D01*
X133731175Y-127363901D01*
X133686524Y-127511110D01*
X133807845Y-127741000D01*
X135001000Y-127741000D01*
X135001000Y-125455000D01*
X135255000Y-125455000D01*
X135255000Y-127741000D01*
X136448155Y-127741000D01*
X136569476Y-127511110D01*
X136524825Y-127363901D01*
X136399641Y-127101080D01*
X136225588Y-126867731D01*
X136009355Y-126672822D01*
X135883745Y-126598000D01*
X136009355Y-126523178D01*
X136225588Y-126328269D01*
X136399641Y-126094920D01*
X136524825Y-125832099D01*
X136569476Y-125684890D01*
X136448155Y-125455000D01*
X135255000Y-125455000D01*
X135001000Y-125455000D01*
X133807845Y-125455000D01*
X133686524Y-125684890D01*
X127964000Y-125684890D01*
X127964000Y-123144890D01*
X133686524Y-123144890D01*
X133731175Y-123292099D01*
X133856359Y-123554920D01*
X134030412Y-123788269D01*
X134246645Y-123983178D01*
X134372255Y-124058000D01*
X134246645Y-124132822D01*
X134030412Y-124327731D01*
X133856359Y-124561080D01*
X133731175Y-124823901D01*
X133686524Y-124971110D01*
X133807845Y-125201000D01*
X135001000Y-125201000D01*
X135001000Y-122915000D01*
X135255000Y-122915000D01*
X135255000Y-125201000D01*
X136448155Y-125201000D01*
X136569476Y-124971110D01*
X136524825Y-124823901D01*
X136399641Y-124561080D01*
X136225588Y-124327731D01*
X136009355Y-124132822D01*
X135883745Y-124058000D01*
X136009355Y-123983178D01*
X136225588Y-123788269D01*
X136399641Y-123554920D01*
X136524825Y-123292099D01*
X136569476Y-123144890D01*
X136448155Y-122915000D01*
X135255000Y-122915000D01*
X135001000Y-122915000D01*
X133807845Y-122915000D01*
X133686524Y-123144890D01*
X127964000Y-123144890D01*
X127964000Y-120604890D01*
X133686524Y-120604890D01*
X133731175Y-120752099D01*
X133856359Y-121014920D01*
X134030412Y-121248269D01*
X134246645Y-121443178D01*
X134372255Y-121518000D01*
X134246645Y-121592822D01*
X134030412Y-121787731D01*
X133856359Y-122021080D01*
X133731175Y-122283901D01*
X133686524Y-122431110D01*
X133807845Y-122661000D01*
X135001000Y-122661000D01*
X135001000Y-120375000D01*
X135255000Y-120375000D01*
X135255000Y-122661000D01*
X136448155Y-122661000D01*
X136569476Y-122431110D01*
X136524825Y-122283901D01*
X136399641Y-122021080D01*
X136225588Y-121787731D01*
X136009355Y-121592822D01*
X135883745Y-121518000D01*
X136009355Y-121443178D01*
X136225588Y-121248269D01*
X136399641Y-121014920D01*
X136524825Y-120752099D01*
X136569476Y-120604890D01*
X136448155Y-120375000D01*
X135255000Y-120375000D01*
X135001000Y-120375000D01*
X133807845Y-120375000D01*
X133686524Y-120604890D01*
X127964000Y-120604890D01*
X127964000Y-99078000D01*
X133639928Y-99078000D01*
X133639928Y-100778000D01*
X133652188Y-100902482D01*
X133688498Y-101022180D01*
X133747463Y-101132494D01*
X133826815Y-101229185D01*
X133923506Y-101308537D01*
X134033820Y-101367502D01*
X134106380Y-101389513D01*
X133974525Y-101521368D01*
X133812010Y-101764589D01*
X133700068Y-102034842D01*
X133643000Y-102321740D01*
X133643000Y-102614260D01*
X133700068Y-102901158D01*
X133812010Y-103171411D01*
X133974525Y-103414632D01*
X134181368Y-103621475D01*
X134355760Y-103738000D01*
X134181368Y-103854525D01*
X133974525Y-104061368D01*
X133812010Y-104304589D01*
X133700068Y-104574842D01*
X133643000Y-104861740D01*
X133643000Y-105154260D01*
X133700068Y-105441158D01*
X133812010Y-105711411D01*
X133974525Y-105954632D01*
X134181368Y-106161475D01*
X134355760Y-106278000D01*
X134181368Y-106394525D01*
X133974525Y-106601368D01*
X133812010Y-106844589D01*
X133700068Y-107114842D01*
X133643000Y-107401740D01*
X133643000Y-107694260D01*
X133700068Y-107981158D01*
X133812010Y-108251411D01*
X133974525Y-108494632D01*
X134181368Y-108701475D01*
X134355760Y-108818000D01*
X134181368Y-108934525D01*
X133974525Y-109141368D01*
X133812010Y-109384589D01*
X133700068Y-109654842D01*
X133643000Y-109941740D01*
X133643000Y-110234260D01*
X133700068Y-110521158D01*
X133812010Y-110791411D01*
X133974525Y-111034632D01*
X134181368Y-111241475D01*
X134355760Y-111358000D01*
X134181368Y-111474525D01*
X133974525Y-111681368D01*
X133812010Y-111924589D01*
X133700068Y-112194842D01*
X133643000Y-112481740D01*
X133643000Y-112774260D01*
X133700068Y-113061158D01*
X133812010Y-113331411D01*
X133974525Y-113574632D01*
X134181368Y-113781475D01*
X134355760Y-113898000D01*
X134181368Y-114014525D01*
X133974525Y-114221368D01*
X133812010Y-114464589D01*
X133700068Y-114734842D01*
X133643000Y-115021740D01*
X133643000Y-115314260D01*
X133700068Y-115601158D01*
X133812010Y-115871411D01*
X133974525Y-116114632D01*
X134181368Y-116321475D01*
X134355760Y-116438000D01*
X134181368Y-116554525D01*
X133974525Y-116761368D01*
X133812010Y-117004589D01*
X133700068Y-117274842D01*
X133643000Y-117561740D01*
X133643000Y-117854260D01*
X133700068Y-118141158D01*
X133812010Y-118411411D01*
X133974525Y-118654632D01*
X134181368Y-118861475D01*
X134363534Y-118983195D01*
X134246645Y-119052822D01*
X134030412Y-119247731D01*
X133856359Y-119481080D01*
X133731175Y-119743901D01*
X133686524Y-119891110D01*
X133807845Y-120121000D01*
X135001000Y-120121000D01*
X135001000Y-120101000D01*
X135255000Y-120101000D01*
X135255000Y-120121000D01*
X136448155Y-120121000D01*
X136569476Y-119891110D01*
X136524825Y-119743901D01*
X136399641Y-119481080D01*
X136225588Y-119247731D01*
X136009355Y-119052822D01*
X135892466Y-118983195D01*
X136074632Y-118861475D01*
X136281475Y-118654632D01*
X136443990Y-118411411D01*
X136555932Y-118141158D01*
X136613000Y-117854260D01*
X136613000Y-117561740D01*
X136555932Y-117274842D01*
X136443990Y-117004589D01*
X136281475Y-116761368D01*
X136074632Y-116554525D01*
X135900240Y-116438000D01*
X136074632Y-116321475D01*
X136281475Y-116114632D01*
X136443990Y-115871411D01*
X136555932Y-115601158D01*
X136613000Y-115314260D01*
X136613000Y-115021740D01*
X136555932Y-114734842D01*
X136443990Y-114464589D01*
X136281475Y-114221368D01*
X136074632Y-114014525D01*
X135900240Y-113898000D01*
X136074632Y-113781475D01*
X136281475Y-113574632D01*
X136443990Y-113331411D01*
X136555932Y-113061158D01*
X136613000Y-112774260D01*
X136613000Y-112481740D01*
X136555932Y-112194842D01*
X136443990Y-111924589D01*
X136281475Y-111681368D01*
X136074632Y-111474525D01*
X135900240Y-111358000D01*
X136074632Y-111241475D01*
X136281475Y-111034632D01*
X136443990Y-110791411D01*
X136555932Y-110521158D01*
X136604652Y-110276230D01*
X138914601Y-112586180D01*
X138914600Y-119944131D01*
X138910319Y-119987600D01*
X138914600Y-120031069D01*
X138914600Y-120031076D01*
X138927405Y-120161089D01*
X138978011Y-120327912D01*
X139060189Y-120481658D01*
X139170783Y-120616417D01*
X139204556Y-120644134D01*
X141065983Y-122505561D01*
X141059000Y-122540665D01*
X141059000Y-122823335D01*
X141114147Y-123100574D01*
X141222320Y-123361727D01*
X141379363Y-123596759D01*
X141579241Y-123796637D01*
X141811759Y-123952000D01*
X141579241Y-124107363D01*
X141379363Y-124307241D01*
X141222320Y-124542273D01*
X141114147Y-124803426D01*
X141059000Y-125080665D01*
X141059000Y-125363335D01*
X141114147Y-125640574D01*
X141222320Y-125901727D01*
X141379363Y-126136759D01*
X141579241Y-126336637D01*
X141814273Y-126493680D01*
X141824865Y-126498067D01*
X141638869Y-126609615D01*
X141430481Y-126798586D01*
X141262963Y-127024580D01*
X141142754Y-127278913D01*
X141102096Y-127412961D01*
X141224085Y-127635000D01*
X142367000Y-127635000D01*
X142367000Y-127615000D01*
X142621000Y-127615000D01*
X142621000Y-127635000D01*
X143763915Y-127635000D01*
X143872848Y-127436726D01*
X148059670Y-131623549D01*
X148087383Y-131657317D01*
X148121151Y-131685030D01*
X148121153Y-131685032D01*
X148222140Y-131767910D01*
X148222141Y-131767911D01*
X148375887Y-131850089D01*
X148542710Y-131900695D01*
X148672723Y-131913500D01*
X148672731Y-131913500D01*
X148716200Y-131917781D01*
X148759669Y-131913500D01*
X156072131Y-131913500D01*
X156115600Y-131917781D01*
X156159069Y-131913500D01*
X156159077Y-131913500D01*
X156289090Y-131900695D01*
X156423663Y-131859872D01*
X158039000Y-131859872D01*
X158039000Y-132300128D01*
X158124890Y-132731925D01*
X158293369Y-133138669D01*
X158537962Y-133504729D01*
X158849271Y-133816038D01*
X159215331Y-134060631D01*
X159622075Y-134229110D01*
X160053872Y-134315000D01*
X160494128Y-134315000D01*
X160925925Y-134229110D01*
X161332669Y-134060631D01*
X161698729Y-133816038D01*
X162010038Y-133504729D01*
X162254631Y-133138669D01*
X162423110Y-132731925D01*
X162509000Y-132300128D01*
X162509000Y-131859872D01*
X162423110Y-131428075D01*
X162254631Y-131021331D01*
X162010038Y-130655271D01*
X161698729Y-130343962D01*
X161332669Y-130099369D01*
X160925925Y-129930890D01*
X160494128Y-129845000D01*
X160053872Y-129845000D01*
X159622075Y-129930890D01*
X159215331Y-130099369D01*
X158849271Y-130343962D01*
X158537962Y-130655271D01*
X158293369Y-131021331D01*
X158124890Y-131428075D01*
X158039000Y-131859872D01*
X156423663Y-131859872D01*
X156455913Y-131850089D01*
X156609659Y-131767911D01*
X156744417Y-131657317D01*
X156772134Y-131623544D01*
X158975450Y-129420229D01*
X159009217Y-129392517D01*
X159077364Y-129309481D01*
X159119811Y-129257759D01*
X159201988Y-129104014D01*
X159201989Y-129104013D01*
X159252595Y-128937190D01*
X159265400Y-128807177D01*
X159265400Y-128807169D01*
X159269681Y-128763700D01*
X159265400Y-128720231D01*
X159265400Y-112449865D01*
X159269681Y-112406399D01*
X159265400Y-112362933D01*
X159265400Y-112362923D01*
X159252595Y-112232910D01*
X159201989Y-112066087D01*
X159119811Y-111912341D01*
X159009217Y-111777583D01*
X158975449Y-111749870D01*
X157426539Y-110200961D01*
X157441000Y-110128260D01*
X157441000Y-109835740D01*
X157383932Y-109548842D01*
X157271990Y-109278589D01*
X157109475Y-109035368D01*
X156902632Y-108828525D01*
X156728240Y-108712000D01*
X156902632Y-108595475D01*
X157109475Y-108388632D01*
X157271990Y-108145411D01*
X157383932Y-107875158D01*
X157441000Y-107588260D01*
X157441000Y-107295740D01*
X157383932Y-107008842D01*
X157271990Y-106738589D01*
X157109475Y-106495368D01*
X156902632Y-106288525D01*
X156728240Y-106172000D01*
X156902632Y-106055475D01*
X157109475Y-105848632D01*
X157271990Y-105605411D01*
X157383932Y-105335158D01*
X157441000Y-105048260D01*
X157441000Y-104755740D01*
X157383932Y-104468842D01*
X157271990Y-104198589D01*
X157109475Y-103955368D01*
X156902632Y-103748525D01*
X156728240Y-103632000D01*
X156902632Y-103515475D01*
X157109475Y-103308632D01*
X157271990Y-103065411D01*
X157383932Y-102795158D01*
X157441000Y-102508260D01*
X157441000Y-102215740D01*
X157383932Y-101928842D01*
X157271990Y-101658589D01*
X157109475Y-101415368D01*
X156977620Y-101283513D01*
X157050180Y-101261502D01*
X157160494Y-101202537D01*
X157257185Y-101123185D01*
X157336537Y-101026494D01*
X157395502Y-100916180D01*
X157431812Y-100796482D01*
X157444072Y-100672000D01*
X157444072Y-98972000D01*
X157431812Y-98847518D01*
X157395502Y-98727820D01*
X157336537Y-98617506D01*
X157257185Y-98520815D01*
X157160494Y-98441463D01*
X157050180Y-98382498D01*
X156930482Y-98346188D01*
X156806000Y-98333928D01*
X155106000Y-98333928D01*
X154981518Y-98346188D01*
X154861820Y-98382498D01*
X154751506Y-98441463D01*
X154654815Y-98520815D01*
X154575463Y-98617506D01*
X154516498Y-98727820D01*
X154480188Y-98847518D01*
X154467928Y-98972000D01*
X154467928Y-100672000D01*
X154480188Y-100796482D01*
X154516498Y-100916180D01*
X154575463Y-101026494D01*
X154654815Y-101123185D01*
X154751506Y-101202537D01*
X154861820Y-101261502D01*
X154934380Y-101283513D01*
X154802525Y-101415368D01*
X154640010Y-101658589D01*
X154528068Y-101928842D01*
X154471000Y-102215740D01*
X154471000Y-102508260D01*
X154485461Y-102580960D01*
X151159656Y-105906766D01*
X151125883Y-105934483D01*
X151015289Y-106069242D01*
X150933111Y-106222988D01*
X150921555Y-106261082D01*
X150783135Y-106178067D01*
X150793727Y-106173680D01*
X151028759Y-106016637D01*
X151228637Y-105816759D01*
X151385680Y-105581727D01*
X151493853Y-105320574D01*
X151549000Y-105043335D01*
X151549000Y-104760665D01*
X151493853Y-104483426D01*
X151385680Y-104222273D01*
X151228637Y-103987241D01*
X151028759Y-103787363D01*
X150999000Y-103767479D01*
X150999000Y-103495165D01*
X151003281Y-103451699D01*
X150999000Y-103408233D01*
X150999000Y-103408223D01*
X150986195Y-103278210D01*
X150935589Y-103111387D01*
X150853411Y-102957641D01*
X150742817Y-102822883D01*
X150709049Y-102795170D01*
X149729000Y-101815122D01*
X149729000Y-100180505D01*
X149730235Y-100179845D01*
X149971963Y-99981463D01*
X150170345Y-99739734D01*
X150317755Y-99463948D01*
X150408530Y-99164703D01*
X150431500Y-98931485D01*
X150431500Y-98680514D01*
X150408530Y-98447296D01*
X150317755Y-98148051D01*
X150170345Y-97872265D01*
X149971963Y-97630537D01*
X149730234Y-97432155D01*
X149454448Y-97284745D01*
X149155203Y-97193970D01*
X148844000Y-97163319D01*
X148532796Y-97193970D01*
X148233551Y-97284745D01*
X147957765Y-97432155D01*
X147716037Y-97630537D01*
X147568838Y-97809900D01*
X147413437Y-97624685D01*
X147170923Y-97430031D01*
X146895094Y-97286429D01*
X146676980Y-97215437D01*
X146431000Y-97335406D01*
X146431000Y-98679000D01*
X146451000Y-98679000D01*
X146451000Y-98933000D01*
X146431000Y-98933000D01*
X146431000Y-100276594D01*
X146676980Y-100396563D01*
X146895094Y-100325571D01*
X147170923Y-100181969D01*
X147413437Y-99987315D01*
X147568837Y-99802101D01*
X147716037Y-99981463D01*
X147957766Y-100179845D01*
X147959000Y-100180505D01*
X147959001Y-102138221D01*
X147954719Y-102181700D01*
X147971805Y-102355190D01*
X148022412Y-102522013D01*
X148104590Y-102675759D01*
X148187468Y-102776746D01*
X148187471Y-102776749D01*
X148215184Y-102810517D01*
X148248951Y-102838229D01*
X149198663Y-103787941D01*
X148999363Y-103987241D01*
X148842320Y-104222273D01*
X148734147Y-104483426D01*
X148679000Y-104760665D01*
X148679000Y-105043335D01*
X148734147Y-105320574D01*
X148842320Y-105581727D01*
X148999363Y-105816759D01*
X149199241Y-106016637D01*
X149434273Y-106173680D01*
X149444865Y-106178067D01*
X149258869Y-106289615D01*
X149050481Y-106478586D01*
X148882963Y-106704580D01*
X148762754Y-106958913D01*
X148722096Y-107092961D01*
X148844085Y-107315000D01*
X149987000Y-107315000D01*
X149987000Y-107295000D01*
X150241000Y-107295000D01*
X150241000Y-107315000D01*
X150261000Y-107315000D01*
X150261000Y-107569000D01*
X150241000Y-107569000D01*
X150241000Y-107589000D01*
X149987000Y-107589000D01*
X149987000Y-107569000D01*
X148844085Y-107569000D01*
X148722096Y-107791039D01*
X148762754Y-107925087D01*
X148882963Y-108179420D01*
X149050481Y-108405414D01*
X149258869Y-108594385D01*
X149444865Y-108705933D01*
X149434273Y-108710320D01*
X149199241Y-108867363D01*
X148999363Y-109067241D01*
X148842320Y-109302273D01*
X148734147Y-109563426D01*
X148679000Y-109840665D01*
X148679000Y-110123335D01*
X148734147Y-110400574D01*
X148842320Y-110661727D01*
X148999363Y-110896759D01*
X149199241Y-111096637D01*
X149431759Y-111252000D01*
X149199241Y-111407363D01*
X148999363Y-111607241D01*
X148842320Y-111842273D01*
X148734147Y-112103426D01*
X148679000Y-112380665D01*
X148679000Y-112663335D01*
X148734147Y-112940574D01*
X148842320Y-113201727D01*
X148999363Y-113436759D01*
X149199241Y-113636637D01*
X149431759Y-113792000D01*
X149199241Y-113947363D01*
X148999363Y-114147241D01*
X148842320Y-114382273D01*
X148734147Y-114643426D01*
X148679000Y-114920665D01*
X148679000Y-115203335D01*
X148734147Y-115480574D01*
X148842320Y-115741727D01*
X148999363Y-115976759D01*
X149199241Y-116176637D01*
X149431759Y-116332000D01*
X149199241Y-116487363D01*
X148999363Y-116687241D01*
X148842320Y-116922273D01*
X148734147Y-117183426D01*
X148679000Y-117460665D01*
X148679000Y-117743335D01*
X148734147Y-118020574D01*
X148842320Y-118281727D01*
X148999363Y-118516759D01*
X149199241Y-118716637D01*
X149431759Y-118872000D01*
X149199241Y-119027363D01*
X148999363Y-119227241D01*
X148842320Y-119462273D01*
X148734147Y-119723426D01*
X148679000Y-120000665D01*
X148679000Y-120283335D01*
X148734147Y-120560574D01*
X148842320Y-120821727D01*
X148999363Y-121056759D01*
X149199241Y-121256637D01*
X149431759Y-121412000D01*
X149199241Y-121567363D01*
X148999363Y-121767241D01*
X148842320Y-122002273D01*
X148734147Y-122263426D01*
X148679000Y-122540665D01*
X148679000Y-122823335D01*
X148734147Y-123100574D01*
X148842320Y-123361727D01*
X148999363Y-123596759D01*
X149199241Y-123796637D01*
X149431759Y-123952000D01*
X149199241Y-124107363D01*
X148999363Y-124307241D01*
X148842320Y-124542273D01*
X148734147Y-124803426D01*
X148679000Y-125080665D01*
X148679000Y-125363335D01*
X148734147Y-125640574D01*
X148842320Y-125901727D01*
X148999363Y-126136759D01*
X149199241Y-126336637D01*
X149431759Y-126492000D01*
X149199241Y-126647363D01*
X148999363Y-126847241D01*
X148842320Y-127082273D01*
X148762077Y-127275998D01*
X147189000Y-125702922D01*
X147189000Y-118915469D01*
X147193281Y-118872000D01*
X147189000Y-118828531D01*
X147189000Y-118828523D01*
X147176195Y-118698510D01*
X147162885Y-118654632D01*
X147125589Y-118531686D01*
X147043411Y-118377941D01*
X146960532Y-118276953D01*
X146960530Y-118276951D01*
X146932817Y-118243183D01*
X146899049Y-118215470D01*
X143922017Y-115238439D01*
X143929000Y-115203335D01*
X143929000Y-114920665D01*
X143873853Y-114643426D01*
X143765680Y-114382273D01*
X143608637Y-114147241D01*
X143408759Y-113947363D01*
X143176241Y-113792000D01*
X143408759Y-113636637D01*
X143608637Y-113436759D01*
X143765680Y-113201727D01*
X143873853Y-112940574D01*
X143929000Y-112663335D01*
X143929000Y-112380665D01*
X143873853Y-112103426D01*
X143765680Y-111842273D01*
X143608637Y-111607241D01*
X143408759Y-111407363D01*
X143176241Y-111252000D01*
X143408759Y-111096637D01*
X143608637Y-110896759D01*
X143765680Y-110661727D01*
X143873853Y-110400574D01*
X143929000Y-110123335D01*
X143929000Y-109840665D01*
X143873853Y-109563426D01*
X143765680Y-109302273D01*
X143608637Y-109067241D01*
X143408759Y-108867363D01*
X143176241Y-108712000D01*
X143408759Y-108556637D01*
X143608637Y-108356759D01*
X143765680Y-108121727D01*
X143873853Y-107860574D01*
X143929000Y-107583335D01*
X143929000Y-107300665D01*
X143873853Y-107023426D01*
X143765680Y-106762273D01*
X143608637Y-106527241D01*
X143410039Y-106328643D01*
X143418482Y-106327812D01*
X143538180Y-106291502D01*
X143648494Y-106232537D01*
X143745185Y-106153185D01*
X143824537Y-106056494D01*
X143883502Y-105946180D01*
X143919812Y-105826482D01*
X143932072Y-105702000D01*
X143929000Y-105187750D01*
X143770250Y-105029000D01*
X142621000Y-105029000D01*
X142621000Y-105049000D01*
X142367000Y-105049000D01*
X142367000Y-105029000D01*
X141217750Y-105029000D01*
X141059000Y-105187750D01*
X141055928Y-105702000D01*
X141068188Y-105826482D01*
X141104498Y-105946180D01*
X141163463Y-106056494D01*
X141242815Y-106153185D01*
X141339506Y-106232537D01*
X141449820Y-106291502D01*
X141569518Y-106327812D01*
X141577961Y-106328643D01*
X141379363Y-106527241D01*
X141222320Y-106762273D01*
X141114147Y-107023426D01*
X141059000Y-107300665D01*
X141059000Y-107583335D01*
X141114147Y-107860574D01*
X141222320Y-108121727D01*
X141379363Y-108356759D01*
X141579241Y-108556637D01*
X141811759Y-108712000D01*
X141579241Y-108867363D01*
X141379363Y-109067241D01*
X141222320Y-109302273D01*
X141114147Y-109563426D01*
X141059000Y-109840665D01*
X141059000Y-110123335D01*
X141114147Y-110400574D01*
X141222320Y-110661727D01*
X141379363Y-110896759D01*
X141579241Y-111096637D01*
X141811759Y-111252000D01*
X141579241Y-111407363D01*
X141379363Y-111607241D01*
X141222320Y-111842273D01*
X141114147Y-112103426D01*
X141059000Y-112380665D01*
X141059000Y-112663335D01*
X141114147Y-112940574D01*
X141222320Y-113201727D01*
X141379363Y-113436759D01*
X141579241Y-113636637D01*
X141811759Y-113792000D01*
X141579241Y-113947363D01*
X141379363Y-114147241D01*
X141222320Y-114382273D01*
X141114147Y-114643426D01*
X141059000Y-114920665D01*
X141059000Y-115203335D01*
X141114147Y-115480574D01*
X141222320Y-115741727D01*
X141379363Y-115976759D01*
X141579241Y-116176637D01*
X141811759Y-116332000D01*
X141579241Y-116487363D01*
X141379363Y-116687241D01*
X141222320Y-116922273D01*
X141114147Y-117183426D01*
X141059000Y-117460665D01*
X141059000Y-117743335D01*
X141114147Y-118020574D01*
X141222320Y-118281727D01*
X141379363Y-118516759D01*
X141579241Y-118716637D01*
X141811759Y-118872000D01*
X141579241Y-119027363D01*
X141379363Y-119227241D01*
X141222320Y-119462273D01*
X141114147Y-119723426D01*
X141059870Y-119996292D01*
X140684600Y-119621022D01*
X140684600Y-112263066D01*
X140688881Y-112219599D01*
X140684600Y-112176133D01*
X140684600Y-112176123D01*
X140671795Y-112046110D01*
X140621189Y-111879287D01*
X140539011Y-111725541D01*
X140476856Y-111649805D01*
X140456132Y-111624553D01*
X140456130Y-111624551D01*
X140428417Y-111590783D01*
X140394649Y-111563070D01*
X136598539Y-107766961D01*
X136613000Y-107694260D01*
X136613000Y-107401740D01*
X136555932Y-107114842D01*
X136443990Y-106844589D01*
X136281475Y-106601368D01*
X136074632Y-106394525D01*
X135900240Y-106278000D01*
X136074632Y-106161475D01*
X136281475Y-105954632D01*
X136443990Y-105711411D01*
X136555932Y-105441158D01*
X136613000Y-105154260D01*
X136613000Y-104861740D01*
X136555932Y-104574842D01*
X136443990Y-104304589D01*
X136308625Y-104102000D01*
X141055928Y-104102000D01*
X141059000Y-104616250D01*
X141217750Y-104775000D01*
X142367000Y-104775000D01*
X142367000Y-103625750D01*
X142621000Y-103625750D01*
X142621000Y-104775000D01*
X143770250Y-104775000D01*
X143929000Y-104616250D01*
X143932072Y-104102000D01*
X143919812Y-103977518D01*
X143883502Y-103857820D01*
X143824537Y-103747506D01*
X143745185Y-103650815D01*
X143648494Y-103571463D01*
X143538180Y-103512498D01*
X143418482Y-103476188D01*
X143294000Y-103463928D01*
X142779750Y-103467000D01*
X142621000Y-103625750D01*
X142367000Y-103625750D01*
X142208250Y-103467000D01*
X141694000Y-103463928D01*
X141569518Y-103476188D01*
X141449820Y-103512498D01*
X141339506Y-103571463D01*
X141242815Y-103650815D01*
X141163463Y-103747506D01*
X141104498Y-103857820D01*
X141068188Y-103977518D01*
X141055928Y-104102000D01*
X136308625Y-104102000D01*
X136281475Y-104061368D01*
X136074632Y-103854525D01*
X135900240Y-103738000D01*
X136074632Y-103621475D01*
X136281475Y-103414632D01*
X136443990Y-103171411D01*
X136555932Y-102901158D01*
X136613000Y-102614260D01*
X136613000Y-102321740D01*
X136555932Y-102034842D01*
X136443990Y-101764589D01*
X136281475Y-101521368D01*
X136149620Y-101389513D01*
X136222180Y-101367502D01*
X136332494Y-101308537D01*
X136429185Y-101229185D01*
X136508537Y-101132494D01*
X136567502Y-101022180D01*
X136603812Y-100902482D01*
X136616072Y-100778000D01*
X136616072Y-99078000D01*
X136603812Y-98953518D01*
X136567502Y-98833820D01*
X136508537Y-98723506D01*
X136429185Y-98626815D01*
X136332494Y-98547463D01*
X136222180Y-98488498D01*
X136102482Y-98452188D01*
X135978000Y-98439928D01*
X134278000Y-98439928D01*
X134153518Y-98452188D01*
X134033820Y-98488498D01*
X133923506Y-98547463D01*
X133826815Y-98626815D01*
X133747463Y-98723506D01*
X133688498Y-98833820D01*
X133652188Y-98953518D01*
X133639928Y-99078000D01*
X127964000Y-99078000D01*
X127964000Y-97806000D01*
X142173428Y-97806000D01*
X142173428Y-99806000D01*
X142185688Y-99930482D01*
X142221998Y-100050180D01*
X142280963Y-100160494D01*
X142360315Y-100257185D01*
X142457006Y-100336537D01*
X142567320Y-100395502D01*
X142687018Y-100431812D01*
X142811500Y-100444072D01*
X144716500Y-100444072D01*
X144840982Y-100431812D01*
X144960680Y-100395502D01*
X145070994Y-100336537D01*
X145167685Y-100257185D01*
X145247037Y-100160494D01*
X145296059Y-100068781D01*
X145437077Y-100181969D01*
X145712906Y-100325571D01*
X145931020Y-100396563D01*
X146177000Y-100276594D01*
X146177000Y-98933000D01*
X146157000Y-98933000D01*
X146157000Y-98679000D01*
X146177000Y-98679000D01*
X146177000Y-97335406D01*
X145931020Y-97215437D01*
X145712906Y-97286429D01*
X145437077Y-97430031D01*
X145296059Y-97543219D01*
X145247037Y-97451506D01*
X145167685Y-97354815D01*
X145070994Y-97275463D01*
X144960680Y-97216498D01*
X144840982Y-97180188D01*
X144716500Y-97167928D01*
X142811500Y-97167928D01*
X142687018Y-97180188D01*
X142567320Y-97216498D01*
X142457006Y-97275463D01*
X142360315Y-97354815D01*
X142280963Y-97451506D01*
X142221998Y-97561820D01*
X142185688Y-97681518D01*
X142173428Y-97806000D01*
X127964000Y-97806000D01*
X127964000Y-92178702D01*
X152134903Y-92178702D01*
X152206486Y-92422671D01*
X152461996Y-92543571D01*
X152736184Y-92612300D01*
X153018512Y-92626217D01*
X153298130Y-92584787D01*
X153564292Y-92489603D01*
X153689514Y-92422671D01*
X153761097Y-92178702D01*
X152948000Y-91365605D01*
X152134903Y-92178702D01*
X127964000Y-92178702D01*
X127964000Y-91256512D01*
X151507783Y-91256512D01*
X151549213Y-91536130D01*
X151644397Y-91802292D01*
X151711329Y-91927514D01*
X151955298Y-91999097D01*
X152768395Y-91186000D01*
X153127605Y-91186000D01*
X153940702Y-91999097D01*
X154009928Y-91978785D01*
X154009928Y-91986000D01*
X154022188Y-92110482D01*
X154058498Y-92230180D01*
X154117463Y-92340494D01*
X154196815Y-92437185D01*
X154293506Y-92516537D01*
X154403820Y-92575502D01*
X154523518Y-92611812D01*
X154648000Y-92624072D01*
X156248000Y-92624072D01*
X156372482Y-92611812D01*
X156492180Y-92575502D01*
X156602494Y-92516537D01*
X156699185Y-92437185D01*
X156778537Y-92340494D01*
X156837502Y-92230180D01*
X156873812Y-92110482D01*
X156886072Y-91986000D01*
X156886072Y-90386000D01*
X156873812Y-90261518D01*
X156837502Y-90141820D01*
X156778537Y-90031506D01*
X156699185Y-89934815D01*
X156602494Y-89855463D01*
X156492180Y-89796498D01*
X156372482Y-89760188D01*
X156248000Y-89747928D01*
X154648000Y-89747928D01*
X154523518Y-89760188D01*
X154403820Y-89796498D01*
X154293506Y-89855463D01*
X154196815Y-89934815D01*
X154117463Y-90031506D01*
X154058498Y-90141820D01*
X154022188Y-90261518D01*
X154009928Y-90386000D01*
X154009928Y-90393215D01*
X153940702Y-90372903D01*
X153127605Y-91186000D01*
X152768395Y-91186000D01*
X151955298Y-90372903D01*
X151711329Y-90444486D01*
X151590429Y-90699996D01*
X151521700Y-90974184D01*
X151507783Y-91256512D01*
X127964000Y-91256512D01*
X127964000Y-90193298D01*
X152134903Y-90193298D01*
X152948000Y-91006395D01*
X153761097Y-90193298D01*
X153689514Y-89949329D01*
X153434004Y-89828429D01*
X153159816Y-89759700D01*
X152877488Y-89745783D01*
X152597870Y-89787213D01*
X152331708Y-89882397D01*
X152206486Y-89949329D01*
X152134903Y-90193298D01*
X127964000Y-90193298D01*
X127964000Y-86376000D01*
X134251928Y-86376000D01*
X134251928Y-88376000D01*
X134264188Y-88500482D01*
X134300498Y-88620180D01*
X134359463Y-88730494D01*
X134438815Y-88827185D01*
X134535506Y-88906537D01*
X134645820Y-88965502D01*
X134765518Y-89001812D01*
X134890000Y-89014072D01*
X136890000Y-89014072D01*
X137014482Y-89001812D01*
X137134180Y-88965502D01*
X137244494Y-88906537D01*
X137341185Y-88827185D01*
X137420537Y-88730494D01*
X137479502Y-88620180D01*
X137512496Y-88511413D01*
X139934192Y-88511413D01*
X140029956Y-88775814D01*
X140319571Y-88916704D01*
X140631108Y-88998384D01*
X140952595Y-89017718D01*
X141271675Y-88973961D01*
X141576088Y-88868795D01*
X141750044Y-88775814D01*
X141845808Y-88511413D01*
X140890000Y-87555605D01*
X139934192Y-88511413D01*
X137512496Y-88511413D01*
X137515812Y-88500482D01*
X137528072Y-88376000D01*
X137528072Y-87438595D01*
X139248282Y-87438595D01*
X139292039Y-87757675D01*
X139397205Y-88062088D01*
X139490186Y-88236044D01*
X139754587Y-88331808D01*
X140710395Y-87376000D01*
X141069605Y-87376000D01*
X142025413Y-88331808D01*
X142289814Y-88236044D01*
X142430704Y-87946429D01*
X142512384Y-87634892D01*
X142531718Y-87313405D01*
X142487961Y-86994325D01*
X142382795Y-86689912D01*
X142289814Y-86515956D01*
X142025413Y-86420192D01*
X141069605Y-87376000D01*
X140710395Y-87376000D01*
X139754587Y-86420192D01*
X139490186Y-86515956D01*
X139349296Y-86805571D01*
X139267616Y-87117108D01*
X139248282Y-87438595D01*
X137528072Y-87438595D01*
X137528072Y-86376000D01*
X137515812Y-86251518D01*
X137512497Y-86240587D01*
X139934192Y-86240587D01*
X140890000Y-87196395D01*
X141845808Y-86240587D01*
X141750044Y-85976186D01*
X141460429Y-85835296D01*
X141148892Y-85753616D01*
X140827405Y-85734282D01*
X140508325Y-85778039D01*
X140203912Y-85883205D01*
X140029956Y-85976186D01*
X139934192Y-86240587D01*
X137512497Y-86240587D01*
X137479502Y-86131820D01*
X137420537Y-86021506D01*
X137341185Y-85924815D01*
X137244494Y-85845463D01*
X137134180Y-85786498D01*
X137014482Y-85750188D01*
X136890000Y-85737928D01*
X134890000Y-85737928D01*
X134765518Y-85750188D01*
X134645820Y-85786498D01*
X134535506Y-85845463D01*
X134438815Y-85924815D01*
X134359463Y-86021506D01*
X134300498Y-86131820D01*
X134264188Y-86251518D01*
X134251928Y-86376000D01*
X127964000Y-86376000D01*
X127964000Y-79535872D01*
X128575000Y-79535872D01*
X128575000Y-79976128D01*
X128660890Y-80407925D01*
X128829369Y-80814669D01*
X129073962Y-81180729D01*
X129385271Y-81492038D01*
X129751331Y-81736631D01*
X130158075Y-81905110D01*
X130589872Y-81991000D01*
X131030128Y-81991000D01*
X131461925Y-81905110D01*
X131868669Y-81736631D01*
X132234729Y-81492038D01*
X132546038Y-81180729D01*
X132790631Y-80814669D01*
X132959110Y-80407925D01*
X133045000Y-79976128D01*
X133045000Y-79756000D01*
X144649928Y-79756000D01*
X144649928Y-81788000D01*
X144662188Y-81912482D01*
X144698498Y-82032180D01*
X144757463Y-82142494D01*
X144836815Y-82239185D01*
X144933506Y-82318537D01*
X145043820Y-82377502D01*
X145163518Y-82413812D01*
X145288000Y-82426072D01*
X147320000Y-82426072D01*
X147444482Y-82413812D01*
X147564180Y-82377502D01*
X147674494Y-82318537D01*
X147771185Y-82239185D01*
X147850537Y-82142494D01*
X147909502Y-82032180D01*
X147943888Y-81918823D01*
X150335502Y-81918823D01*
X150433198Y-82184860D01*
X150725541Y-82327348D01*
X151040064Y-82410064D01*
X151364682Y-82429831D01*
X151686918Y-82385888D01*
X151994390Y-82279924D01*
X152172242Y-82184860D01*
X152269938Y-81918823D01*
X151302720Y-80951605D01*
X150335502Y-81918823D01*
X147943888Y-81918823D01*
X147945812Y-81912482D01*
X147958072Y-81788000D01*
X147958072Y-80833962D01*
X149644889Y-80833962D01*
X149688832Y-81156198D01*
X149794796Y-81463670D01*
X149889860Y-81641522D01*
X150155897Y-81739218D01*
X151123115Y-80772000D01*
X151482325Y-80772000D01*
X152449543Y-81739218D01*
X152715580Y-81641522D01*
X152858068Y-81349179D01*
X152940784Y-81034656D01*
X152960551Y-80710038D01*
X152916608Y-80387802D01*
X152810644Y-80080330D01*
X152715580Y-79902478D01*
X152449543Y-79804782D01*
X151482325Y-80772000D01*
X151123115Y-80772000D01*
X150155897Y-79804782D01*
X149889860Y-79902478D01*
X149747372Y-80194821D01*
X149664656Y-80509344D01*
X149644889Y-80833962D01*
X147958072Y-80833962D01*
X147958072Y-79756000D01*
X147945812Y-79631518D01*
X147943889Y-79625177D01*
X150335502Y-79625177D01*
X151302720Y-80592395D01*
X152269938Y-79625177D01*
X152237143Y-79535872D01*
X158039000Y-79535872D01*
X158039000Y-79976128D01*
X158124890Y-80407925D01*
X158293369Y-80814669D01*
X158537962Y-81180729D01*
X158849271Y-81492038D01*
X159215331Y-81736631D01*
X159622075Y-81905110D01*
X160053872Y-81991000D01*
X160494128Y-81991000D01*
X160925925Y-81905110D01*
X161332669Y-81736631D01*
X161698729Y-81492038D01*
X162010038Y-81180729D01*
X162254631Y-80814669D01*
X162423110Y-80407925D01*
X162509000Y-79976128D01*
X162509000Y-79535872D01*
X162423110Y-79104075D01*
X162254631Y-78697331D01*
X162010038Y-78331271D01*
X161698729Y-78019962D01*
X161332669Y-77775369D01*
X160925925Y-77606890D01*
X160494128Y-77521000D01*
X160053872Y-77521000D01*
X159622075Y-77606890D01*
X159215331Y-77775369D01*
X158849271Y-78019962D01*
X158537962Y-78331271D01*
X158293369Y-78697331D01*
X158124890Y-79104075D01*
X158039000Y-79535872D01*
X152237143Y-79535872D01*
X152172242Y-79359140D01*
X151879899Y-79216652D01*
X151565376Y-79133936D01*
X151240758Y-79114169D01*
X150918522Y-79158112D01*
X150611050Y-79264076D01*
X150433198Y-79359140D01*
X150335502Y-79625177D01*
X147943889Y-79625177D01*
X147909502Y-79511820D01*
X147850537Y-79401506D01*
X147771185Y-79304815D01*
X147674494Y-79225463D01*
X147564180Y-79166498D01*
X147444482Y-79130188D01*
X147320000Y-79117928D01*
X145288000Y-79117928D01*
X145163518Y-79130188D01*
X145043820Y-79166498D01*
X144933506Y-79225463D01*
X144836815Y-79304815D01*
X144757463Y-79401506D01*
X144698498Y-79511820D01*
X144662188Y-79631518D01*
X144649928Y-79756000D01*
X133045000Y-79756000D01*
X133045000Y-79535872D01*
X132959110Y-79104075D01*
X132790631Y-78697331D01*
X132546038Y-78331271D01*
X132234729Y-78019962D01*
X131868669Y-77775369D01*
X131461925Y-77606890D01*
X131030128Y-77521000D01*
X130589872Y-77521000D01*
X130158075Y-77606890D01*
X129751331Y-77775369D01*
X129385271Y-78019962D01*
X129073962Y-78331271D01*
X128829369Y-78697331D01*
X128660890Y-79104075D01*
X128575000Y-79535872D01*
X127964000Y-79535872D01*
X127964000Y-76910000D01*
X163120000Y-76910000D01*
X163120001Y-134926000D01*
G04 #@! TA.AperFunction,Conductor*
D24*
G36*
X163120001Y-134926000D02*
G01*
X127964000Y-134926000D01*
X127964000Y-131859872D01*
X128575000Y-131859872D01*
X128575000Y-132300128D01*
X128660890Y-132731925D01*
X128829369Y-133138669D01*
X129073962Y-133504729D01*
X129385271Y-133816038D01*
X129751331Y-134060631D01*
X130158075Y-134229110D01*
X130589872Y-134315000D01*
X131030128Y-134315000D01*
X131461925Y-134229110D01*
X131868669Y-134060631D01*
X132234729Y-133816038D01*
X132546038Y-133504729D01*
X132790631Y-133138669D01*
X132959110Y-132731925D01*
X133045000Y-132300128D01*
X133045000Y-131859872D01*
X132959110Y-131428075D01*
X132790631Y-131021331D01*
X132546038Y-130655271D01*
X132234729Y-130343962D01*
X131868669Y-130099369D01*
X131461925Y-129930890D01*
X131030128Y-129845000D01*
X130589872Y-129845000D01*
X130158075Y-129930890D01*
X129751331Y-130099369D01*
X129385271Y-130343962D01*
X129073962Y-130655271D01*
X128829369Y-131021331D01*
X128660890Y-131428075D01*
X128575000Y-131859872D01*
X127964000Y-131859872D01*
X127964000Y-128224890D01*
X133686524Y-128224890D01*
X133731175Y-128372099D01*
X133856359Y-128634920D01*
X134030412Y-128868269D01*
X134246645Y-129063178D01*
X134496748Y-129212157D01*
X134771109Y-129309481D01*
X135001000Y-129188814D01*
X135001000Y-127995000D01*
X135255000Y-127995000D01*
X135255000Y-129188814D01*
X135484891Y-129309481D01*
X135759252Y-129212157D01*
X136009355Y-129063178D01*
X136225588Y-128868269D01*
X136399641Y-128634920D01*
X136524825Y-128372099D01*
X136569476Y-128224890D01*
X136509393Y-128111039D01*
X141102096Y-128111039D01*
X141142754Y-128245087D01*
X141262963Y-128499420D01*
X141430481Y-128725414D01*
X141638869Y-128914385D01*
X141880119Y-129059070D01*
X142144960Y-129153909D01*
X142367000Y-129032624D01*
X142367000Y-127889000D01*
X142621000Y-127889000D01*
X142621000Y-129032624D01*
X142843040Y-129153909D01*
X143107881Y-129059070D01*
X143349131Y-128914385D01*
X143557519Y-128725414D01*
X143725037Y-128499420D01*
X143845246Y-128245087D01*
X143885904Y-128111039D01*
X143763915Y-127889000D01*
X142621000Y-127889000D01*
X142367000Y-127889000D01*
X141224085Y-127889000D01*
X141102096Y-128111039D01*
X136509393Y-128111039D01*
X136448155Y-127995000D01*
X135255000Y-127995000D01*
X135001000Y-127995000D01*
X133807845Y-127995000D01*
X133686524Y-128224890D01*
X127964000Y-128224890D01*
X127964000Y-125684890D01*
X133686524Y-125684890D01*
X133731175Y-125832099D01*
X133856359Y-126094920D01*
X134030412Y-126328269D01*
X134246645Y-126523178D01*
X134372255Y-126598000D01*
X134246645Y-126672822D01*
X134030412Y-126867731D01*
X133856359Y-127101080D01*
X133731175Y-127363901D01*
X133686524Y-127511110D01*
X133807845Y-127741000D01*
X135001000Y-127741000D01*
X135001000Y-125455000D01*
X135255000Y-125455000D01*
X135255000Y-127741000D01*
X136448155Y-127741000D01*
X136569476Y-127511110D01*
X136524825Y-127363901D01*
X136399641Y-127101080D01*
X136225588Y-126867731D01*
X136009355Y-126672822D01*
X135883745Y-126598000D01*
X136009355Y-126523178D01*
X136225588Y-126328269D01*
X136399641Y-126094920D01*
X136524825Y-125832099D01*
X136569476Y-125684890D01*
X136448155Y-125455000D01*
X135255000Y-125455000D01*
X135001000Y-125455000D01*
X133807845Y-125455000D01*
X133686524Y-125684890D01*
X127964000Y-125684890D01*
X127964000Y-123144890D01*
X133686524Y-123144890D01*
X133731175Y-123292099D01*
X133856359Y-123554920D01*
X134030412Y-123788269D01*
X134246645Y-123983178D01*
X134372255Y-124058000D01*
X134246645Y-124132822D01*
X134030412Y-124327731D01*
X133856359Y-124561080D01*
X133731175Y-124823901D01*
X133686524Y-124971110D01*
X133807845Y-125201000D01*
X135001000Y-125201000D01*
X135001000Y-122915000D01*
X135255000Y-122915000D01*
X135255000Y-125201000D01*
X136448155Y-125201000D01*
X136569476Y-124971110D01*
X136524825Y-124823901D01*
X136399641Y-124561080D01*
X136225588Y-124327731D01*
X136009355Y-124132822D01*
X135883745Y-124058000D01*
X136009355Y-123983178D01*
X136225588Y-123788269D01*
X136399641Y-123554920D01*
X136524825Y-123292099D01*
X136569476Y-123144890D01*
X136448155Y-122915000D01*
X135255000Y-122915000D01*
X135001000Y-122915000D01*
X133807845Y-122915000D01*
X133686524Y-123144890D01*
X127964000Y-123144890D01*
X127964000Y-120604890D01*
X133686524Y-120604890D01*
X133731175Y-120752099D01*
X133856359Y-121014920D01*
X134030412Y-121248269D01*
X134246645Y-121443178D01*
X134372255Y-121518000D01*
X134246645Y-121592822D01*
X134030412Y-121787731D01*
X133856359Y-122021080D01*
X133731175Y-122283901D01*
X133686524Y-122431110D01*
X133807845Y-122661000D01*
X135001000Y-122661000D01*
X135001000Y-120375000D01*
X135255000Y-120375000D01*
X135255000Y-122661000D01*
X136448155Y-122661000D01*
X136569476Y-122431110D01*
X136524825Y-122283901D01*
X136399641Y-122021080D01*
X136225588Y-121787731D01*
X136009355Y-121592822D01*
X135883745Y-121518000D01*
X136009355Y-121443178D01*
X136225588Y-121248269D01*
X136399641Y-121014920D01*
X136524825Y-120752099D01*
X136569476Y-120604890D01*
X136448155Y-120375000D01*
X135255000Y-120375000D01*
X135001000Y-120375000D01*
X133807845Y-120375000D01*
X133686524Y-120604890D01*
X127964000Y-120604890D01*
X127964000Y-99078000D01*
X133639928Y-99078000D01*
X133639928Y-100778000D01*
X133652188Y-100902482D01*
X133688498Y-101022180D01*
X133747463Y-101132494D01*
X133826815Y-101229185D01*
X133923506Y-101308537D01*
X134033820Y-101367502D01*
X134106380Y-101389513D01*
X133974525Y-101521368D01*
X133812010Y-101764589D01*
X133700068Y-102034842D01*
X133643000Y-102321740D01*
X133643000Y-102614260D01*
X133700068Y-102901158D01*
X133812010Y-103171411D01*
X133974525Y-103414632D01*
X134181368Y-103621475D01*
X134355760Y-103738000D01*
X134181368Y-103854525D01*
X133974525Y-104061368D01*
X133812010Y-104304589D01*
X133700068Y-104574842D01*
X133643000Y-104861740D01*
X133643000Y-105154260D01*
X133700068Y-105441158D01*
X133812010Y-105711411D01*
X133974525Y-105954632D01*
X134181368Y-106161475D01*
X134355760Y-106278000D01*
X134181368Y-106394525D01*
X133974525Y-106601368D01*
X133812010Y-106844589D01*
X133700068Y-107114842D01*
X133643000Y-107401740D01*
X133643000Y-107694260D01*
X133700068Y-107981158D01*
X133812010Y-108251411D01*
X133974525Y-108494632D01*
X134181368Y-108701475D01*
X134355760Y-108818000D01*
X134181368Y-108934525D01*
X133974525Y-109141368D01*
X133812010Y-109384589D01*
X133700068Y-109654842D01*
X133643000Y-109941740D01*
X133643000Y-110234260D01*
X133700068Y-110521158D01*
X133812010Y-110791411D01*
X133974525Y-111034632D01*
X134181368Y-111241475D01*
X134355760Y-111358000D01*
X134181368Y-111474525D01*
X133974525Y-111681368D01*
X133812010Y-111924589D01*
X133700068Y-112194842D01*
X133643000Y-112481740D01*
X133643000Y-112774260D01*
X133700068Y-113061158D01*
X133812010Y-113331411D01*
X133974525Y-113574632D01*
X134181368Y-113781475D01*
X134355760Y-113898000D01*
X134181368Y-114014525D01*
X133974525Y-114221368D01*
X133812010Y-114464589D01*
X133700068Y-114734842D01*
X133643000Y-115021740D01*
X133643000Y-115314260D01*
X133700068Y-115601158D01*
X133812010Y-115871411D01*
X133974525Y-116114632D01*
X134181368Y-116321475D01*
X134355760Y-116438000D01*
X134181368Y-116554525D01*
X133974525Y-116761368D01*
X133812010Y-117004589D01*
X133700068Y-117274842D01*
X133643000Y-117561740D01*
X133643000Y-117854260D01*
X133700068Y-118141158D01*
X133812010Y-118411411D01*
X133974525Y-118654632D01*
X134181368Y-118861475D01*
X134363534Y-118983195D01*
X134246645Y-119052822D01*
X134030412Y-119247731D01*
X133856359Y-119481080D01*
X133731175Y-119743901D01*
X133686524Y-119891110D01*
X133807845Y-120121000D01*
X135001000Y-120121000D01*
X135001000Y-120101000D01*
X135255000Y-120101000D01*
X135255000Y-120121000D01*
X136448155Y-120121000D01*
X136569476Y-119891110D01*
X136524825Y-119743901D01*
X136399641Y-119481080D01*
X136225588Y-119247731D01*
X136009355Y-119052822D01*
X135892466Y-118983195D01*
X136074632Y-118861475D01*
X136281475Y-118654632D01*
X136443990Y-118411411D01*
X136555932Y-118141158D01*
X136613000Y-117854260D01*
X136613000Y-117561740D01*
X136555932Y-117274842D01*
X136443990Y-117004589D01*
X136281475Y-116761368D01*
X136074632Y-116554525D01*
X135900240Y-116438000D01*
X136074632Y-116321475D01*
X136281475Y-116114632D01*
X136443990Y-115871411D01*
X136555932Y-115601158D01*
X136613000Y-115314260D01*
X136613000Y-115021740D01*
X136555932Y-114734842D01*
X136443990Y-114464589D01*
X136281475Y-114221368D01*
X136074632Y-114014525D01*
X135900240Y-113898000D01*
X136074632Y-113781475D01*
X136281475Y-113574632D01*
X136443990Y-113331411D01*
X136555932Y-113061158D01*
X136613000Y-112774260D01*
X136613000Y-112481740D01*
X136555932Y-112194842D01*
X136443990Y-111924589D01*
X136281475Y-111681368D01*
X136074632Y-111474525D01*
X135900240Y-111358000D01*
X136074632Y-111241475D01*
X136281475Y-111034632D01*
X136443990Y-110791411D01*
X136555932Y-110521158D01*
X136604652Y-110276230D01*
X138914601Y-112586180D01*
X138914600Y-119944131D01*
X138910319Y-119987600D01*
X138914600Y-120031069D01*
X138914600Y-120031076D01*
X138927405Y-120161089D01*
X138978011Y-120327912D01*
X139060189Y-120481658D01*
X139170783Y-120616417D01*
X139204556Y-120644134D01*
X141065983Y-122505561D01*
X141059000Y-122540665D01*
X141059000Y-122823335D01*
X141114147Y-123100574D01*
X141222320Y-123361727D01*
X141379363Y-123596759D01*
X141579241Y-123796637D01*
X141811759Y-123952000D01*
X141579241Y-124107363D01*
X141379363Y-124307241D01*
X141222320Y-124542273D01*
X141114147Y-124803426D01*
X141059000Y-125080665D01*
X141059000Y-125363335D01*
X141114147Y-125640574D01*
X141222320Y-125901727D01*
X141379363Y-126136759D01*
X141579241Y-126336637D01*
X141814273Y-126493680D01*
X141824865Y-126498067D01*
X141638869Y-126609615D01*
X141430481Y-126798586D01*
X141262963Y-127024580D01*
X141142754Y-127278913D01*
X141102096Y-127412961D01*
X141224085Y-127635000D01*
X142367000Y-127635000D01*
X142367000Y-127615000D01*
X142621000Y-127615000D01*
X142621000Y-127635000D01*
X143763915Y-127635000D01*
X143872848Y-127436726D01*
X148059670Y-131623549D01*
X148087383Y-131657317D01*
X148121151Y-131685030D01*
X148121153Y-131685032D01*
X148222140Y-131767910D01*
X148222141Y-131767911D01*
X148375887Y-131850089D01*
X148542710Y-131900695D01*
X148672723Y-131913500D01*
X148672731Y-131913500D01*
X148716200Y-131917781D01*
X148759669Y-131913500D01*
X156072131Y-131913500D01*
X156115600Y-131917781D01*
X156159069Y-131913500D01*
X156159077Y-131913500D01*
X156289090Y-131900695D01*
X156423663Y-131859872D01*
X158039000Y-131859872D01*
X158039000Y-132300128D01*
X158124890Y-132731925D01*
X158293369Y-133138669D01*
X158537962Y-133504729D01*
X158849271Y-133816038D01*
X159215331Y-134060631D01*
X159622075Y-134229110D01*
X160053872Y-134315000D01*
X160494128Y-134315000D01*
X160925925Y-134229110D01*
X161332669Y-134060631D01*
X161698729Y-133816038D01*
X162010038Y-133504729D01*
X162254631Y-133138669D01*
X162423110Y-132731925D01*
X162509000Y-132300128D01*
X162509000Y-131859872D01*
X162423110Y-131428075D01*
X162254631Y-131021331D01*
X162010038Y-130655271D01*
X161698729Y-130343962D01*
X161332669Y-130099369D01*
X160925925Y-129930890D01*
X160494128Y-129845000D01*
X160053872Y-129845000D01*
X159622075Y-129930890D01*
X159215331Y-130099369D01*
X158849271Y-130343962D01*
X158537962Y-130655271D01*
X158293369Y-131021331D01*
X158124890Y-131428075D01*
X158039000Y-131859872D01*
X156423663Y-131859872D01*
X156455913Y-131850089D01*
X156609659Y-131767911D01*
X156744417Y-131657317D01*
X156772134Y-131623544D01*
X158975450Y-129420229D01*
X159009217Y-129392517D01*
X159077364Y-129309481D01*
X159119811Y-129257759D01*
X159201988Y-129104014D01*
X159201989Y-129104013D01*
X159252595Y-128937190D01*
X159265400Y-128807177D01*
X159265400Y-128807169D01*
X159269681Y-128763700D01*
X159265400Y-128720231D01*
X159265400Y-112449865D01*
X159269681Y-112406399D01*
X159265400Y-112362933D01*
X159265400Y-112362923D01*
X159252595Y-112232910D01*
X159201989Y-112066087D01*
X159119811Y-111912341D01*
X159009217Y-111777583D01*
X158975449Y-111749870D01*
X157426539Y-110200961D01*
X157441000Y-110128260D01*
X157441000Y-109835740D01*
X157383932Y-109548842D01*
X157271990Y-109278589D01*
X157109475Y-109035368D01*
X156902632Y-108828525D01*
X156728240Y-108712000D01*
X156902632Y-108595475D01*
X157109475Y-108388632D01*
X157271990Y-108145411D01*
X157383932Y-107875158D01*
X157441000Y-107588260D01*
X157441000Y-107295740D01*
X157383932Y-107008842D01*
X157271990Y-106738589D01*
X157109475Y-106495368D01*
X156902632Y-106288525D01*
X156728240Y-106172000D01*
X156902632Y-106055475D01*
X157109475Y-105848632D01*
X157271990Y-105605411D01*
X157383932Y-105335158D01*
X157441000Y-105048260D01*
X157441000Y-104755740D01*
X157383932Y-104468842D01*
X157271990Y-104198589D01*
X157109475Y-103955368D01*
X156902632Y-103748525D01*
X156728240Y-103632000D01*
X156902632Y-103515475D01*
X157109475Y-103308632D01*
X157271990Y-103065411D01*
X157383932Y-102795158D01*
X157441000Y-102508260D01*
X157441000Y-102215740D01*
X157383932Y-101928842D01*
X157271990Y-101658589D01*
X157109475Y-101415368D01*
X156977620Y-101283513D01*
X157050180Y-101261502D01*
X157160494Y-101202537D01*
X157257185Y-101123185D01*
X157336537Y-101026494D01*
X157395502Y-100916180D01*
X157431812Y-100796482D01*
X157444072Y-100672000D01*
X157444072Y-98972000D01*
X157431812Y-98847518D01*
X157395502Y-98727820D01*
X157336537Y-98617506D01*
X157257185Y-98520815D01*
X157160494Y-98441463D01*
X157050180Y-98382498D01*
X156930482Y-98346188D01*
X156806000Y-98333928D01*
X155106000Y-98333928D01*
X154981518Y-98346188D01*
X154861820Y-98382498D01*
X154751506Y-98441463D01*
X154654815Y-98520815D01*
X154575463Y-98617506D01*
X154516498Y-98727820D01*
X154480188Y-98847518D01*
X154467928Y-98972000D01*
X154467928Y-100672000D01*
X154480188Y-100796482D01*
X154516498Y-100916180D01*
X154575463Y-101026494D01*
X154654815Y-101123185D01*
X154751506Y-101202537D01*
X154861820Y-101261502D01*
X154934380Y-101283513D01*
X154802525Y-101415368D01*
X154640010Y-101658589D01*
X154528068Y-101928842D01*
X154471000Y-102215740D01*
X154471000Y-102508260D01*
X154485461Y-102580960D01*
X151159656Y-105906766D01*
X151125883Y-105934483D01*
X151015289Y-106069242D01*
X150933111Y-106222988D01*
X150921555Y-106261082D01*
X150783135Y-106178067D01*
X150793727Y-106173680D01*
X151028759Y-106016637D01*
X151228637Y-105816759D01*
X151385680Y-105581727D01*
X151493853Y-105320574D01*
X151549000Y-105043335D01*
X151549000Y-104760665D01*
X151493853Y-104483426D01*
X151385680Y-104222273D01*
X151228637Y-103987241D01*
X151028759Y-103787363D01*
X150999000Y-103767479D01*
X150999000Y-103495165D01*
X151003281Y-103451699D01*
X150999000Y-103408233D01*
X150999000Y-103408223D01*
X150986195Y-103278210D01*
X150935589Y-103111387D01*
X150853411Y-102957641D01*
X150742817Y-102822883D01*
X150709049Y-102795170D01*
X149729000Y-101815122D01*
X149729000Y-100180505D01*
X149730235Y-100179845D01*
X149971963Y-99981463D01*
X150170345Y-99739734D01*
X150317755Y-99463948D01*
X150408530Y-99164703D01*
X150431500Y-98931485D01*
X150431500Y-98680514D01*
X150408530Y-98447296D01*
X150317755Y-98148051D01*
X150170345Y-97872265D01*
X149971963Y-97630537D01*
X149730234Y-97432155D01*
X149454448Y-97284745D01*
X149155203Y-97193970D01*
X148844000Y-97163319D01*
X148532796Y-97193970D01*
X148233551Y-97284745D01*
X147957765Y-97432155D01*
X147716037Y-97630537D01*
X147568838Y-97809900D01*
X147413437Y-97624685D01*
X147170923Y-97430031D01*
X146895094Y-97286429D01*
X146676980Y-97215437D01*
X146431000Y-97335406D01*
X146431000Y-98679000D01*
X146451000Y-98679000D01*
X146451000Y-98933000D01*
X146431000Y-98933000D01*
X146431000Y-100276594D01*
X146676980Y-100396563D01*
X146895094Y-100325571D01*
X147170923Y-100181969D01*
X147413437Y-99987315D01*
X147568837Y-99802101D01*
X147716037Y-99981463D01*
X147957766Y-100179845D01*
X147959000Y-100180505D01*
X147959001Y-102138221D01*
X147954719Y-102181700D01*
X147971805Y-102355190D01*
X148022412Y-102522013D01*
X148104590Y-102675759D01*
X148187468Y-102776746D01*
X148187471Y-102776749D01*
X148215184Y-102810517D01*
X148248951Y-102838229D01*
X149198663Y-103787941D01*
X148999363Y-103987241D01*
X148842320Y-104222273D01*
X148734147Y-104483426D01*
X148679000Y-104760665D01*
X148679000Y-105043335D01*
X148734147Y-105320574D01*
X148842320Y-105581727D01*
X148999363Y-105816759D01*
X149199241Y-106016637D01*
X149434273Y-106173680D01*
X149444865Y-106178067D01*
X149258869Y-106289615D01*
X149050481Y-106478586D01*
X148882963Y-106704580D01*
X148762754Y-106958913D01*
X148722096Y-107092961D01*
X148844085Y-107315000D01*
X149987000Y-107315000D01*
X149987000Y-107295000D01*
X150241000Y-107295000D01*
X150241000Y-107315000D01*
X150261000Y-107315000D01*
X150261000Y-107569000D01*
X150241000Y-107569000D01*
X150241000Y-107589000D01*
X149987000Y-107589000D01*
X149987000Y-107569000D01*
X148844085Y-107569000D01*
X148722096Y-107791039D01*
X148762754Y-107925087D01*
X148882963Y-108179420D01*
X149050481Y-108405414D01*
X149258869Y-108594385D01*
X149444865Y-108705933D01*
X149434273Y-108710320D01*
X149199241Y-108867363D01*
X148999363Y-109067241D01*
X148842320Y-109302273D01*
X148734147Y-109563426D01*
X148679000Y-109840665D01*
X148679000Y-110123335D01*
X148734147Y-110400574D01*
X148842320Y-110661727D01*
X148999363Y-110896759D01*
X149199241Y-111096637D01*
X149431759Y-111252000D01*
X149199241Y-111407363D01*
X148999363Y-111607241D01*
X148842320Y-111842273D01*
X148734147Y-112103426D01*
X148679000Y-112380665D01*
X148679000Y-112663335D01*
X148734147Y-112940574D01*
X148842320Y-113201727D01*
X148999363Y-113436759D01*
X149199241Y-113636637D01*
X149431759Y-113792000D01*
X149199241Y-113947363D01*
X148999363Y-114147241D01*
X148842320Y-114382273D01*
X148734147Y-114643426D01*
X148679000Y-114920665D01*
X148679000Y-115203335D01*
X148734147Y-115480574D01*
X148842320Y-115741727D01*
X148999363Y-115976759D01*
X149199241Y-116176637D01*
X149431759Y-116332000D01*
X149199241Y-116487363D01*
X148999363Y-116687241D01*
X148842320Y-116922273D01*
X148734147Y-117183426D01*
X148679000Y-117460665D01*
X148679000Y-117743335D01*
X148734147Y-118020574D01*
X148842320Y-118281727D01*
X148999363Y-118516759D01*
X149199241Y-118716637D01*
X149431759Y-118872000D01*
X149199241Y-119027363D01*
X148999363Y-119227241D01*
X148842320Y-119462273D01*
X148734147Y-119723426D01*
X148679000Y-120000665D01*
X148679000Y-120283335D01*
X148734147Y-120560574D01*
X148842320Y-120821727D01*
X148999363Y-121056759D01*
X149199241Y-121256637D01*
X149431759Y-121412000D01*
X149199241Y-121567363D01*
X148999363Y-121767241D01*
X148842320Y-122002273D01*
X148734147Y-122263426D01*
X148679000Y-122540665D01*
X148679000Y-122823335D01*
X148734147Y-123100574D01*
X148842320Y-123361727D01*
X148999363Y-123596759D01*
X149199241Y-123796637D01*
X149431759Y-123952000D01*
X149199241Y-124107363D01*
X148999363Y-124307241D01*
X148842320Y-124542273D01*
X148734147Y-124803426D01*
X148679000Y-125080665D01*
X148679000Y-125363335D01*
X148734147Y-125640574D01*
X148842320Y-125901727D01*
X148999363Y-126136759D01*
X149199241Y-126336637D01*
X149431759Y-126492000D01*
X149199241Y-126647363D01*
X148999363Y-126847241D01*
X148842320Y-127082273D01*
X148762077Y-127275998D01*
X147189000Y-125702922D01*
X147189000Y-118915469D01*
X147193281Y-118872000D01*
X147189000Y-118828531D01*
X147189000Y-118828523D01*
X147176195Y-118698510D01*
X147162885Y-118654632D01*
X147125589Y-118531686D01*
X147043411Y-118377941D01*
X146960532Y-118276953D01*
X146960530Y-118276951D01*
X146932817Y-118243183D01*
X146899049Y-118215470D01*
X143922017Y-115238439D01*
X143929000Y-115203335D01*
X143929000Y-114920665D01*
X143873853Y-114643426D01*
X143765680Y-114382273D01*
X143608637Y-114147241D01*
X143408759Y-113947363D01*
X143176241Y-113792000D01*
X143408759Y-113636637D01*
X143608637Y-113436759D01*
X143765680Y-113201727D01*
X143873853Y-112940574D01*
X143929000Y-112663335D01*
X143929000Y-112380665D01*
X143873853Y-112103426D01*
X143765680Y-111842273D01*
X143608637Y-111607241D01*
X143408759Y-111407363D01*
X143176241Y-111252000D01*
X143408759Y-111096637D01*
X143608637Y-110896759D01*
X143765680Y-110661727D01*
X143873853Y-110400574D01*
X143929000Y-110123335D01*
X143929000Y-109840665D01*
X143873853Y-109563426D01*
X143765680Y-109302273D01*
X143608637Y-109067241D01*
X143408759Y-108867363D01*
X143176241Y-108712000D01*
X143408759Y-108556637D01*
X143608637Y-108356759D01*
X143765680Y-108121727D01*
X143873853Y-107860574D01*
X143929000Y-107583335D01*
X143929000Y-107300665D01*
X143873853Y-107023426D01*
X143765680Y-106762273D01*
X143608637Y-106527241D01*
X143410039Y-106328643D01*
X143418482Y-106327812D01*
X143538180Y-106291502D01*
X143648494Y-106232537D01*
X143745185Y-106153185D01*
X143824537Y-106056494D01*
X143883502Y-105946180D01*
X143919812Y-105826482D01*
X143932072Y-105702000D01*
X143929000Y-105187750D01*
X143770250Y-105029000D01*
X142621000Y-105029000D01*
X142621000Y-105049000D01*
X142367000Y-105049000D01*
X142367000Y-105029000D01*
X141217750Y-105029000D01*
X141059000Y-105187750D01*
X141055928Y-105702000D01*
X141068188Y-105826482D01*
X141104498Y-105946180D01*
X141163463Y-106056494D01*
X141242815Y-106153185D01*
X141339506Y-106232537D01*
X141449820Y-106291502D01*
X141569518Y-106327812D01*
X141577961Y-106328643D01*
X141379363Y-106527241D01*
X141222320Y-106762273D01*
X141114147Y-107023426D01*
X141059000Y-107300665D01*
X141059000Y-107583335D01*
X141114147Y-107860574D01*
X141222320Y-108121727D01*
X141379363Y-108356759D01*
X141579241Y-108556637D01*
X141811759Y-108712000D01*
X141579241Y-108867363D01*
X141379363Y-109067241D01*
X141222320Y-109302273D01*
X141114147Y-109563426D01*
X141059000Y-109840665D01*
X141059000Y-110123335D01*
X141114147Y-110400574D01*
X141222320Y-110661727D01*
X141379363Y-110896759D01*
X141579241Y-111096637D01*
X141811759Y-111252000D01*
X141579241Y-111407363D01*
X141379363Y-111607241D01*
X141222320Y-111842273D01*
X141114147Y-112103426D01*
X141059000Y-112380665D01*
X141059000Y-112663335D01*
X141114147Y-112940574D01*
X141222320Y-113201727D01*
X141379363Y-113436759D01*
X141579241Y-113636637D01*
X141811759Y-113792000D01*
X141579241Y-113947363D01*
X141379363Y-114147241D01*
X141222320Y-114382273D01*
X141114147Y-114643426D01*
X141059000Y-114920665D01*
X141059000Y-115203335D01*
X141114147Y-115480574D01*
X141222320Y-115741727D01*
X141379363Y-115976759D01*
X141579241Y-116176637D01*
X141811759Y-116332000D01*
X141579241Y-116487363D01*
X141379363Y-116687241D01*
X141222320Y-116922273D01*
X141114147Y-117183426D01*
X141059000Y-117460665D01*
X141059000Y-117743335D01*
X141114147Y-118020574D01*
X141222320Y-118281727D01*
X141379363Y-118516759D01*
X141579241Y-118716637D01*
X141811759Y-118872000D01*
X141579241Y-119027363D01*
X141379363Y-119227241D01*
X141222320Y-119462273D01*
X141114147Y-119723426D01*
X141059870Y-119996292D01*
X140684600Y-119621022D01*
X140684600Y-112263066D01*
X140688881Y-112219599D01*
X140684600Y-112176133D01*
X140684600Y-112176123D01*
X140671795Y-112046110D01*
X140621189Y-111879287D01*
X140539011Y-111725541D01*
X140476856Y-111649805D01*
X140456132Y-111624553D01*
X140456130Y-111624551D01*
X140428417Y-111590783D01*
X140394649Y-111563070D01*
X136598539Y-107766961D01*
X136613000Y-107694260D01*
X136613000Y-107401740D01*
X136555932Y-107114842D01*
X136443990Y-106844589D01*
X136281475Y-106601368D01*
X136074632Y-106394525D01*
X135900240Y-106278000D01*
X136074632Y-106161475D01*
X136281475Y-105954632D01*
X136443990Y-105711411D01*
X136555932Y-105441158D01*
X136613000Y-105154260D01*
X136613000Y-104861740D01*
X136555932Y-104574842D01*
X136443990Y-104304589D01*
X136308625Y-104102000D01*
X141055928Y-104102000D01*
X141059000Y-104616250D01*
X141217750Y-104775000D01*
X142367000Y-104775000D01*
X142367000Y-103625750D01*
X142621000Y-103625750D01*
X142621000Y-104775000D01*
X143770250Y-104775000D01*
X143929000Y-104616250D01*
X143932072Y-104102000D01*
X143919812Y-103977518D01*
X143883502Y-103857820D01*
X143824537Y-103747506D01*
X143745185Y-103650815D01*
X143648494Y-103571463D01*
X143538180Y-103512498D01*
X143418482Y-103476188D01*
X143294000Y-103463928D01*
X142779750Y-103467000D01*
X142621000Y-103625750D01*
X142367000Y-103625750D01*
X142208250Y-103467000D01*
X141694000Y-103463928D01*
X141569518Y-103476188D01*
X141449820Y-103512498D01*
X141339506Y-103571463D01*
X141242815Y-103650815D01*
X141163463Y-103747506D01*
X141104498Y-103857820D01*
X141068188Y-103977518D01*
X141055928Y-104102000D01*
X136308625Y-104102000D01*
X136281475Y-104061368D01*
X136074632Y-103854525D01*
X135900240Y-103738000D01*
X136074632Y-103621475D01*
X136281475Y-103414632D01*
X136443990Y-103171411D01*
X136555932Y-102901158D01*
X136613000Y-102614260D01*
X136613000Y-102321740D01*
X136555932Y-102034842D01*
X136443990Y-101764589D01*
X136281475Y-101521368D01*
X136149620Y-101389513D01*
X136222180Y-101367502D01*
X136332494Y-101308537D01*
X136429185Y-101229185D01*
X136508537Y-101132494D01*
X136567502Y-101022180D01*
X136603812Y-100902482D01*
X136616072Y-100778000D01*
X136616072Y-99078000D01*
X136603812Y-98953518D01*
X136567502Y-98833820D01*
X136508537Y-98723506D01*
X136429185Y-98626815D01*
X136332494Y-98547463D01*
X136222180Y-98488498D01*
X136102482Y-98452188D01*
X135978000Y-98439928D01*
X134278000Y-98439928D01*
X134153518Y-98452188D01*
X134033820Y-98488498D01*
X133923506Y-98547463D01*
X133826815Y-98626815D01*
X133747463Y-98723506D01*
X133688498Y-98833820D01*
X133652188Y-98953518D01*
X133639928Y-99078000D01*
X127964000Y-99078000D01*
X127964000Y-97806000D01*
X142173428Y-97806000D01*
X142173428Y-99806000D01*
X142185688Y-99930482D01*
X142221998Y-100050180D01*
X142280963Y-100160494D01*
X142360315Y-100257185D01*
X142457006Y-100336537D01*
X142567320Y-100395502D01*
X142687018Y-100431812D01*
X142811500Y-100444072D01*
X144716500Y-100444072D01*
X144840982Y-100431812D01*
X144960680Y-100395502D01*
X145070994Y-100336537D01*
X145167685Y-100257185D01*
X145247037Y-100160494D01*
X145296059Y-100068781D01*
X145437077Y-100181969D01*
X145712906Y-100325571D01*
X145931020Y-100396563D01*
X146177000Y-100276594D01*
X146177000Y-98933000D01*
X146157000Y-98933000D01*
X146157000Y-98679000D01*
X146177000Y-98679000D01*
X146177000Y-97335406D01*
X145931020Y-97215437D01*
X145712906Y-97286429D01*
X145437077Y-97430031D01*
X145296059Y-97543219D01*
X145247037Y-97451506D01*
X145167685Y-97354815D01*
X145070994Y-97275463D01*
X144960680Y-97216498D01*
X144840982Y-97180188D01*
X144716500Y-97167928D01*
X142811500Y-97167928D01*
X142687018Y-97180188D01*
X142567320Y-97216498D01*
X142457006Y-97275463D01*
X142360315Y-97354815D01*
X142280963Y-97451506D01*
X142221998Y-97561820D01*
X142185688Y-97681518D01*
X142173428Y-97806000D01*
X127964000Y-97806000D01*
X127964000Y-92178702D01*
X152134903Y-92178702D01*
X152206486Y-92422671D01*
X152461996Y-92543571D01*
X152736184Y-92612300D01*
X153018512Y-92626217D01*
X153298130Y-92584787D01*
X153564292Y-92489603D01*
X153689514Y-92422671D01*
X153761097Y-92178702D01*
X152948000Y-91365605D01*
X152134903Y-92178702D01*
X127964000Y-92178702D01*
X127964000Y-91256512D01*
X151507783Y-91256512D01*
X151549213Y-91536130D01*
X151644397Y-91802292D01*
X151711329Y-91927514D01*
X151955298Y-91999097D01*
X152768395Y-91186000D01*
X153127605Y-91186000D01*
X153940702Y-91999097D01*
X154009928Y-91978785D01*
X154009928Y-91986000D01*
X154022188Y-92110482D01*
X154058498Y-92230180D01*
X154117463Y-92340494D01*
X154196815Y-92437185D01*
X154293506Y-92516537D01*
X154403820Y-92575502D01*
X154523518Y-92611812D01*
X154648000Y-92624072D01*
X156248000Y-92624072D01*
X156372482Y-92611812D01*
X156492180Y-92575502D01*
X156602494Y-92516537D01*
X156699185Y-92437185D01*
X156778537Y-92340494D01*
X156837502Y-92230180D01*
X156873812Y-92110482D01*
X156886072Y-91986000D01*
X156886072Y-90386000D01*
X156873812Y-90261518D01*
X156837502Y-90141820D01*
X156778537Y-90031506D01*
X156699185Y-89934815D01*
X156602494Y-89855463D01*
X156492180Y-89796498D01*
X156372482Y-89760188D01*
X156248000Y-89747928D01*
X154648000Y-89747928D01*
X154523518Y-89760188D01*
X154403820Y-89796498D01*
X154293506Y-89855463D01*
X154196815Y-89934815D01*
X154117463Y-90031506D01*
X154058498Y-90141820D01*
X154022188Y-90261518D01*
X154009928Y-90386000D01*
X154009928Y-90393215D01*
X153940702Y-90372903D01*
X153127605Y-91186000D01*
X152768395Y-91186000D01*
X151955298Y-90372903D01*
X151711329Y-90444486D01*
X151590429Y-90699996D01*
X151521700Y-90974184D01*
X151507783Y-91256512D01*
X127964000Y-91256512D01*
X127964000Y-90193298D01*
X152134903Y-90193298D01*
X152948000Y-91006395D01*
X153761097Y-90193298D01*
X153689514Y-89949329D01*
X153434004Y-89828429D01*
X153159816Y-89759700D01*
X152877488Y-89745783D01*
X152597870Y-89787213D01*
X152331708Y-89882397D01*
X152206486Y-89949329D01*
X152134903Y-90193298D01*
X127964000Y-90193298D01*
X127964000Y-86376000D01*
X134251928Y-86376000D01*
X134251928Y-88376000D01*
X134264188Y-88500482D01*
X134300498Y-88620180D01*
X134359463Y-88730494D01*
X134438815Y-88827185D01*
X134535506Y-88906537D01*
X134645820Y-88965502D01*
X134765518Y-89001812D01*
X134890000Y-89014072D01*
X136890000Y-89014072D01*
X137014482Y-89001812D01*
X137134180Y-88965502D01*
X137244494Y-88906537D01*
X137341185Y-88827185D01*
X137420537Y-88730494D01*
X137479502Y-88620180D01*
X137512496Y-88511413D01*
X139934192Y-88511413D01*
X140029956Y-88775814D01*
X140319571Y-88916704D01*
X140631108Y-88998384D01*
X140952595Y-89017718D01*
X141271675Y-88973961D01*
X141576088Y-88868795D01*
X141750044Y-88775814D01*
X141845808Y-88511413D01*
X140890000Y-87555605D01*
X139934192Y-88511413D01*
X137512496Y-88511413D01*
X137515812Y-88500482D01*
X137528072Y-88376000D01*
X137528072Y-87438595D01*
X139248282Y-87438595D01*
X139292039Y-87757675D01*
X139397205Y-88062088D01*
X139490186Y-88236044D01*
X139754587Y-88331808D01*
X140710395Y-87376000D01*
X141069605Y-87376000D01*
X142025413Y-88331808D01*
X142289814Y-88236044D01*
X142430704Y-87946429D01*
X142512384Y-87634892D01*
X142531718Y-87313405D01*
X142487961Y-86994325D01*
X142382795Y-86689912D01*
X142289814Y-86515956D01*
X142025413Y-86420192D01*
X141069605Y-87376000D01*
X140710395Y-87376000D01*
X139754587Y-86420192D01*
X139490186Y-86515956D01*
X139349296Y-86805571D01*
X139267616Y-87117108D01*
X139248282Y-87438595D01*
X137528072Y-87438595D01*
X137528072Y-86376000D01*
X137515812Y-86251518D01*
X137512497Y-86240587D01*
X139934192Y-86240587D01*
X140890000Y-87196395D01*
X141845808Y-86240587D01*
X141750044Y-85976186D01*
X141460429Y-85835296D01*
X141148892Y-85753616D01*
X140827405Y-85734282D01*
X140508325Y-85778039D01*
X140203912Y-85883205D01*
X140029956Y-85976186D01*
X139934192Y-86240587D01*
X137512497Y-86240587D01*
X137479502Y-86131820D01*
X137420537Y-86021506D01*
X137341185Y-85924815D01*
X137244494Y-85845463D01*
X137134180Y-85786498D01*
X137014482Y-85750188D01*
X136890000Y-85737928D01*
X134890000Y-85737928D01*
X134765518Y-85750188D01*
X134645820Y-85786498D01*
X134535506Y-85845463D01*
X134438815Y-85924815D01*
X134359463Y-86021506D01*
X134300498Y-86131820D01*
X134264188Y-86251518D01*
X134251928Y-86376000D01*
X127964000Y-86376000D01*
X127964000Y-79535872D01*
X128575000Y-79535872D01*
X128575000Y-79976128D01*
X128660890Y-80407925D01*
X128829369Y-80814669D01*
X129073962Y-81180729D01*
X129385271Y-81492038D01*
X129751331Y-81736631D01*
X130158075Y-81905110D01*
X130589872Y-81991000D01*
X131030128Y-81991000D01*
X131461925Y-81905110D01*
X131868669Y-81736631D01*
X132234729Y-81492038D01*
X132546038Y-81180729D01*
X132790631Y-80814669D01*
X132959110Y-80407925D01*
X133045000Y-79976128D01*
X133045000Y-79756000D01*
X144649928Y-79756000D01*
X144649928Y-81788000D01*
X144662188Y-81912482D01*
X144698498Y-82032180D01*
X144757463Y-82142494D01*
X144836815Y-82239185D01*
X144933506Y-82318537D01*
X145043820Y-82377502D01*
X145163518Y-82413812D01*
X145288000Y-82426072D01*
X147320000Y-82426072D01*
X147444482Y-82413812D01*
X147564180Y-82377502D01*
X147674494Y-82318537D01*
X147771185Y-82239185D01*
X147850537Y-82142494D01*
X147909502Y-82032180D01*
X147943888Y-81918823D01*
X150335502Y-81918823D01*
X150433198Y-82184860D01*
X150725541Y-82327348D01*
X151040064Y-82410064D01*
X151364682Y-82429831D01*
X151686918Y-82385888D01*
X151994390Y-82279924D01*
X152172242Y-82184860D01*
X152269938Y-81918823D01*
X151302720Y-80951605D01*
X150335502Y-81918823D01*
X147943888Y-81918823D01*
X147945812Y-81912482D01*
X147958072Y-81788000D01*
X147958072Y-80833962D01*
X149644889Y-80833962D01*
X149688832Y-81156198D01*
X149794796Y-81463670D01*
X149889860Y-81641522D01*
X150155897Y-81739218D01*
X151123115Y-80772000D01*
X151482325Y-80772000D01*
X152449543Y-81739218D01*
X152715580Y-81641522D01*
X152858068Y-81349179D01*
X152940784Y-81034656D01*
X152960551Y-80710038D01*
X152916608Y-80387802D01*
X152810644Y-80080330D01*
X152715580Y-79902478D01*
X152449543Y-79804782D01*
X151482325Y-80772000D01*
X151123115Y-80772000D01*
X150155897Y-79804782D01*
X149889860Y-79902478D01*
X149747372Y-80194821D01*
X149664656Y-80509344D01*
X149644889Y-80833962D01*
X147958072Y-80833962D01*
X147958072Y-79756000D01*
X147945812Y-79631518D01*
X147943889Y-79625177D01*
X150335502Y-79625177D01*
X151302720Y-80592395D01*
X152269938Y-79625177D01*
X152237143Y-79535872D01*
X158039000Y-79535872D01*
X158039000Y-79976128D01*
X158124890Y-80407925D01*
X158293369Y-80814669D01*
X158537962Y-81180729D01*
X158849271Y-81492038D01*
X159215331Y-81736631D01*
X159622075Y-81905110D01*
X160053872Y-81991000D01*
X160494128Y-81991000D01*
X160925925Y-81905110D01*
X161332669Y-81736631D01*
X161698729Y-81492038D01*
X162010038Y-81180729D01*
X162254631Y-80814669D01*
X162423110Y-80407925D01*
X162509000Y-79976128D01*
X162509000Y-79535872D01*
X162423110Y-79104075D01*
X162254631Y-78697331D01*
X162010038Y-78331271D01*
X161698729Y-78019962D01*
X161332669Y-77775369D01*
X160925925Y-77606890D01*
X160494128Y-77521000D01*
X160053872Y-77521000D01*
X159622075Y-77606890D01*
X159215331Y-77775369D01*
X158849271Y-78019962D01*
X158537962Y-78331271D01*
X158293369Y-78697331D01*
X158124890Y-79104075D01*
X158039000Y-79535872D01*
X152237143Y-79535872D01*
X152172242Y-79359140D01*
X151879899Y-79216652D01*
X151565376Y-79133936D01*
X151240758Y-79114169D01*
X150918522Y-79158112D01*
X150611050Y-79264076D01*
X150433198Y-79359140D01*
X150335502Y-79625177D01*
X147943889Y-79625177D01*
X147909502Y-79511820D01*
X147850537Y-79401506D01*
X147771185Y-79304815D01*
X147674494Y-79225463D01*
X147564180Y-79166498D01*
X147444482Y-79130188D01*
X147320000Y-79117928D01*
X145288000Y-79117928D01*
X145163518Y-79130188D01*
X145043820Y-79166498D01*
X144933506Y-79225463D01*
X144836815Y-79304815D01*
X144757463Y-79401506D01*
X144698498Y-79511820D01*
X144662188Y-79631518D01*
X144649928Y-79756000D01*
X133045000Y-79756000D01*
X133045000Y-79535872D01*
X132959110Y-79104075D01*
X132790631Y-78697331D01*
X132546038Y-78331271D01*
X132234729Y-78019962D01*
X131868669Y-77775369D01*
X131461925Y-77606890D01*
X131030128Y-77521000D01*
X130589872Y-77521000D01*
X130158075Y-77606890D01*
X129751331Y-77775369D01*
X129385271Y-78019962D01*
X129073962Y-78331271D01*
X128829369Y-78697331D01*
X128660890Y-79104075D01*
X128575000Y-79535872D01*
X127964000Y-79535872D01*
X127964000Y-76910000D01*
X163120000Y-76910000D01*
X163120001Y-134926000D01*
G37*
G04 #@! TD.AperFunction*
D23*
X156083000Y-120015000D02*
X156103000Y-120015000D01*
X156103000Y-120269000D01*
X156083000Y-120269000D01*
X156083000Y-122555000D01*
X156103000Y-122555000D01*
X156103000Y-122809000D01*
X156083000Y-122809000D01*
X156083000Y-125095000D01*
X156103000Y-125095000D01*
X156103000Y-125349000D01*
X156083000Y-125349000D01*
X156083000Y-127635000D01*
X156103000Y-127635000D01*
X156103000Y-127889000D01*
X156083000Y-127889000D01*
X156083000Y-127909000D01*
X155829000Y-127909000D01*
X155829000Y-127889000D01*
X154635845Y-127889000D01*
X154514524Y-128118890D01*
X154559175Y-128266099D01*
X154684359Y-128528920D01*
X154858412Y-128762269D01*
X155074645Y-128957178D01*
X155324748Y-129106157D01*
X155463755Y-129155467D01*
X155376022Y-129243200D01*
X151982978Y-129243200D01*
X154934934Y-126291245D01*
X155074645Y-126417178D01*
X155200255Y-126492000D01*
X155074645Y-126566822D01*
X154858412Y-126761731D01*
X154684359Y-126995080D01*
X154559175Y-127257901D01*
X154514524Y-127405110D01*
X154635845Y-127635000D01*
X155829000Y-127635000D01*
X155829000Y-125349000D01*
X155809000Y-125349000D01*
X155809000Y-125095000D01*
X155829000Y-125095000D01*
X155829000Y-122809000D01*
X155809000Y-122809000D01*
X155809000Y-122555000D01*
X155829000Y-122555000D01*
X155829000Y-120269000D01*
X155809000Y-120269000D01*
X155809000Y-120015000D01*
X155829000Y-120015000D01*
X155829000Y-119995000D01*
X156083000Y-119995000D01*
X156083000Y-120015000D01*
G04 #@! TA.AperFunction,Conductor*
D24*
G36*
X156083000Y-120015000D02*
G01*
X156103000Y-120015000D01*
X156103000Y-120269000D01*
X156083000Y-120269000D01*
X156083000Y-122555000D01*
X156103000Y-122555000D01*
X156103000Y-122809000D01*
X156083000Y-122809000D01*
X156083000Y-125095000D01*
X156103000Y-125095000D01*
X156103000Y-125349000D01*
X156083000Y-125349000D01*
X156083000Y-127635000D01*
X156103000Y-127635000D01*
X156103000Y-127889000D01*
X156083000Y-127889000D01*
X156083000Y-127909000D01*
X155829000Y-127909000D01*
X155829000Y-127889000D01*
X154635845Y-127889000D01*
X154514524Y-128118890D01*
X154559175Y-128266099D01*
X154684359Y-128528920D01*
X154858412Y-128762269D01*
X155074645Y-128957178D01*
X155324748Y-129106157D01*
X155463755Y-129155467D01*
X155376022Y-129243200D01*
X151982978Y-129243200D01*
X154934934Y-126291245D01*
X155074645Y-126417178D01*
X155200255Y-126492000D01*
X155074645Y-126566822D01*
X154858412Y-126761731D01*
X154684359Y-126995080D01*
X154559175Y-127257901D01*
X154514524Y-127405110D01*
X154635845Y-127635000D01*
X155829000Y-127635000D01*
X155829000Y-125349000D01*
X155809000Y-125349000D01*
X155809000Y-125095000D01*
X155829000Y-125095000D01*
X155829000Y-122809000D01*
X155809000Y-122809000D01*
X155809000Y-122555000D01*
X155829000Y-122555000D01*
X155829000Y-120269000D01*
X155809000Y-120269000D01*
X155809000Y-120015000D01*
X155829000Y-120015000D01*
X155829000Y-119995000D01*
X156083000Y-119995000D01*
X156083000Y-120015000D01*
G37*
G04 #@! TD.AperFunction*
M02*
