G04 #@! TF.GenerationSoftware,KiCad,Pcbnew,5.1.10-1.fc34*
G04 #@! TF.CreationDate,2021-08-21T17:02:38+03:00*
G04 #@! TF.ProjectId,nmea0183-5V-buffer-board,6e6d6561-3031-4383-932d-35562d627566,rev?*
G04 #@! TF.SameCoordinates,Original*
G04 #@! TF.FileFunction,Copper,L2,Bot*
G04 #@! TF.FilePolarity,Positive*
%FSLAX46Y46*%
G04 Gerber Fmt 4.6, Leading zero omitted, Abs format (unit mm)*
G04 Created by KiCad (PCBNEW 5.1.10-1.fc34) date 2021-08-21 17:02:38*
%MOMM*%
%LPD*%
G01*
G04 APERTURE LIST*
G04 #@! TA.AperFunction,ComponentPad*
%ADD10C,2.032000*%
G04 #@! TD*
G04 #@! TA.AperFunction,ComponentPad*
%ADD11R,2.032000X2.032000*%
G04 #@! TD*
G04 #@! TA.AperFunction,ComponentPad*
%ADD12O,1.600000X1.600000*%
G04 #@! TD*
G04 #@! TA.AperFunction,ComponentPad*
%ADD13R,1.600000X1.600000*%
G04 #@! TD*
G04 #@! TA.AperFunction,ComponentPad*
%ADD14O,1.905000X2.000000*%
G04 #@! TD*
G04 #@! TA.AperFunction,ComponentPad*
%ADD15R,1.905000X2.000000*%
G04 #@! TD*
G04 #@! TA.AperFunction,ComponentPad*
%ADD16O,1.700000X1.700000*%
G04 #@! TD*
G04 #@! TA.AperFunction,ComponentPad*
%ADD17R,1.700000X1.700000*%
G04 #@! TD*
G04 #@! TA.AperFunction,ComponentPad*
%ADD18C,1.600000*%
G04 #@! TD*
G04 #@! TA.AperFunction,ComponentPad*
%ADD19C,2.000000*%
G04 #@! TD*
G04 #@! TA.AperFunction,ComponentPad*
%ADD20R,2.000000X2.000000*%
G04 #@! TD*
G04 #@! TA.AperFunction,ViaPad*
%ADD21C,0.800000*%
G04 #@! TD*
G04 #@! TA.AperFunction,Conductor*
%ADD22C,0.500000*%
G04 #@! TD*
G04 #@! TA.AperFunction,Conductor*
%ADD23C,0.254000*%
G04 #@! TD*
G04 #@! TA.AperFunction,Conductor*
%ADD24C,0.100000*%
G04 #@! TD*
G04 APERTURE END LIST*
D10*
X151302720Y-80772000D03*
D11*
X146304000Y-80772000D03*
D12*
X150114000Y-104902000D03*
X142494000Y-127762000D03*
X150114000Y-107442000D03*
X142494000Y-125222000D03*
X150114000Y-109982000D03*
X142494000Y-122682000D03*
X150114000Y-112522000D03*
X142494000Y-120142000D03*
X150114000Y-115062000D03*
X142494000Y-117602000D03*
X150114000Y-117602000D03*
X142494000Y-115062000D03*
X150114000Y-120142000D03*
X142494000Y-112522000D03*
X150114000Y-122682000D03*
X142494000Y-109982000D03*
X150114000Y-125222000D03*
X142494000Y-107442000D03*
X150114000Y-127762000D03*
D13*
X142494000Y-104902000D03*
D14*
X148844000Y-98806000D03*
X146304000Y-98806000D03*
D15*
X143764000Y-98806000D03*
D16*
X155956000Y-127762000D03*
X155956000Y-125222000D03*
X155956000Y-122682000D03*
X155956000Y-120142000D03*
X155956000Y-117602000D03*
X155956000Y-115062000D03*
X155956000Y-112522000D03*
X155956000Y-109982000D03*
X155956000Y-107442000D03*
X155956000Y-104902000D03*
X155956000Y-102362000D03*
D17*
X155956000Y-99822000D03*
D16*
X135128000Y-127868000D03*
X135128000Y-125328000D03*
X135128000Y-122788000D03*
X135128000Y-120248000D03*
X135128000Y-117708000D03*
X135128000Y-115168000D03*
X135128000Y-112628000D03*
X135128000Y-110088000D03*
X135128000Y-107548000D03*
X135128000Y-105008000D03*
X135128000Y-102468000D03*
D17*
X135128000Y-99928000D03*
D18*
X152948000Y-91186000D03*
D13*
X155448000Y-91186000D03*
D19*
X140890000Y-87376000D03*
D20*
X135890000Y-87376000D03*
D21*
X162052000Y-84836000D03*
X162052000Y-91186000D03*
X162052000Y-96266000D03*
X162052000Y-101092000D03*
X162052000Y-106426000D03*
X162052000Y-111506000D03*
X162052000Y-116586000D03*
X162052000Y-121412000D03*
X162052000Y-126746000D03*
X156210000Y-133604000D03*
X151130000Y-134112000D03*
X145288000Y-134112000D03*
X139446000Y-134112000D03*
X135382000Y-133858000D03*
X129286000Y-127254000D03*
X129032000Y-122174000D03*
X129032000Y-117094000D03*
X129032000Y-111760000D03*
X129032000Y-106680000D03*
X129032000Y-101600000D03*
X129032000Y-94996000D03*
X129032000Y-88392000D03*
X129032000Y-83566000D03*
X135382000Y-77724000D03*
X140462000Y-77724000D03*
X145288000Y-77724000D03*
X150114000Y-77724000D03*
X154432000Y-77724000D03*
D22*
X155956000Y-127762000D02*
X155956000Y-129262300D01*
X135128000Y-127868000D02*
X136628300Y-127868000D01*
X136628300Y-127868000D02*
X136628300Y-129087000D01*
X136628300Y-129087000D02*
X140416500Y-132875200D01*
X140416500Y-132875200D02*
X152343100Y-132875200D01*
X152343100Y-132875200D02*
X155956000Y-129262300D01*
X142494000Y-127762000D02*
X144103300Y-126152700D01*
X144103300Y-126152700D02*
X144103300Y-113452700D01*
X144103300Y-113452700D02*
X150114000Y-107442000D01*
X146304000Y-98806000D02*
X146304000Y-97155700D01*
X146304000Y-97155700D02*
X146978300Y-97155700D01*
X146978300Y-97155700D02*
X152948000Y-91186000D01*
X149138000Y-87376000D02*
X152948000Y-91186000D01*
X140890000Y-87376000D02*
X149138000Y-87376000D01*
X149138000Y-87376000D02*
X149138000Y-82936700D01*
X149138000Y-82936700D02*
X151302700Y-80772000D01*
X143764000Y-98806000D02*
X142161200Y-98806000D01*
X142161200Y-98806000D02*
X142161200Y-91996900D01*
X142161200Y-91996900D02*
X137540300Y-87376000D01*
X135890000Y-87376000D02*
X137540300Y-87376000D01*
X137540300Y-87376000D02*
X144144300Y-80772000D01*
X144144300Y-80772000D02*
X146304000Y-80772000D01*
X148844000Y-98806000D02*
X150446800Y-98806000D01*
X155448000Y-91186000D02*
X155448000Y-92636300D01*
X155448000Y-92636300D02*
X150446800Y-97637500D01*
X150446800Y-97637500D02*
X150446800Y-98806000D01*
X135128000Y-117708000D02*
X137611700Y-120191700D01*
X137611700Y-120191700D02*
X137611800Y-120191700D01*
X137611800Y-120191700D02*
X137611800Y-128758100D01*
X137611800Y-128758100D02*
X140826200Y-131972500D01*
X140826200Y-131972500D02*
X150561900Y-131972500D01*
X150561900Y-131972500D02*
X153451000Y-129083400D01*
X153451000Y-129083400D02*
X153451000Y-115859000D01*
X153451000Y-115859000D02*
X150114000Y-112522000D01*
X135128000Y-115168000D02*
X138621200Y-118661200D01*
X138621200Y-118661200D02*
X138621200Y-128494200D01*
X138621200Y-128494200D02*
X141199100Y-131072100D01*
X141199100Y-131072100D02*
X150188500Y-131072100D01*
X150188500Y-131072100D02*
X152550600Y-128710000D01*
X152550600Y-128710000D02*
X152550600Y-120038600D01*
X152550600Y-120038600D02*
X150114000Y-117602000D01*
X135128000Y-112628000D02*
X135128000Y-112782600D01*
X135128000Y-112782600D02*
X139521500Y-117176100D01*
X139521500Y-117176100D02*
X139521500Y-128121200D01*
X139521500Y-128121200D02*
X141548200Y-130147900D01*
X141548200Y-130147900D02*
X149818000Y-130147900D01*
X149818000Y-130147900D02*
X151594500Y-128371400D01*
X151594500Y-128371400D02*
X151594500Y-124162500D01*
X151594500Y-124162500D02*
X150114000Y-122682000D01*
X150114000Y-127762000D02*
X148663700Y-127762000D01*
X135128000Y-110088000D02*
X137999100Y-112959100D01*
X137999100Y-112959100D02*
X137999100Y-114380400D01*
X137999100Y-114380400D02*
X140421800Y-116803100D01*
X140421800Y-116803100D02*
X140421800Y-127744600D01*
X140421800Y-127744600D02*
X141899400Y-129222200D01*
X141899400Y-129222200D02*
X147203500Y-129222200D01*
X147203500Y-129222200D02*
X148663700Y-127762000D01*
X142494000Y-117602000D02*
X139349500Y-114457500D01*
X139349500Y-114457500D02*
X139349500Y-112270400D01*
X139349500Y-112270400D02*
X138449200Y-111370100D01*
X138449200Y-111370100D02*
X138449200Y-108329200D01*
X138449200Y-108329200D02*
X135128000Y-105008000D01*
X142494000Y-112522000D02*
X139799600Y-109827600D01*
X139799600Y-109827600D02*
X139799600Y-107139600D01*
X139799600Y-107139600D02*
X135128000Y-102468000D01*
X135128000Y-99928000D02*
X135128000Y-100076000D01*
X135128000Y-100076000D02*
X142494000Y-107442000D01*
X142494000Y-109982000D02*
X143944300Y-109982000D01*
X155956000Y-117602000D02*
X157464900Y-116093100D01*
X157464900Y-116093100D02*
X157464900Y-98685600D01*
X157464900Y-98685600D02*
X157083300Y-98304000D01*
X157083300Y-98304000D02*
X154596600Y-98304000D01*
X154596600Y-98304000D02*
X143944300Y-108956300D01*
X143944300Y-108956300D02*
X143944300Y-109982000D01*
X155956000Y-99822000D02*
X152999700Y-102778300D01*
X152999700Y-102778300D02*
X152999700Y-107096300D01*
X152999700Y-107096300D02*
X150114000Y-109982000D01*
D23*
X163120001Y-134926000D02*
X127964000Y-134926000D01*
X127964000Y-131859872D01*
X128575000Y-131859872D01*
X128575000Y-132300128D01*
X128660890Y-132731925D01*
X128829369Y-133138669D01*
X129073962Y-133504729D01*
X129385271Y-133816038D01*
X129751331Y-134060631D01*
X130158075Y-134229110D01*
X130589872Y-134315000D01*
X131030128Y-134315000D01*
X131461925Y-134229110D01*
X131868669Y-134060631D01*
X132234729Y-133816038D01*
X132546038Y-133504729D01*
X132790631Y-133138669D01*
X132959110Y-132731925D01*
X133045000Y-132300128D01*
X133045000Y-131859872D01*
X132959110Y-131428075D01*
X132790631Y-131021331D01*
X132546038Y-130655271D01*
X132234729Y-130343962D01*
X131868669Y-130099369D01*
X131461925Y-129930890D01*
X131030128Y-129845000D01*
X130589872Y-129845000D01*
X130158075Y-129930890D01*
X129751331Y-130099369D01*
X129385271Y-130343962D01*
X129073962Y-130655271D01*
X128829369Y-131021331D01*
X128660890Y-131428075D01*
X128575000Y-131859872D01*
X127964000Y-131859872D01*
X127964000Y-128224890D01*
X133686524Y-128224890D01*
X133731175Y-128372099D01*
X133856359Y-128634920D01*
X134030412Y-128868269D01*
X134246645Y-129063178D01*
X134496748Y-129212157D01*
X134771109Y-129309481D01*
X135001000Y-129188814D01*
X135001000Y-127995000D01*
X135255000Y-127995000D01*
X135255000Y-129188814D01*
X135484891Y-129309481D01*
X135759252Y-129212157D01*
X136009355Y-129063178D01*
X136225588Y-128868269D01*
X136399641Y-128634920D01*
X136524825Y-128372099D01*
X136569476Y-128224890D01*
X136448155Y-127995000D01*
X135255000Y-127995000D01*
X135001000Y-127995000D01*
X133807845Y-127995000D01*
X133686524Y-128224890D01*
X127964000Y-128224890D01*
X127964000Y-125684890D01*
X133686524Y-125684890D01*
X133731175Y-125832099D01*
X133856359Y-126094920D01*
X134030412Y-126328269D01*
X134246645Y-126523178D01*
X134372255Y-126598000D01*
X134246645Y-126672822D01*
X134030412Y-126867731D01*
X133856359Y-127101080D01*
X133731175Y-127363901D01*
X133686524Y-127511110D01*
X133807845Y-127741000D01*
X135001000Y-127741000D01*
X135001000Y-125455000D01*
X135255000Y-125455000D01*
X135255000Y-127741000D01*
X136448155Y-127741000D01*
X136569476Y-127511110D01*
X136524825Y-127363901D01*
X136399641Y-127101080D01*
X136225588Y-126867731D01*
X136009355Y-126672822D01*
X135883745Y-126598000D01*
X136009355Y-126523178D01*
X136225588Y-126328269D01*
X136399641Y-126094920D01*
X136524825Y-125832099D01*
X136569476Y-125684890D01*
X136448155Y-125455000D01*
X135255000Y-125455000D01*
X135001000Y-125455000D01*
X133807845Y-125455000D01*
X133686524Y-125684890D01*
X127964000Y-125684890D01*
X127964000Y-123144890D01*
X133686524Y-123144890D01*
X133731175Y-123292099D01*
X133856359Y-123554920D01*
X134030412Y-123788269D01*
X134246645Y-123983178D01*
X134372255Y-124058000D01*
X134246645Y-124132822D01*
X134030412Y-124327731D01*
X133856359Y-124561080D01*
X133731175Y-124823901D01*
X133686524Y-124971110D01*
X133807845Y-125201000D01*
X135001000Y-125201000D01*
X135001000Y-122915000D01*
X135255000Y-122915000D01*
X135255000Y-125201000D01*
X136448155Y-125201000D01*
X136569476Y-124971110D01*
X136524825Y-124823901D01*
X136399641Y-124561080D01*
X136225588Y-124327731D01*
X136009355Y-124132822D01*
X135883745Y-124058000D01*
X136009355Y-123983178D01*
X136225588Y-123788269D01*
X136399641Y-123554920D01*
X136524825Y-123292099D01*
X136569476Y-123144890D01*
X136448155Y-122915000D01*
X135255000Y-122915000D01*
X135001000Y-122915000D01*
X133807845Y-122915000D01*
X133686524Y-123144890D01*
X127964000Y-123144890D01*
X127964000Y-120604890D01*
X133686524Y-120604890D01*
X133731175Y-120752099D01*
X133856359Y-121014920D01*
X134030412Y-121248269D01*
X134246645Y-121443178D01*
X134372255Y-121518000D01*
X134246645Y-121592822D01*
X134030412Y-121787731D01*
X133856359Y-122021080D01*
X133731175Y-122283901D01*
X133686524Y-122431110D01*
X133807845Y-122661000D01*
X135001000Y-122661000D01*
X135001000Y-120375000D01*
X133807845Y-120375000D01*
X133686524Y-120604890D01*
X127964000Y-120604890D01*
X127964000Y-99078000D01*
X133639928Y-99078000D01*
X133639928Y-100778000D01*
X133652188Y-100902482D01*
X133688498Y-101022180D01*
X133747463Y-101132494D01*
X133826815Y-101229185D01*
X133923506Y-101308537D01*
X134033820Y-101367502D01*
X134106380Y-101389513D01*
X133974525Y-101521368D01*
X133812010Y-101764589D01*
X133700068Y-102034842D01*
X133643000Y-102321740D01*
X133643000Y-102614260D01*
X133700068Y-102901158D01*
X133812010Y-103171411D01*
X133974525Y-103414632D01*
X134181368Y-103621475D01*
X134355760Y-103738000D01*
X134181368Y-103854525D01*
X133974525Y-104061368D01*
X133812010Y-104304589D01*
X133700068Y-104574842D01*
X133643000Y-104861740D01*
X133643000Y-105154260D01*
X133700068Y-105441158D01*
X133812010Y-105711411D01*
X133974525Y-105954632D01*
X134181368Y-106161475D01*
X134355760Y-106278000D01*
X134181368Y-106394525D01*
X133974525Y-106601368D01*
X133812010Y-106844589D01*
X133700068Y-107114842D01*
X133643000Y-107401740D01*
X133643000Y-107694260D01*
X133700068Y-107981158D01*
X133812010Y-108251411D01*
X133974525Y-108494632D01*
X134181368Y-108701475D01*
X134355760Y-108818000D01*
X134181368Y-108934525D01*
X133974525Y-109141368D01*
X133812010Y-109384589D01*
X133700068Y-109654842D01*
X133643000Y-109941740D01*
X133643000Y-110234260D01*
X133700068Y-110521158D01*
X133812010Y-110791411D01*
X133974525Y-111034632D01*
X134181368Y-111241475D01*
X134355760Y-111358000D01*
X134181368Y-111474525D01*
X133974525Y-111681368D01*
X133812010Y-111924589D01*
X133700068Y-112194842D01*
X133643000Y-112481740D01*
X133643000Y-112774260D01*
X133700068Y-113061158D01*
X133812010Y-113331411D01*
X133974525Y-113574632D01*
X134181368Y-113781475D01*
X134355760Y-113898000D01*
X134181368Y-114014525D01*
X133974525Y-114221368D01*
X133812010Y-114464589D01*
X133700068Y-114734842D01*
X133643000Y-115021740D01*
X133643000Y-115314260D01*
X133700068Y-115601158D01*
X133812010Y-115871411D01*
X133974525Y-116114632D01*
X134181368Y-116321475D01*
X134355760Y-116438000D01*
X134181368Y-116554525D01*
X133974525Y-116761368D01*
X133812010Y-117004589D01*
X133700068Y-117274842D01*
X133643000Y-117561740D01*
X133643000Y-117854260D01*
X133700068Y-118141158D01*
X133812010Y-118411411D01*
X133974525Y-118654632D01*
X134181368Y-118861475D01*
X134363534Y-118983195D01*
X134246645Y-119052822D01*
X134030412Y-119247731D01*
X133856359Y-119481080D01*
X133731175Y-119743901D01*
X133686524Y-119891110D01*
X133807845Y-120121000D01*
X135001000Y-120121000D01*
X135001000Y-120101000D01*
X135255000Y-120101000D01*
X135255000Y-120121000D01*
X135275000Y-120121000D01*
X135275000Y-120375000D01*
X135255000Y-120375000D01*
X135255000Y-122661000D01*
X136448155Y-122661000D01*
X136569476Y-122431110D01*
X136524825Y-122283901D01*
X136399641Y-122021080D01*
X136225588Y-121787731D01*
X136009355Y-121592822D01*
X135883745Y-121518000D01*
X136009355Y-121443178D01*
X136225588Y-121248269D01*
X136399641Y-121014920D01*
X136524825Y-120752099D01*
X136569476Y-120604890D01*
X136448156Y-120375002D01*
X136543423Y-120375002D01*
X136726800Y-120558379D01*
X136726801Y-128714621D01*
X136722519Y-128758100D01*
X136739605Y-128931590D01*
X136790212Y-129098413D01*
X136872390Y-129252159D01*
X136955268Y-129353146D01*
X136955271Y-129353149D01*
X136982984Y-129386917D01*
X137016751Y-129414629D01*
X140169670Y-132567549D01*
X140197383Y-132601317D01*
X140231151Y-132629030D01*
X140231153Y-132629032D01*
X140302652Y-132687710D01*
X140332141Y-132711911D01*
X140485887Y-132794089D01*
X140652710Y-132844695D01*
X140782723Y-132857500D01*
X140782733Y-132857500D01*
X140826199Y-132861781D01*
X140869666Y-132857500D01*
X150518431Y-132857500D01*
X150561900Y-132861781D01*
X150605369Y-132857500D01*
X150605377Y-132857500D01*
X150735390Y-132844695D01*
X150902213Y-132794089D01*
X151055959Y-132711911D01*
X151190717Y-132601317D01*
X151218434Y-132567544D01*
X151926106Y-131859872D01*
X158039000Y-131859872D01*
X158039000Y-132300128D01*
X158124890Y-132731925D01*
X158293369Y-133138669D01*
X158537962Y-133504729D01*
X158849271Y-133816038D01*
X159215331Y-134060631D01*
X159622075Y-134229110D01*
X160053872Y-134315000D01*
X160494128Y-134315000D01*
X160925925Y-134229110D01*
X161332669Y-134060631D01*
X161698729Y-133816038D01*
X162010038Y-133504729D01*
X162254631Y-133138669D01*
X162423110Y-132731925D01*
X162509000Y-132300128D01*
X162509000Y-131859872D01*
X162423110Y-131428075D01*
X162254631Y-131021331D01*
X162010038Y-130655271D01*
X161698729Y-130343962D01*
X161332669Y-130099369D01*
X160925925Y-129930890D01*
X160494128Y-129845000D01*
X160053872Y-129845000D01*
X159622075Y-129930890D01*
X159215331Y-130099369D01*
X158849271Y-130343962D01*
X158537962Y-130655271D01*
X158293369Y-131021331D01*
X158124890Y-131428075D01*
X158039000Y-131859872D01*
X151926106Y-131859872D01*
X154046050Y-129739929D01*
X154079817Y-129712217D01*
X154127726Y-129653841D01*
X154190410Y-129577460D01*
X154190411Y-129577459D01*
X154272589Y-129423713D01*
X154323195Y-129256890D01*
X154336000Y-129126877D01*
X154336000Y-129126867D01*
X154340281Y-129083401D01*
X154336000Y-129039935D01*
X154336000Y-128118890D01*
X154514524Y-128118890D01*
X154559175Y-128266099D01*
X154684359Y-128528920D01*
X154858412Y-128762269D01*
X155074645Y-128957178D01*
X155324748Y-129106157D01*
X155599109Y-129203481D01*
X155829000Y-129082814D01*
X155829000Y-127889000D01*
X156083000Y-127889000D01*
X156083000Y-129082814D01*
X156312891Y-129203481D01*
X156587252Y-129106157D01*
X156837355Y-128957178D01*
X157053588Y-128762269D01*
X157227641Y-128528920D01*
X157352825Y-128266099D01*
X157397476Y-128118890D01*
X157276155Y-127889000D01*
X156083000Y-127889000D01*
X155829000Y-127889000D01*
X154635845Y-127889000D01*
X154514524Y-128118890D01*
X154336000Y-128118890D01*
X154336000Y-125578890D01*
X154514524Y-125578890D01*
X154559175Y-125726099D01*
X154684359Y-125988920D01*
X154858412Y-126222269D01*
X155074645Y-126417178D01*
X155200255Y-126492000D01*
X155074645Y-126566822D01*
X154858412Y-126761731D01*
X154684359Y-126995080D01*
X154559175Y-127257901D01*
X154514524Y-127405110D01*
X154635845Y-127635000D01*
X155829000Y-127635000D01*
X155829000Y-125349000D01*
X156083000Y-125349000D01*
X156083000Y-127635000D01*
X157276155Y-127635000D01*
X157397476Y-127405110D01*
X157352825Y-127257901D01*
X157227641Y-126995080D01*
X157053588Y-126761731D01*
X156837355Y-126566822D01*
X156711745Y-126492000D01*
X156837355Y-126417178D01*
X157053588Y-126222269D01*
X157227641Y-125988920D01*
X157352825Y-125726099D01*
X157397476Y-125578890D01*
X157276155Y-125349000D01*
X156083000Y-125349000D01*
X155829000Y-125349000D01*
X154635845Y-125349000D01*
X154514524Y-125578890D01*
X154336000Y-125578890D01*
X154336000Y-123038890D01*
X154514524Y-123038890D01*
X154559175Y-123186099D01*
X154684359Y-123448920D01*
X154858412Y-123682269D01*
X155074645Y-123877178D01*
X155200255Y-123952000D01*
X155074645Y-124026822D01*
X154858412Y-124221731D01*
X154684359Y-124455080D01*
X154559175Y-124717901D01*
X154514524Y-124865110D01*
X154635845Y-125095000D01*
X155829000Y-125095000D01*
X155829000Y-122809000D01*
X156083000Y-122809000D01*
X156083000Y-125095000D01*
X157276155Y-125095000D01*
X157397476Y-124865110D01*
X157352825Y-124717901D01*
X157227641Y-124455080D01*
X157053588Y-124221731D01*
X156837355Y-124026822D01*
X156711745Y-123952000D01*
X156837355Y-123877178D01*
X157053588Y-123682269D01*
X157227641Y-123448920D01*
X157352825Y-123186099D01*
X157397476Y-123038890D01*
X157276155Y-122809000D01*
X156083000Y-122809000D01*
X155829000Y-122809000D01*
X154635845Y-122809000D01*
X154514524Y-123038890D01*
X154336000Y-123038890D01*
X154336000Y-120498890D01*
X154514524Y-120498890D01*
X154559175Y-120646099D01*
X154684359Y-120908920D01*
X154858412Y-121142269D01*
X155074645Y-121337178D01*
X155200255Y-121412000D01*
X155074645Y-121486822D01*
X154858412Y-121681731D01*
X154684359Y-121915080D01*
X154559175Y-122177901D01*
X154514524Y-122325110D01*
X154635845Y-122555000D01*
X155829000Y-122555000D01*
X155829000Y-120269000D01*
X156083000Y-120269000D01*
X156083000Y-122555000D01*
X157276155Y-122555000D01*
X157397476Y-122325110D01*
X157352825Y-122177901D01*
X157227641Y-121915080D01*
X157053588Y-121681731D01*
X156837355Y-121486822D01*
X156711745Y-121412000D01*
X156837355Y-121337178D01*
X157053588Y-121142269D01*
X157227641Y-120908920D01*
X157352825Y-120646099D01*
X157397476Y-120498890D01*
X157276155Y-120269000D01*
X156083000Y-120269000D01*
X155829000Y-120269000D01*
X154635845Y-120269000D01*
X154514524Y-120498890D01*
X154336000Y-120498890D01*
X154336000Y-115902469D01*
X154340281Y-115859000D01*
X154336000Y-115815531D01*
X154336000Y-115815523D01*
X154323195Y-115685510D01*
X154272589Y-115518687D01*
X154272589Y-115518686D01*
X154190411Y-115364941D01*
X154107532Y-115263953D01*
X154107530Y-115263951D01*
X154079817Y-115230183D01*
X154046049Y-115202470D01*
X151542017Y-112698439D01*
X151549000Y-112663335D01*
X151549000Y-112380665D01*
X151493853Y-112103426D01*
X151385680Y-111842273D01*
X151228637Y-111607241D01*
X151028759Y-111407363D01*
X150796241Y-111252000D01*
X151028759Y-111096637D01*
X151228637Y-110896759D01*
X151385680Y-110661727D01*
X151493853Y-110400574D01*
X151549000Y-110123335D01*
X151549000Y-109840665D01*
X151542017Y-109805561D01*
X153594749Y-107752830D01*
X153628517Y-107725117D01*
X153739111Y-107590359D01*
X153821289Y-107436613D01*
X153871895Y-107269790D01*
X153884700Y-107139777D01*
X153884700Y-107139767D01*
X153888981Y-107096301D01*
X153884700Y-107052834D01*
X153884700Y-103144878D01*
X154479348Y-102550230D01*
X154528068Y-102795158D01*
X154640010Y-103065411D01*
X154802525Y-103308632D01*
X155009368Y-103515475D01*
X155183760Y-103632000D01*
X155009368Y-103748525D01*
X154802525Y-103955368D01*
X154640010Y-104198589D01*
X154528068Y-104468842D01*
X154471000Y-104755740D01*
X154471000Y-105048260D01*
X154528068Y-105335158D01*
X154640010Y-105605411D01*
X154802525Y-105848632D01*
X155009368Y-106055475D01*
X155183760Y-106172000D01*
X155009368Y-106288525D01*
X154802525Y-106495368D01*
X154640010Y-106738589D01*
X154528068Y-107008842D01*
X154471000Y-107295740D01*
X154471000Y-107588260D01*
X154528068Y-107875158D01*
X154640010Y-108145411D01*
X154802525Y-108388632D01*
X155009368Y-108595475D01*
X155183760Y-108712000D01*
X155009368Y-108828525D01*
X154802525Y-109035368D01*
X154640010Y-109278589D01*
X154528068Y-109548842D01*
X154471000Y-109835740D01*
X154471000Y-110128260D01*
X154528068Y-110415158D01*
X154640010Y-110685411D01*
X154802525Y-110928632D01*
X155009368Y-111135475D01*
X155183760Y-111252000D01*
X155009368Y-111368525D01*
X154802525Y-111575368D01*
X154640010Y-111818589D01*
X154528068Y-112088842D01*
X154471000Y-112375740D01*
X154471000Y-112668260D01*
X154528068Y-112955158D01*
X154640010Y-113225411D01*
X154802525Y-113468632D01*
X155009368Y-113675475D01*
X155183760Y-113792000D01*
X155009368Y-113908525D01*
X154802525Y-114115368D01*
X154640010Y-114358589D01*
X154528068Y-114628842D01*
X154471000Y-114915740D01*
X154471000Y-115208260D01*
X154528068Y-115495158D01*
X154640010Y-115765411D01*
X154802525Y-116008632D01*
X155009368Y-116215475D01*
X155183760Y-116332000D01*
X155009368Y-116448525D01*
X154802525Y-116655368D01*
X154640010Y-116898589D01*
X154528068Y-117168842D01*
X154471000Y-117455740D01*
X154471000Y-117748260D01*
X154528068Y-118035158D01*
X154640010Y-118305411D01*
X154802525Y-118548632D01*
X155009368Y-118755475D01*
X155191534Y-118877195D01*
X155074645Y-118946822D01*
X154858412Y-119141731D01*
X154684359Y-119375080D01*
X154559175Y-119637901D01*
X154514524Y-119785110D01*
X154635845Y-120015000D01*
X155829000Y-120015000D01*
X155829000Y-119995000D01*
X156083000Y-119995000D01*
X156083000Y-120015000D01*
X157276155Y-120015000D01*
X157397476Y-119785110D01*
X157352825Y-119637901D01*
X157227641Y-119375080D01*
X157053588Y-119141731D01*
X156837355Y-118946822D01*
X156720466Y-118877195D01*
X156902632Y-118755475D01*
X157109475Y-118548632D01*
X157271990Y-118305411D01*
X157383932Y-118035158D01*
X157441000Y-117748260D01*
X157441000Y-117455740D01*
X157426539Y-117383040D01*
X158059950Y-116749629D01*
X158093717Y-116721917D01*
X158122176Y-116687241D01*
X158204311Y-116587159D01*
X158256279Y-116489932D01*
X158286489Y-116433413D01*
X158337095Y-116266590D01*
X158349900Y-116136577D01*
X158349900Y-116136569D01*
X158354181Y-116093100D01*
X158349900Y-116049631D01*
X158349900Y-98729069D01*
X158354181Y-98685600D01*
X158349900Y-98642131D01*
X158349900Y-98642123D01*
X158337095Y-98512110D01*
X158286489Y-98345287D01*
X158204311Y-98191541D01*
X158093717Y-98056783D01*
X158059944Y-98029066D01*
X157739834Y-97708956D01*
X157712117Y-97675183D01*
X157577359Y-97564589D01*
X157423613Y-97482411D01*
X157256790Y-97431805D01*
X157126777Y-97419000D01*
X157126769Y-97419000D01*
X157083300Y-97414719D01*
X157039831Y-97419000D01*
X154640065Y-97419000D01*
X154596599Y-97414719D01*
X154553133Y-97419000D01*
X154553123Y-97419000D01*
X154423110Y-97431805D01*
X154256287Y-97482411D01*
X154102541Y-97564589D01*
X154102539Y-97564590D01*
X154102540Y-97564590D01*
X154001553Y-97647468D01*
X154001551Y-97647470D01*
X153967783Y-97675183D01*
X153940070Y-97708951D01*
X143895060Y-107753962D01*
X143929000Y-107583335D01*
X143929000Y-107300665D01*
X143873853Y-107023426D01*
X143765680Y-106762273D01*
X143608637Y-106527241D01*
X143410039Y-106328643D01*
X143418482Y-106327812D01*
X143538180Y-106291502D01*
X143648494Y-106232537D01*
X143745185Y-106153185D01*
X143824537Y-106056494D01*
X143883502Y-105946180D01*
X143919812Y-105826482D01*
X143932072Y-105702000D01*
X143929000Y-105187750D01*
X143770250Y-105029000D01*
X142621000Y-105029000D01*
X142621000Y-105049000D01*
X142367000Y-105049000D01*
X142367000Y-105029000D01*
X142347000Y-105029000D01*
X142347000Y-104775000D01*
X142367000Y-104775000D01*
X142367000Y-103625750D01*
X142621000Y-103625750D01*
X142621000Y-104775000D01*
X143770250Y-104775000D01*
X143929000Y-104616250D01*
X143932072Y-104102000D01*
X143919812Y-103977518D01*
X143883502Y-103857820D01*
X143824537Y-103747506D01*
X143745185Y-103650815D01*
X143648494Y-103571463D01*
X143538180Y-103512498D01*
X143418482Y-103476188D01*
X143294000Y-103463928D01*
X142779750Y-103467000D01*
X142621000Y-103625750D01*
X142367000Y-103625750D01*
X142208250Y-103467000D01*
X141694000Y-103463928D01*
X141569518Y-103476188D01*
X141449820Y-103512498D01*
X141339506Y-103571463D01*
X141242815Y-103650815D01*
X141163463Y-103747506D01*
X141104498Y-103857820D01*
X141068188Y-103977518D01*
X141055928Y-104102000D01*
X141059000Y-104616250D01*
X141217748Y-104774998D01*
X141078577Y-104774998D01*
X136616072Y-100312494D01*
X136616072Y-99078000D01*
X136603812Y-98953518D01*
X136567502Y-98833820D01*
X136508537Y-98723506D01*
X136429185Y-98626815D01*
X136332494Y-98547463D01*
X136222180Y-98488498D01*
X136102482Y-98452188D01*
X135978000Y-98439928D01*
X134278000Y-98439928D01*
X134153518Y-98452188D01*
X134033820Y-98488498D01*
X133923506Y-98547463D01*
X133826815Y-98626815D01*
X133747463Y-98723506D01*
X133688498Y-98833820D01*
X133652188Y-98953518D01*
X133639928Y-99078000D01*
X127964000Y-99078000D01*
X127964000Y-86376000D01*
X134251928Y-86376000D01*
X134251928Y-88376000D01*
X134264188Y-88500482D01*
X134300498Y-88620180D01*
X134359463Y-88730494D01*
X134438815Y-88827185D01*
X134535506Y-88906537D01*
X134645820Y-88965502D01*
X134765518Y-89001812D01*
X134890000Y-89014072D01*
X136890000Y-89014072D01*
X137014482Y-89001812D01*
X137134180Y-88965502D01*
X137244494Y-88906537D01*
X137341185Y-88827185D01*
X137420537Y-88730494D01*
X137479502Y-88620180D01*
X137491931Y-88579209D01*
X141276201Y-92363480D01*
X141276200Y-98762523D01*
X141271918Y-98806000D01*
X141289005Y-98979490D01*
X141339611Y-99146313D01*
X141421789Y-99300059D01*
X141456318Y-99342132D01*
X141532383Y-99434817D01*
X141667141Y-99545411D01*
X141820887Y-99627589D01*
X141987710Y-99678195D01*
X142161200Y-99695282D01*
X142173428Y-99694078D01*
X142173428Y-99806000D01*
X142185688Y-99930482D01*
X142221998Y-100050180D01*
X142280963Y-100160494D01*
X142360315Y-100257185D01*
X142457006Y-100336537D01*
X142567320Y-100395502D01*
X142687018Y-100431812D01*
X142811500Y-100444072D01*
X144716500Y-100444072D01*
X144840982Y-100431812D01*
X144960680Y-100395502D01*
X145070994Y-100336537D01*
X145167685Y-100257185D01*
X145247037Y-100160494D01*
X145296059Y-100068781D01*
X145437077Y-100181969D01*
X145712906Y-100325571D01*
X145931020Y-100396563D01*
X146177000Y-100276594D01*
X146177000Y-98933000D01*
X146157000Y-98933000D01*
X146157000Y-98679000D01*
X146177000Y-98679000D01*
X146177000Y-97335406D01*
X146431000Y-97335406D01*
X146431000Y-98679000D01*
X146451000Y-98679000D01*
X146451000Y-98933000D01*
X146431000Y-98933000D01*
X146431000Y-100276594D01*
X146676980Y-100396563D01*
X146895094Y-100325571D01*
X147170923Y-100181969D01*
X147413437Y-99987315D01*
X147568837Y-99802101D01*
X147716037Y-99981463D01*
X147957766Y-100179845D01*
X148233552Y-100327255D01*
X148532797Y-100418030D01*
X148844000Y-100448681D01*
X149155204Y-100418030D01*
X149454449Y-100327255D01*
X149730235Y-100179845D01*
X149971963Y-99981463D01*
X150170345Y-99739734D01*
X150196394Y-99691000D01*
X150403324Y-99691000D01*
X150446800Y-99695282D01*
X150620290Y-99678195D01*
X150787113Y-99627589D01*
X150940859Y-99545411D01*
X151075617Y-99434817D01*
X151186211Y-99300059D01*
X151268389Y-99146313D01*
X151318995Y-98979490D01*
X151331800Y-98849477D01*
X151331800Y-98849476D01*
X151336082Y-98806000D01*
X151331800Y-98762523D01*
X151331800Y-98004078D01*
X156043049Y-93292830D01*
X156076817Y-93265117D01*
X156187411Y-93130359D01*
X156269589Y-92976613D01*
X156320195Y-92809790D01*
X156333000Y-92679777D01*
X156333000Y-92679769D01*
X156337281Y-92636300D01*
X156335231Y-92615481D01*
X156372482Y-92611812D01*
X156492180Y-92575502D01*
X156602494Y-92516537D01*
X156699185Y-92437185D01*
X156778537Y-92340494D01*
X156837502Y-92230180D01*
X156873812Y-92110482D01*
X156886072Y-91986000D01*
X156886072Y-90386000D01*
X156873812Y-90261518D01*
X156837502Y-90141820D01*
X156778537Y-90031506D01*
X156699185Y-89934815D01*
X156602494Y-89855463D01*
X156492180Y-89796498D01*
X156372482Y-89760188D01*
X156248000Y-89747928D01*
X154648000Y-89747928D01*
X154523518Y-89760188D01*
X154403820Y-89796498D01*
X154293506Y-89855463D01*
X154196815Y-89934815D01*
X154117463Y-90031506D01*
X154058498Y-90141820D01*
X154022188Y-90261518D01*
X154009928Y-90386000D01*
X154009928Y-90393215D01*
X153940702Y-90372903D01*
X153127605Y-91186000D01*
X153940702Y-91999097D01*
X154009928Y-91978785D01*
X154009928Y-91986000D01*
X154022188Y-92110482D01*
X154058498Y-92230180D01*
X154117463Y-92340494D01*
X154196815Y-92437185D01*
X154293506Y-92516537D01*
X154308285Y-92524436D01*
X149851756Y-96980966D01*
X149817983Y-97008683D01*
X149707389Y-97143442D01*
X149625211Y-97297188D01*
X149613618Y-97335406D01*
X149604634Y-97365021D01*
X149454448Y-97284745D01*
X149155203Y-97193970D01*
X148844000Y-97163319D01*
X148532796Y-97193970D01*
X148233551Y-97284745D01*
X147957765Y-97432155D01*
X147716037Y-97630537D01*
X147568838Y-97809900D01*
X147413437Y-97624685D01*
X147170923Y-97430031D01*
X146895094Y-97286429D01*
X146676980Y-97215437D01*
X146431000Y-97335406D01*
X146177000Y-97335406D01*
X145931020Y-97215437D01*
X145712906Y-97286429D01*
X145437077Y-97430031D01*
X145296059Y-97543219D01*
X145247037Y-97451506D01*
X145167685Y-97354815D01*
X145070994Y-97275463D01*
X144960680Y-97216498D01*
X144840982Y-97180188D01*
X144716500Y-97167928D01*
X143046200Y-97167928D01*
X143046200Y-92178702D01*
X152134903Y-92178702D01*
X152206486Y-92422671D01*
X152461996Y-92543571D01*
X152736184Y-92612300D01*
X153018512Y-92626217D01*
X153298130Y-92584787D01*
X153564292Y-92489603D01*
X153689514Y-92422671D01*
X153761097Y-92178702D01*
X152948000Y-91365605D01*
X152134903Y-92178702D01*
X143046200Y-92178702D01*
X143046200Y-92040365D01*
X143050481Y-91996899D01*
X143046200Y-91953433D01*
X143046200Y-91953423D01*
X143033395Y-91823410D01*
X142982789Y-91656587D01*
X142900611Y-91502841D01*
X142790017Y-91368083D01*
X142756249Y-91340370D01*
X142672391Y-91256512D01*
X151507783Y-91256512D01*
X151549213Y-91536130D01*
X151644397Y-91802292D01*
X151711329Y-91927514D01*
X151955298Y-91999097D01*
X152768395Y-91186000D01*
X151955298Y-90372903D01*
X151711329Y-90444486D01*
X151590429Y-90699996D01*
X151521700Y-90974184D01*
X151507783Y-91256512D01*
X142672391Y-91256512D01*
X141609177Y-90193298D01*
X152134903Y-90193298D01*
X152948000Y-91006395D01*
X153761097Y-90193298D01*
X153689514Y-89949329D01*
X153434004Y-89828429D01*
X153159816Y-89759700D01*
X152877488Y-89745783D01*
X152597870Y-89787213D01*
X152331708Y-89882397D01*
X152206486Y-89949329D01*
X152134903Y-90193298D01*
X141609177Y-90193298D01*
X140337206Y-88921328D01*
X140631108Y-88998384D01*
X140952595Y-89017718D01*
X141271675Y-88973961D01*
X141576088Y-88868795D01*
X141750044Y-88775814D01*
X141845808Y-88511413D01*
X140890000Y-87555605D01*
X140875858Y-87569748D01*
X140696253Y-87390143D01*
X140710395Y-87376000D01*
X141069605Y-87376000D01*
X142025413Y-88331808D01*
X142289814Y-88236044D01*
X142430704Y-87946429D01*
X142512384Y-87634892D01*
X142531718Y-87313405D01*
X142487961Y-86994325D01*
X142382795Y-86689912D01*
X142289814Y-86515956D01*
X142025413Y-86420192D01*
X141069605Y-87376000D01*
X140710395Y-87376000D01*
X140696253Y-87361858D01*
X140875858Y-87182253D01*
X140890000Y-87196395D01*
X141845808Y-86240587D01*
X141750044Y-85976186D01*
X141460429Y-85835296D01*
X141148892Y-85753616D01*
X140827405Y-85734282D01*
X140508325Y-85778039D01*
X140327301Y-85840578D01*
X144510879Y-81657000D01*
X144649928Y-81657000D01*
X144649928Y-81788000D01*
X144662188Y-81912482D01*
X144698498Y-82032180D01*
X144757463Y-82142494D01*
X144836815Y-82239185D01*
X144933506Y-82318537D01*
X145043820Y-82377502D01*
X145163518Y-82413812D01*
X145288000Y-82426072D01*
X147320000Y-82426072D01*
X147444482Y-82413812D01*
X147564180Y-82377502D01*
X147674494Y-82318537D01*
X147771185Y-82239185D01*
X147850537Y-82142494D01*
X147909502Y-82032180D01*
X147943888Y-81918823D01*
X150335502Y-81918823D01*
X150433198Y-82184860D01*
X150725541Y-82327348D01*
X151040064Y-82410064D01*
X151364682Y-82429831D01*
X151686918Y-82385888D01*
X151994390Y-82279924D01*
X152172242Y-82184860D01*
X152269938Y-81918823D01*
X151302720Y-80951605D01*
X150335502Y-81918823D01*
X147943888Y-81918823D01*
X147945812Y-81912482D01*
X147958072Y-81788000D01*
X147958072Y-80833962D01*
X149644889Y-80833962D01*
X149688832Y-81156198D01*
X149794796Y-81463670D01*
X149889860Y-81641522D01*
X150155897Y-81739218D01*
X151123115Y-80772000D01*
X151482325Y-80772000D01*
X152449543Y-81739218D01*
X152715580Y-81641522D01*
X152858068Y-81349179D01*
X152940784Y-81034656D01*
X152960551Y-80710038D01*
X152916608Y-80387802D01*
X152810644Y-80080330D01*
X152715580Y-79902478D01*
X152449543Y-79804782D01*
X151482325Y-80772000D01*
X151123115Y-80772000D01*
X150155897Y-79804782D01*
X149889860Y-79902478D01*
X149747372Y-80194821D01*
X149664656Y-80509344D01*
X149644889Y-80833962D01*
X147958072Y-80833962D01*
X147958072Y-79756000D01*
X147945812Y-79631518D01*
X147943889Y-79625177D01*
X150335502Y-79625177D01*
X151302720Y-80592395D01*
X152269938Y-79625177D01*
X152237143Y-79535872D01*
X158039000Y-79535872D01*
X158039000Y-79976128D01*
X158124890Y-80407925D01*
X158293369Y-80814669D01*
X158537962Y-81180729D01*
X158849271Y-81492038D01*
X159215331Y-81736631D01*
X159622075Y-81905110D01*
X160053872Y-81991000D01*
X160494128Y-81991000D01*
X160925925Y-81905110D01*
X161332669Y-81736631D01*
X161698729Y-81492038D01*
X162010038Y-81180729D01*
X162254631Y-80814669D01*
X162423110Y-80407925D01*
X162509000Y-79976128D01*
X162509000Y-79535872D01*
X162423110Y-79104075D01*
X162254631Y-78697331D01*
X162010038Y-78331271D01*
X161698729Y-78019962D01*
X161332669Y-77775369D01*
X160925925Y-77606890D01*
X160494128Y-77521000D01*
X160053872Y-77521000D01*
X159622075Y-77606890D01*
X159215331Y-77775369D01*
X158849271Y-78019962D01*
X158537962Y-78331271D01*
X158293369Y-78697331D01*
X158124890Y-79104075D01*
X158039000Y-79535872D01*
X152237143Y-79535872D01*
X152172242Y-79359140D01*
X151879899Y-79216652D01*
X151565376Y-79133936D01*
X151240758Y-79114169D01*
X150918522Y-79158112D01*
X150611050Y-79264076D01*
X150433198Y-79359140D01*
X150335502Y-79625177D01*
X147943889Y-79625177D01*
X147909502Y-79511820D01*
X147850537Y-79401506D01*
X147771185Y-79304815D01*
X147674494Y-79225463D01*
X147564180Y-79166498D01*
X147444482Y-79130188D01*
X147320000Y-79117928D01*
X145288000Y-79117928D01*
X145163518Y-79130188D01*
X145043820Y-79166498D01*
X144933506Y-79225463D01*
X144836815Y-79304815D01*
X144757463Y-79401506D01*
X144698498Y-79511820D01*
X144662188Y-79631518D01*
X144649928Y-79756000D01*
X144649928Y-79887000D01*
X144187765Y-79887000D01*
X144144299Y-79882719D01*
X144100833Y-79887000D01*
X144100823Y-79887000D01*
X143970810Y-79899805D01*
X143803987Y-79950411D01*
X143650241Y-80032589D01*
X143650239Y-80032590D01*
X143650240Y-80032590D01*
X143549253Y-80115468D01*
X143549251Y-80115470D01*
X143515483Y-80143183D01*
X143487770Y-80176951D01*
X137491931Y-86172791D01*
X137479502Y-86131820D01*
X137420537Y-86021506D01*
X137341185Y-85924815D01*
X137244494Y-85845463D01*
X137134180Y-85786498D01*
X137014482Y-85750188D01*
X136890000Y-85737928D01*
X134890000Y-85737928D01*
X134765518Y-85750188D01*
X134645820Y-85786498D01*
X134535506Y-85845463D01*
X134438815Y-85924815D01*
X134359463Y-86021506D01*
X134300498Y-86131820D01*
X134264188Y-86251518D01*
X134251928Y-86376000D01*
X127964000Y-86376000D01*
X127964000Y-79535872D01*
X128575000Y-79535872D01*
X128575000Y-79976128D01*
X128660890Y-80407925D01*
X128829369Y-80814669D01*
X129073962Y-81180729D01*
X129385271Y-81492038D01*
X129751331Y-81736631D01*
X130158075Y-81905110D01*
X130589872Y-81991000D01*
X131030128Y-81991000D01*
X131461925Y-81905110D01*
X131868669Y-81736631D01*
X132234729Y-81492038D01*
X132546038Y-81180729D01*
X132790631Y-80814669D01*
X132959110Y-80407925D01*
X133045000Y-79976128D01*
X133045000Y-79535872D01*
X132959110Y-79104075D01*
X132790631Y-78697331D01*
X132546038Y-78331271D01*
X132234729Y-78019962D01*
X131868669Y-77775369D01*
X131461925Y-77606890D01*
X131030128Y-77521000D01*
X130589872Y-77521000D01*
X130158075Y-77606890D01*
X129751331Y-77775369D01*
X129385271Y-78019962D01*
X129073962Y-78331271D01*
X128829369Y-78697331D01*
X128660890Y-79104075D01*
X128575000Y-79535872D01*
X127964000Y-79535872D01*
X127964000Y-76910000D01*
X163120000Y-76910000D01*
X163120001Y-134926000D01*
G04 #@! TA.AperFunction,Conductor*
D24*
G36*
X163120001Y-134926000D02*
G01*
X127964000Y-134926000D01*
X127964000Y-131859872D01*
X128575000Y-131859872D01*
X128575000Y-132300128D01*
X128660890Y-132731925D01*
X128829369Y-133138669D01*
X129073962Y-133504729D01*
X129385271Y-133816038D01*
X129751331Y-134060631D01*
X130158075Y-134229110D01*
X130589872Y-134315000D01*
X131030128Y-134315000D01*
X131461925Y-134229110D01*
X131868669Y-134060631D01*
X132234729Y-133816038D01*
X132546038Y-133504729D01*
X132790631Y-133138669D01*
X132959110Y-132731925D01*
X133045000Y-132300128D01*
X133045000Y-131859872D01*
X132959110Y-131428075D01*
X132790631Y-131021331D01*
X132546038Y-130655271D01*
X132234729Y-130343962D01*
X131868669Y-130099369D01*
X131461925Y-129930890D01*
X131030128Y-129845000D01*
X130589872Y-129845000D01*
X130158075Y-129930890D01*
X129751331Y-130099369D01*
X129385271Y-130343962D01*
X129073962Y-130655271D01*
X128829369Y-131021331D01*
X128660890Y-131428075D01*
X128575000Y-131859872D01*
X127964000Y-131859872D01*
X127964000Y-128224890D01*
X133686524Y-128224890D01*
X133731175Y-128372099D01*
X133856359Y-128634920D01*
X134030412Y-128868269D01*
X134246645Y-129063178D01*
X134496748Y-129212157D01*
X134771109Y-129309481D01*
X135001000Y-129188814D01*
X135001000Y-127995000D01*
X135255000Y-127995000D01*
X135255000Y-129188814D01*
X135484891Y-129309481D01*
X135759252Y-129212157D01*
X136009355Y-129063178D01*
X136225588Y-128868269D01*
X136399641Y-128634920D01*
X136524825Y-128372099D01*
X136569476Y-128224890D01*
X136448155Y-127995000D01*
X135255000Y-127995000D01*
X135001000Y-127995000D01*
X133807845Y-127995000D01*
X133686524Y-128224890D01*
X127964000Y-128224890D01*
X127964000Y-125684890D01*
X133686524Y-125684890D01*
X133731175Y-125832099D01*
X133856359Y-126094920D01*
X134030412Y-126328269D01*
X134246645Y-126523178D01*
X134372255Y-126598000D01*
X134246645Y-126672822D01*
X134030412Y-126867731D01*
X133856359Y-127101080D01*
X133731175Y-127363901D01*
X133686524Y-127511110D01*
X133807845Y-127741000D01*
X135001000Y-127741000D01*
X135001000Y-125455000D01*
X135255000Y-125455000D01*
X135255000Y-127741000D01*
X136448155Y-127741000D01*
X136569476Y-127511110D01*
X136524825Y-127363901D01*
X136399641Y-127101080D01*
X136225588Y-126867731D01*
X136009355Y-126672822D01*
X135883745Y-126598000D01*
X136009355Y-126523178D01*
X136225588Y-126328269D01*
X136399641Y-126094920D01*
X136524825Y-125832099D01*
X136569476Y-125684890D01*
X136448155Y-125455000D01*
X135255000Y-125455000D01*
X135001000Y-125455000D01*
X133807845Y-125455000D01*
X133686524Y-125684890D01*
X127964000Y-125684890D01*
X127964000Y-123144890D01*
X133686524Y-123144890D01*
X133731175Y-123292099D01*
X133856359Y-123554920D01*
X134030412Y-123788269D01*
X134246645Y-123983178D01*
X134372255Y-124058000D01*
X134246645Y-124132822D01*
X134030412Y-124327731D01*
X133856359Y-124561080D01*
X133731175Y-124823901D01*
X133686524Y-124971110D01*
X133807845Y-125201000D01*
X135001000Y-125201000D01*
X135001000Y-122915000D01*
X135255000Y-122915000D01*
X135255000Y-125201000D01*
X136448155Y-125201000D01*
X136569476Y-124971110D01*
X136524825Y-124823901D01*
X136399641Y-124561080D01*
X136225588Y-124327731D01*
X136009355Y-124132822D01*
X135883745Y-124058000D01*
X136009355Y-123983178D01*
X136225588Y-123788269D01*
X136399641Y-123554920D01*
X136524825Y-123292099D01*
X136569476Y-123144890D01*
X136448155Y-122915000D01*
X135255000Y-122915000D01*
X135001000Y-122915000D01*
X133807845Y-122915000D01*
X133686524Y-123144890D01*
X127964000Y-123144890D01*
X127964000Y-120604890D01*
X133686524Y-120604890D01*
X133731175Y-120752099D01*
X133856359Y-121014920D01*
X134030412Y-121248269D01*
X134246645Y-121443178D01*
X134372255Y-121518000D01*
X134246645Y-121592822D01*
X134030412Y-121787731D01*
X133856359Y-122021080D01*
X133731175Y-122283901D01*
X133686524Y-122431110D01*
X133807845Y-122661000D01*
X135001000Y-122661000D01*
X135001000Y-120375000D01*
X133807845Y-120375000D01*
X133686524Y-120604890D01*
X127964000Y-120604890D01*
X127964000Y-99078000D01*
X133639928Y-99078000D01*
X133639928Y-100778000D01*
X133652188Y-100902482D01*
X133688498Y-101022180D01*
X133747463Y-101132494D01*
X133826815Y-101229185D01*
X133923506Y-101308537D01*
X134033820Y-101367502D01*
X134106380Y-101389513D01*
X133974525Y-101521368D01*
X133812010Y-101764589D01*
X133700068Y-102034842D01*
X133643000Y-102321740D01*
X133643000Y-102614260D01*
X133700068Y-102901158D01*
X133812010Y-103171411D01*
X133974525Y-103414632D01*
X134181368Y-103621475D01*
X134355760Y-103738000D01*
X134181368Y-103854525D01*
X133974525Y-104061368D01*
X133812010Y-104304589D01*
X133700068Y-104574842D01*
X133643000Y-104861740D01*
X133643000Y-105154260D01*
X133700068Y-105441158D01*
X133812010Y-105711411D01*
X133974525Y-105954632D01*
X134181368Y-106161475D01*
X134355760Y-106278000D01*
X134181368Y-106394525D01*
X133974525Y-106601368D01*
X133812010Y-106844589D01*
X133700068Y-107114842D01*
X133643000Y-107401740D01*
X133643000Y-107694260D01*
X133700068Y-107981158D01*
X133812010Y-108251411D01*
X133974525Y-108494632D01*
X134181368Y-108701475D01*
X134355760Y-108818000D01*
X134181368Y-108934525D01*
X133974525Y-109141368D01*
X133812010Y-109384589D01*
X133700068Y-109654842D01*
X133643000Y-109941740D01*
X133643000Y-110234260D01*
X133700068Y-110521158D01*
X133812010Y-110791411D01*
X133974525Y-111034632D01*
X134181368Y-111241475D01*
X134355760Y-111358000D01*
X134181368Y-111474525D01*
X133974525Y-111681368D01*
X133812010Y-111924589D01*
X133700068Y-112194842D01*
X133643000Y-112481740D01*
X133643000Y-112774260D01*
X133700068Y-113061158D01*
X133812010Y-113331411D01*
X133974525Y-113574632D01*
X134181368Y-113781475D01*
X134355760Y-113898000D01*
X134181368Y-114014525D01*
X133974525Y-114221368D01*
X133812010Y-114464589D01*
X133700068Y-114734842D01*
X133643000Y-115021740D01*
X133643000Y-115314260D01*
X133700068Y-115601158D01*
X133812010Y-115871411D01*
X133974525Y-116114632D01*
X134181368Y-116321475D01*
X134355760Y-116438000D01*
X134181368Y-116554525D01*
X133974525Y-116761368D01*
X133812010Y-117004589D01*
X133700068Y-117274842D01*
X133643000Y-117561740D01*
X133643000Y-117854260D01*
X133700068Y-118141158D01*
X133812010Y-118411411D01*
X133974525Y-118654632D01*
X134181368Y-118861475D01*
X134363534Y-118983195D01*
X134246645Y-119052822D01*
X134030412Y-119247731D01*
X133856359Y-119481080D01*
X133731175Y-119743901D01*
X133686524Y-119891110D01*
X133807845Y-120121000D01*
X135001000Y-120121000D01*
X135001000Y-120101000D01*
X135255000Y-120101000D01*
X135255000Y-120121000D01*
X135275000Y-120121000D01*
X135275000Y-120375000D01*
X135255000Y-120375000D01*
X135255000Y-122661000D01*
X136448155Y-122661000D01*
X136569476Y-122431110D01*
X136524825Y-122283901D01*
X136399641Y-122021080D01*
X136225588Y-121787731D01*
X136009355Y-121592822D01*
X135883745Y-121518000D01*
X136009355Y-121443178D01*
X136225588Y-121248269D01*
X136399641Y-121014920D01*
X136524825Y-120752099D01*
X136569476Y-120604890D01*
X136448156Y-120375002D01*
X136543423Y-120375002D01*
X136726800Y-120558379D01*
X136726801Y-128714621D01*
X136722519Y-128758100D01*
X136739605Y-128931590D01*
X136790212Y-129098413D01*
X136872390Y-129252159D01*
X136955268Y-129353146D01*
X136955271Y-129353149D01*
X136982984Y-129386917D01*
X137016751Y-129414629D01*
X140169670Y-132567549D01*
X140197383Y-132601317D01*
X140231151Y-132629030D01*
X140231153Y-132629032D01*
X140302652Y-132687710D01*
X140332141Y-132711911D01*
X140485887Y-132794089D01*
X140652710Y-132844695D01*
X140782723Y-132857500D01*
X140782733Y-132857500D01*
X140826199Y-132861781D01*
X140869666Y-132857500D01*
X150518431Y-132857500D01*
X150561900Y-132861781D01*
X150605369Y-132857500D01*
X150605377Y-132857500D01*
X150735390Y-132844695D01*
X150902213Y-132794089D01*
X151055959Y-132711911D01*
X151190717Y-132601317D01*
X151218434Y-132567544D01*
X151926106Y-131859872D01*
X158039000Y-131859872D01*
X158039000Y-132300128D01*
X158124890Y-132731925D01*
X158293369Y-133138669D01*
X158537962Y-133504729D01*
X158849271Y-133816038D01*
X159215331Y-134060631D01*
X159622075Y-134229110D01*
X160053872Y-134315000D01*
X160494128Y-134315000D01*
X160925925Y-134229110D01*
X161332669Y-134060631D01*
X161698729Y-133816038D01*
X162010038Y-133504729D01*
X162254631Y-133138669D01*
X162423110Y-132731925D01*
X162509000Y-132300128D01*
X162509000Y-131859872D01*
X162423110Y-131428075D01*
X162254631Y-131021331D01*
X162010038Y-130655271D01*
X161698729Y-130343962D01*
X161332669Y-130099369D01*
X160925925Y-129930890D01*
X160494128Y-129845000D01*
X160053872Y-129845000D01*
X159622075Y-129930890D01*
X159215331Y-130099369D01*
X158849271Y-130343962D01*
X158537962Y-130655271D01*
X158293369Y-131021331D01*
X158124890Y-131428075D01*
X158039000Y-131859872D01*
X151926106Y-131859872D01*
X154046050Y-129739929D01*
X154079817Y-129712217D01*
X154127726Y-129653841D01*
X154190410Y-129577460D01*
X154190411Y-129577459D01*
X154272589Y-129423713D01*
X154323195Y-129256890D01*
X154336000Y-129126877D01*
X154336000Y-129126867D01*
X154340281Y-129083401D01*
X154336000Y-129039935D01*
X154336000Y-128118890D01*
X154514524Y-128118890D01*
X154559175Y-128266099D01*
X154684359Y-128528920D01*
X154858412Y-128762269D01*
X155074645Y-128957178D01*
X155324748Y-129106157D01*
X155599109Y-129203481D01*
X155829000Y-129082814D01*
X155829000Y-127889000D01*
X156083000Y-127889000D01*
X156083000Y-129082814D01*
X156312891Y-129203481D01*
X156587252Y-129106157D01*
X156837355Y-128957178D01*
X157053588Y-128762269D01*
X157227641Y-128528920D01*
X157352825Y-128266099D01*
X157397476Y-128118890D01*
X157276155Y-127889000D01*
X156083000Y-127889000D01*
X155829000Y-127889000D01*
X154635845Y-127889000D01*
X154514524Y-128118890D01*
X154336000Y-128118890D01*
X154336000Y-125578890D01*
X154514524Y-125578890D01*
X154559175Y-125726099D01*
X154684359Y-125988920D01*
X154858412Y-126222269D01*
X155074645Y-126417178D01*
X155200255Y-126492000D01*
X155074645Y-126566822D01*
X154858412Y-126761731D01*
X154684359Y-126995080D01*
X154559175Y-127257901D01*
X154514524Y-127405110D01*
X154635845Y-127635000D01*
X155829000Y-127635000D01*
X155829000Y-125349000D01*
X156083000Y-125349000D01*
X156083000Y-127635000D01*
X157276155Y-127635000D01*
X157397476Y-127405110D01*
X157352825Y-127257901D01*
X157227641Y-126995080D01*
X157053588Y-126761731D01*
X156837355Y-126566822D01*
X156711745Y-126492000D01*
X156837355Y-126417178D01*
X157053588Y-126222269D01*
X157227641Y-125988920D01*
X157352825Y-125726099D01*
X157397476Y-125578890D01*
X157276155Y-125349000D01*
X156083000Y-125349000D01*
X155829000Y-125349000D01*
X154635845Y-125349000D01*
X154514524Y-125578890D01*
X154336000Y-125578890D01*
X154336000Y-123038890D01*
X154514524Y-123038890D01*
X154559175Y-123186099D01*
X154684359Y-123448920D01*
X154858412Y-123682269D01*
X155074645Y-123877178D01*
X155200255Y-123952000D01*
X155074645Y-124026822D01*
X154858412Y-124221731D01*
X154684359Y-124455080D01*
X154559175Y-124717901D01*
X154514524Y-124865110D01*
X154635845Y-125095000D01*
X155829000Y-125095000D01*
X155829000Y-122809000D01*
X156083000Y-122809000D01*
X156083000Y-125095000D01*
X157276155Y-125095000D01*
X157397476Y-124865110D01*
X157352825Y-124717901D01*
X157227641Y-124455080D01*
X157053588Y-124221731D01*
X156837355Y-124026822D01*
X156711745Y-123952000D01*
X156837355Y-123877178D01*
X157053588Y-123682269D01*
X157227641Y-123448920D01*
X157352825Y-123186099D01*
X157397476Y-123038890D01*
X157276155Y-122809000D01*
X156083000Y-122809000D01*
X155829000Y-122809000D01*
X154635845Y-122809000D01*
X154514524Y-123038890D01*
X154336000Y-123038890D01*
X154336000Y-120498890D01*
X154514524Y-120498890D01*
X154559175Y-120646099D01*
X154684359Y-120908920D01*
X154858412Y-121142269D01*
X155074645Y-121337178D01*
X155200255Y-121412000D01*
X155074645Y-121486822D01*
X154858412Y-121681731D01*
X154684359Y-121915080D01*
X154559175Y-122177901D01*
X154514524Y-122325110D01*
X154635845Y-122555000D01*
X155829000Y-122555000D01*
X155829000Y-120269000D01*
X156083000Y-120269000D01*
X156083000Y-122555000D01*
X157276155Y-122555000D01*
X157397476Y-122325110D01*
X157352825Y-122177901D01*
X157227641Y-121915080D01*
X157053588Y-121681731D01*
X156837355Y-121486822D01*
X156711745Y-121412000D01*
X156837355Y-121337178D01*
X157053588Y-121142269D01*
X157227641Y-120908920D01*
X157352825Y-120646099D01*
X157397476Y-120498890D01*
X157276155Y-120269000D01*
X156083000Y-120269000D01*
X155829000Y-120269000D01*
X154635845Y-120269000D01*
X154514524Y-120498890D01*
X154336000Y-120498890D01*
X154336000Y-115902469D01*
X154340281Y-115859000D01*
X154336000Y-115815531D01*
X154336000Y-115815523D01*
X154323195Y-115685510D01*
X154272589Y-115518687D01*
X154272589Y-115518686D01*
X154190411Y-115364941D01*
X154107532Y-115263953D01*
X154107530Y-115263951D01*
X154079817Y-115230183D01*
X154046049Y-115202470D01*
X151542017Y-112698439D01*
X151549000Y-112663335D01*
X151549000Y-112380665D01*
X151493853Y-112103426D01*
X151385680Y-111842273D01*
X151228637Y-111607241D01*
X151028759Y-111407363D01*
X150796241Y-111252000D01*
X151028759Y-111096637D01*
X151228637Y-110896759D01*
X151385680Y-110661727D01*
X151493853Y-110400574D01*
X151549000Y-110123335D01*
X151549000Y-109840665D01*
X151542017Y-109805561D01*
X153594749Y-107752830D01*
X153628517Y-107725117D01*
X153739111Y-107590359D01*
X153821289Y-107436613D01*
X153871895Y-107269790D01*
X153884700Y-107139777D01*
X153884700Y-107139767D01*
X153888981Y-107096301D01*
X153884700Y-107052834D01*
X153884700Y-103144878D01*
X154479348Y-102550230D01*
X154528068Y-102795158D01*
X154640010Y-103065411D01*
X154802525Y-103308632D01*
X155009368Y-103515475D01*
X155183760Y-103632000D01*
X155009368Y-103748525D01*
X154802525Y-103955368D01*
X154640010Y-104198589D01*
X154528068Y-104468842D01*
X154471000Y-104755740D01*
X154471000Y-105048260D01*
X154528068Y-105335158D01*
X154640010Y-105605411D01*
X154802525Y-105848632D01*
X155009368Y-106055475D01*
X155183760Y-106172000D01*
X155009368Y-106288525D01*
X154802525Y-106495368D01*
X154640010Y-106738589D01*
X154528068Y-107008842D01*
X154471000Y-107295740D01*
X154471000Y-107588260D01*
X154528068Y-107875158D01*
X154640010Y-108145411D01*
X154802525Y-108388632D01*
X155009368Y-108595475D01*
X155183760Y-108712000D01*
X155009368Y-108828525D01*
X154802525Y-109035368D01*
X154640010Y-109278589D01*
X154528068Y-109548842D01*
X154471000Y-109835740D01*
X154471000Y-110128260D01*
X154528068Y-110415158D01*
X154640010Y-110685411D01*
X154802525Y-110928632D01*
X155009368Y-111135475D01*
X155183760Y-111252000D01*
X155009368Y-111368525D01*
X154802525Y-111575368D01*
X154640010Y-111818589D01*
X154528068Y-112088842D01*
X154471000Y-112375740D01*
X154471000Y-112668260D01*
X154528068Y-112955158D01*
X154640010Y-113225411D01*
X154802525Y-113468632D01*
X155009368Y-113675475D01*
X155183760Y-113792000D01*
X155009368Y-113908525D01*
X154802525Y-114115368D01*
X154640010Y-114358589D01*
X154528068Y-114628842D01*
X154471000Y-114915740D01*
X154471000Y-115208260D01*
X154528068Y-115495158D01*
X154640010Y-115765411D01*
X154802525Y-116008632D01*
X155009368Y-116215475D01*
X155183760Y-116332000D01*
X155009368Y-116448525D01*
X154802525Y-116655368D01*
X154640010Y-116898589D01*
X154528068Y-117168842D01*
X154471000Y-117455740D01*
X154471000Y-117748260D01*
X154528068Y-118035158D01*
X154640010Y-118305411D01*
X154802525Y-118548632D01*
X155009368Y-118755475D01*
X155191534Y-118877195D01*
X155074645Y-118946822D01*
X154858412Y-119141731D01*
X154684359Y-119375080D01*
X154559175Y-119637901D01*
X154514524Y-119785110D01*
X154635845Y-120015000D01*
X155829000Y-120015000D01*
X155829000Y-119995000D01*
X156083000Y-119995000D01*
X156083000Y-120015000D01*
X157276155Y-120015000D01*
X157397476Y-119785110D01*
X157352825Y-119637901D01*
X157227641Y-119375080D01*
X157053588Y-119141731D01*
X156837355Y-118946822D01*
X156720466Y-118877195D01*
X156902632Y-118755475D01*
X157109475Y-118548632D01*
X157271990Y-118305411D01*
X157383932Y-118035158D01*
X157441000Y-117748260D01*
X157441000Y-117455740D01*
X157426539Y-117383040D01*
X158059950Y-116749629D01*
X158093717Y-116721917D01*
X158122176Y-116687241D01*
X158204311Y-116587159D01*
X158256279Y-116489932D01*
X158286489Y-116433413D01*
X158337095Y-116266590D01*
X158349900Y-116136577D01*
X158349900Y-116136569D01*
X158354181Y-116093100D01*
X158349900Y-116049631D01*
X158349900Y-98729069D01*
X158354181Y-98685600D01*
X158349900Y-98642131D01*
X158349900Y-98642123D01*
X158337095Y-98512110D01*
X158286489Y-98345287D01*
X158204311Y-98191541D01*
X158093717Y-98056783D01*
X158059944Y-98029066D01*
X157739834Y-97708956D01*
X157712117Y-97675183D01*
X157577359Y-97564589D01*
X157423613Y-97482411D01*
X157256790Y-97431805D01*
X157126777Y-97419000D01*
X157126769Y-97419000D01*
X157083300Y-97414719D01*
X157039831Y-97419000D01*
X154640065Y-97419000D01*
X154596599Y-97414719D01*
X154553133Y-97419000D01*
X154553123Y-97419000D01*
X154423110Y-97431805D01*
X154256287Y-97482411D01*
X154102541Y-97564589D01*
X154102539Y-97564590D01*
X154102540Y-97564590D01*
X154001553Y-97647468D01*
X154001551Y-97647470D01*
X153967783Y-97675183D01*
X153940070Y-97708951D01*
X143895060Y-107753962D01*
X143929000Y-107583335D01*
X143929000Y-107300665D01*
X143873853Y-107023426D01*
X143765680Y-106762273D01*
X143608637Y-106527241D01*
X143410039Y-106328643D01*
X143418482Y-106327812D01*
X143538180Y-106291502D01*
X143648494Y-106232537D01*
X143745185Y-106153185D01*
X143824537Y-106056494D01*
X143883502Y-105946180D01*
X143919812Y-105826482D01*
X143932072Y-105702000D01*
X143929000Y-105187750D01*
X143770250Y-105029000D01*
X142621000Y-105029000D01*
X142621000Y-105049000D01*
X142367000Y-105049000D01*
X142367000Y-105029000D01*
X142347000Y-105029000D01*
X142347000Y-104775000D01*
X142367000Y-104775000D01*
X142367000Y-103625750D01*
X142621000Y-103625750D01*
X142621000Y-104775000D01*
X143770250Y-104775000D01*
X143929000Y-104616250D01*
X143932072Y-104102000D01*
X143919812Y-103977518D01*
X143883502Y-103857820D01*
X143824537Y-103747506D01*
X143745185Y-103650815D01*
X143648494Y-103571463D01*
X143538180Y-103512498D01*
X143418482Y-103476188D01*
X143294000Y-103463928D01*
X142779750Y-103467000D01*
X142621000Y-103625750D01*
X142367000Y-103625750D01*
X142208250Y-103467000D01*
X141694000Y-103463928D01*
X141569518Y-103476188D01*
X141449820Y-103512498D01*
X141339506Y-103571463D01*
X141242815Y-103650815D01*
X141163463Y-103747506D01*
X141104498Y-103857820D01*
X141068188Y-103977518D01*
X141055928Y-104102000D01*
X141059000Y-104616250D01*
X141217748Y-104774998D01*
X141078577Y-104774998D01*
X136616072Y-100312494D01*
X136616072Y-99078000D01*
X136603812Y-98953518D01*
X136567502Y-98833820D01*
X136508537Y-98723506D01*
X136429185Y-98626815D01*
X136332494Y-98547463D01*
X136222180Y-98488498D01*
X136102482Y-98452188D01*
X135978000Y-98439928D01*
X134278000Y-98439928D01*
X134153518Y-98452188D01*
X134033820Y-98488498D01*
X133923506Y-98547463D01*
X133826815Y-98626815D01*
X133747463Y-98723506D01*
X133688498Y-98833820D01*
X133652188Y-98953518D01*
X133639928Y-99078000D01*
X127964000Y-99078000D01*
X127964000Y-86376000D01*
X134251928Y-86376000D01*
X134251928Y-88376000D01*
X134264188Y-88500482D01*
X134300498Y-88620180D01*
X134359463Y-88730494D01*
X134438815Y-88827185D01*
X134535506Y-88906537D01*
X134645820Y-88965502D01*
X134765518Y-89001812D01*
X134890000Y-89014072D01*
X136890000Y-89014072D01*
X137014482Y-89001812D01*
X137134180Y-88965502D01*
X137244494Y-88906537D01*
X137341185Y-88827185D01*
X137420537Y-88730494D01*
X137479502Y-88620180D01*
X137491931Y-88579209D01*
X141276201Y-92363480D01*
X141276200Y-98762523D01*
X141271918Y-98806000D01*
X141289005Y-98979490D01*
X141339611Y-99146313D01*
X141421789Y-99300059D01*
X141456318Y-99342132D01*
X141532383Y-99434817D01*
X141667141Y-99545411D01*
X141820887Y-99627589D01*
X141987710Y-99678195D01*
X142161200Y-99695282D01*
X142173428Y-99694078D01*
X142173428Y-99806000D01*
X142185688Y-99930482D01*
X142221998Y-100050180D01*
X142280963Y-100160494D01*
X142360315Y-100257185D01*
X142457006Y-100336537D01*
X142567320Y-100395502D01*
X142687018Y-100431812D01*
X142811500Y-100444072D01*
X144716500Y-100444072D01*
X144840982Y-100431812D01*
X144960680Y-100395502D01*
X145070994Y-100336537D01*
X145167685Y-100257185D01*
X145247037Y-100160494D01*
X145296059Y-100068781D01*
X145437077Y-100181969D01*
X145712906Y-100325571D01*
X145931020Y-100396563D01*
X146177000Y-100276594D01*
X146177000Y-98933000D01*
X146157000Y-98933000D01*
X146157000Y-98679000D01*
X146177000Y-98679000D01*
X146177000Y-97335406D01*
X146431000Y-97335406D01*
X146431000Y-98679000D01*
X146451000Y-98679000D01*
X146451000Y-98933000D01*
X146431000Y-98933000D01*
X146431000Y-100276594D01*
X146676980Y-100396563D01*
X146895094Y-100325571D01*
X147170923Y-100181969D01*
X147413437Y-99987315D01*
X147568837Y-99802101D01*
X147716037Y-99981463D01*
X147957766Y-100179845D01*
X148233552Y-100327255D01*
X148532797Y-100418030D01*
X148844000Y-100448681D01*
X149155204Y-100418030D01*
X149454449Y-100327255D01*
X149730235Y-100179845D01*
X149971963Y-99981463D01*
X150170345Y-99739734D01*
X150196394Y-99691000D01*
X150403324Y-99691000D01*
X150446800Y-99695282D01*
X150620290Y-99678195D01*
X150787113Y-99627589D01*
X150940859Y-99545411D01*
X151075617Y-99434817D01*
X151186211Y-99300059D01*
X151268389Y-99146313D01*
X151318995Y-98979490D01*
X151331800Y-98849477D01*
X151331800Y-98849476D01*
X151336082Y-98806000D01*
X151331800Y-98762523D01*
X151331800Y-98004078D01*
X156043049Y-93292830D01*
X156076817Y-93265117D01*
X156187411Y-93130359D01*
X156269589Y-92976613D01*
X156320195Y-92809790D01*
X156333000Y-92679777D01*
X156333000Y-92679769D01*
X156337281Y-92636300D01*
X156335231Y-92615481D01*
X156372482Y-92611812D01*
X156492180Y-92575502D01*
X156602494Y-92516537D01*
X156699185Y-92437185D01*
X156778537Y-92340494D01*
X156837502Y-92230180D01*
X156873812Y-92110482D01*
X156886072Y-91986000D01*
X156886072Y-90386000D01*
X156873812Y-90261518D01*
X156837502Y-90141820D01*
X156778537Y-90031506D01*
X156699185Y-89934815D01*
X156602494Y-89855463D01*
X156492180Y-89796498D01*
X156372482Y-89760188D01*
X156248000Y-89747928D01*
X154648000Y-89747928D01*
X154523518Y-89760188D01*
X154403820Y-89796498D01*
X154293506Y-89855463D01*
X154196815Y-89934815D01*
X154117463Y-90031506D01*
X154058498Y-90141820D01*
X154022188Y-90261518D01*
X154009928Y-90386000D01*
X154009928Y-90393215D01*
X153940702Y-90372903D01*
X153127605Y-91186000D01*
X153940702Y-91999097D01*
X154009928Y-91978785D01*
X154009928Y-91986000D01*
X154022188Y-92110482D01*
X154058498Y-92230180D01*
X154117463Y-92340494D01*
X154196815Y-92437185D01*
X154293506Y-92516537D01*
X154308285Y-92524436D01*
X149851756Y-96980966D01*
X149817983Y-97008683D01*
X149707389Y-97143442D01*
X149625211Y-97297188D01*
X149613618Y-97335406D01*
X149604634Y-97365021D01*
X149454448Y-97284745D01*
X149155203Y-97193970D01*
X148844000Y-97163319D01*
X148532796Y-97193970D01*
X148233551Y-97284745D01*
X147957765Y-97432155D01*
X147716037Y-97630537D01*
X147568838Y-97809900D01*
X147413437Y-97624685D01*
X147170923Y-97430031D01*
X146895094Y-97286429D01*
X146676980Y-97215437D01*
X146431000Y-97335406D01*
X146177000Y-97335406D01*
X145931020Y-97215437D01*
X145712906Y-97286429D01*
X145437077Y-97430031D01*
X145296059Y-97543219D01*
X145247037Y-97451506D01*
X145167685Y-97354815D01*
X145070994Y-97275463D01*
X144960680Y-97216498D01*
X144840982Y-97180188D01*
X144716500Y-97167928D01*
X143046200Y-97167928D01*
X143046200Y-92178702D01*
X152134903Y-92178702D01*
X152206486Y-92422671D01*
X152461996Y-92543571D01*
X152736184Y-92612300D01*
X153018512Y-92626217D01*
X153298130Y-92584787D01*
X153564292Y-92489603D01*
X153689514Y-92422671D01*
X153761097Y-92178702D01*
X152948000Y-91365605D01*
X152134903Y-92178702D01*
X143046200Y-92178702D01*
X143046200Y-92040365D01*
X143050481Y-91996899D01*
X143046200Y-91953433D01*
X143046200Y-91953423D01*
X143033395Y-91823410D01*
X142982789Y-91656587D01*
X142900611Y-91502841D01*
X142790017Y-91368083D01*
X142756249Y-91340370D01*
X142672391Y-91256512D01*
X151507783Y-91256512D01*
X151549213Y-91536130D01*
X151644397Y-91802292D01*
X151711329Y-91927514D01*
X151955298Y-91999097D01*
X152768395Y-91186000D01*
X151955298Y-90372903D01*
X151711329Y-90444486D01*
X151590429Y-90699996D01*
X151521700Y-90974184D01*
X151507783Y-91256512D01*
X142672391Y-91256512D01*
X141609177Y-90193298D01*
X152134903Y-90193298D01*
X152948000Y-91006395D01*
X153761097Y-90193298D01*
X153689514Y-89949329D01*
X153434004Y-89828429D01*
X153159816Y-89759700D01*
X152877488Y-89745783D01*
X152597870Y-89787213D01*
X152331708Y-89882397D01*
X152206486Y-89949329D01*
X152134903Y-90193298D01*
X141609177Y-90193298D01*
X140337206Y-88921328D01*
X140631108Y-88998384D01*
X140952595Y-89017718D01*
X141271675Y-88973961D01*
X141576088Y-88868795D01*
X141750044Y-88775814D01*
X141845808Y-88511413D01*
X140890000Y-87555605D01*
X140875858Y-87569748D01*
X140696253Y-87390143D01*
X140710395Y-87376000D01*
X141069605Y-87376000D01*
X142025413Y-88331808D01*
X142289814Y-88236044D01*
X142430704Y-87946429D01*
X142512384Y-87634892D01*
X142531718Y-87313405D01*
X142487961Y-86994325D01*
X142382795Y-86689912D01*
X142289814Y-86515956D01*
X142025413Y-86420192D01*
X141069605Y-87376000D01*
X140710395Y-87376000D01*
X140696253Y-87361858D01*
X140875858Y-87182253D01*
X140890000Y-87196395D01*
X141845808Y-86240587D01*
X141750044Y-85976186D01*
X141460429Y-85835296D01*
X141148892Y-85753616D01*
X140827405Y-85734282D01*
X140508325Y-85778039D01*
X140327301Y-85840578D01*
X144510879Y-81657000D01*
X144649928Y-81657000D01*
X144649928Y-81788000D01*
X144662188Y-81912482D01*
X144698498Y-82032180D01*
X144757463Y-82142494D01*
X144836815Y-82239185D01*
X144933506Y-82318537D01*
X145043820Y-82377502D01*
X145163518Y-82413812D01*
X145288000Y-82426072D01*
X147320000Y-82426072D01*
X147444482Y-82413812D01*
X147564180Y-82377502D01*
X147674494Y-82318537D01*
X147771185Y-82239185D01*
X147850537Y-82142494D01*
X147909502Y-82032180D01*
X147943888Y-81918823D01*
X150335502Y-81918823D01*
X150433198Y-82184860D01*
X150725541Y-82327348D01*
X151040064Y-82410064D01*
X151364682Y-82429831D01*
X151686918Y-82385888D01*
X151994390Y-82279924D01*
X152172242Y-82184860D01*
X152269938Y-81918823D01*
X151302720Y-80951605D01*
X150335502Y-81918823D01*
X147943888Y-81918823D01*
X147945812Y-81912482D01*
X147958072Y-81788000D01*
X147958072Y-80833962D01*
X149644889Y-80833962D01*
X149688832Y-81156198D01*
X149794796Y-81463670D01*
X149889860Y-81641522D01*
X150155897Y-81739218D01*
X151123115Y-80772000D01*
X151482325Y-80772000D01*
X152449543Y-81739218D01*
X152715580Y-81641522D01*
X152858068Y-81349179D01*
X152940784Y-81034656D01*
X152960551Y-80710038D01*
X152916608Y-80387802D01*
X152810644Y-80080330D01*
X152715580Y-79902478D01*
X152449543Y-79804782D01*
X151482325Y-80772000D01*
X151123115Y-80772000D01*
X150155897Y-79804782D01*
X149889860Y-79902478D01*
X149747372Y-80194821D01*
X149664656Y-80509344D01*
X149644889Y-80833962D01*
X147958072Y-80833962D01*
X147958072Y-79756000D01*
X147945812Y-79631518D01*
X147943889Y-79625177D01*
X150335502Y-79625177D01*
X151302720Y-80592395D01*
X152269938Y-79625177D01*
X152237143Y-79535872D01*
X158039000Y-79535872D01*
X158039000Y-79976128D01*
X158124890Y-80407925D01*
X158293369Y-80814669D01*
X158537962Y-81180729D01*
X158849271Y-81492038D01*
X159215331Y-81736631D01*
X159622075Y-81905110D01*
X160053872Y-81991000D01*
X160494128Y-81991000D01*
X160925925Y-81905110D01*
X161332669Y-81736631D01*
X161698729Y-81492038D01*
X162010038Y-81180729D01*
X162254631Y-80814669D01*
X162423110Y-80407925D01*
X162509000Y-79976128D01*
X162509000Y-79535872D01*
X162423110Y-79104075D01*
X162254631Y-78697331D01*
X162010038Y-78331271D01*
X161698729Y-78019962D01*
X161332669Y-77775369D01*
X160925925Y-77606890D01*
X160494128Y-77521000D01*
X160053872Y-77521000D01*
X159622075Y-77606890D01*
X159215331Y-77775369D01*
X158849271Y-78019962D01*
X158537962Y-78331271D01*
X158293369Y-78697331D01*
X158124890Y-79104075D01*
X158039000Y-79535872D01*
X152237143Y-79535872D01*
X152172242Y-79359140D01*
X151879899Y-79216652D01*
X151565376Y-79133936D01*
X151240758Y-79114169D01*
X150918522Y-79158112D01*
X150611050Y-79264076D01*
X150433198Y-79359140D01*
X150335502Y-79625177D01*
X147943889Y-79625177D01*
X147909502Y-79511820D01*
X147850537Y-79401506D01*
X147771185Y-79304815D01*
X147674494Y-79225463D01*
X147564180Y-79166498D01*
X147444482Y-79130188D01*
X147320000Y-79117928D01*
X145288000Y-79117928D01*
X145163518Y-79130188D01*
X145043820Y-79166498D01*
X144933506Y-79225463D01*
X144836815Y-79304815D01*
X144757463Y-79401506D01*
X144698498Y-79511820D01*
X144662188Y-79631518D01*
X144649928Y-79756000D01*
X144649928Y-79887000D01*
X144187765Y-79887000D01*
X144144299Y-79882719D01*
X144100833Y-79887000D01*
X144100823Y-79887000D01*
X143970810Y-79899805D01*
X143803987Y-79950411D01*
X143650241Y-80032589D01*
X143650239Y-80032590D01*
X143650240Y-80032590D01*
X143549253Y-80115468D01*
X143549251Y-80115470D01*
X143515483Y-80143183D01*
X143487770Y-80176951D01*
X137491931Y-86172791D01*
X137479502Y-86131820D01*
X137420537Y-86021506D01*
X137341185Y-85924815D01*
X137244494Y-85845463D01*
X137134180Y-85786498D01*
X137014482Y-85750188D01*
X136890000Y-85737928D01*
X134890000Y-85737928D01*
X134765518Y-85750188D01*
X134645820Y-85786498D01*
X134535506Y-85845463D01*
X134438815Y-85924815D01*
X134359463Y-86021506D01*
X134300498Y-86131820D01*
X134264188Y-86251518D01*
X134251928Y-86376000D01*
X127964000Y-86376000D01*
X127964000Y-79535872D01*
X128575000Y-79535872D01*
X128575000Y-79976128D01*
X128660890Y-80407925D01*
X128829369Y-80814669D01*
X129073962Y-81180729D01*
X129385271Y-81492038D01*
X129751331Y-81736631D01*
X130158075Y-81905110D01*
X130589872Y-81991000D01*
X131030128Y-81991000D01*
X131461925Y-81905110D01*
X131868669Y-81736631D01*
X132234729Y-81492038D01*
X132546038Y-81180729D01*
X132790631Y-80814669D01*
X132959110Y-80407925D01*
X133045000Y-79976128D01*
X133045000Y-79535872D01*
X132959110Y-79104075D01*
X132790631Y-78697331D01*
X132546038Y-78331271D01*
X132234729Y-78019962D01*
X131868669Y-77775369D01*
X131461925Y-77606890D01*
X131030128Y-77521000D01*
X130589872Y-77521000D01*
X130158075Y-77606890D01*
X129751331Y-77775369D01*
X129385271Y-78019962D01*
X129073962Y-78331271D01*
X128829369Y-78697331D01*
X128660890Y-79104075D01*
X128575000Y-79535872D01*
X127964000Y-79535872D01*
X127964000Y-76910000D01*
X163120000Y-76910000D01*
X163120001Y-134926000D01*
G37*
G04 #@! TD.AperFunction*
D23*
X148842320Y-105581727D02*
X148999363Y-105816759D01*
X149199241Y-106016637D01*
X149434273Y-106173680D01*
X149444865Y-106178067D01*
X149258869Y-106289615D01*
X149050481Y-106478586D01*
X148882963Y-106704580D01*
X148762754Y-106958913D01*
X148722096Y-107092961D01*
X148844085Y-107315000D01*
X149987000Y-107315000D01*
X149987000Y-107295000D01*
X150241000Y-107295000D01*
X150241000Y-107315000D01*
X150261000Y-107315000D01*
X150261000Y-107569000D01*
X150241000Y-107569000D01*
X150241000Y-107589000D01*
X149987000Y-107589000D01*
X149987000Y-107569000D01*
X148844085Y-107569000D01*
X148722096Y-107791039D01*
X148762754Y-107925087D01*
X148882963Y-108179420D01*
X149050481Y-108405414D01*
X149258869Y-108594385D01*
X149444865Y-108705933D01*
X149434273Y-108710320D01*
X149199241Y-108867363D01*
X148999363Y-109067241D01*
X148842320Y-109302273D01*
X148734147Y-109563426D01*
X148679000Y-109840665D01*
X148679000Y-110123335D01*
X148734147Y-110400574D01*
X148842320Y-110661727D01*
X148999363Y-110896759D01*
X149199241Y-111096637D01*
X149431759Y-111252000D01*
X149199241Y-111407363D01*
X148999363Y-111607241D01*
X148842320Y-111842273D01*
X148734147Y-112103426D01*
X148679000Y-112380665D01*
X148679000Y-112663335D01*
X148734147Y-112940574D01*
X148842320Y-113201727D01*
X148999363Y-113436759D01*
X149199241Y-113636637D01*
X149431759Y-113792000D01*
X149199241Y-113947363D01*
X148999363Y-114147241D01*
X148842320Y-114382273D01*
X148734147Y-114643426D01*
X148679000Y-114920665D01*
X148679000Y-115203335D01*
X148734147Y-115480574D01*
X148842320Y-115741727D01*
X148999363Y-115976759D01*
X149199241Y-116176637D01*
X149431759Y-116332000D01*
X149199241Y-116487363D01*
X148999363Y-116687241D01*
X148842320Y-116922273D01*
X148734147Y-117183426D01*
X148679000Y-117460665D01*
X148679000Y-117743335D01*
X148734147Y-118020574D01*
X148842320Y-118281727D01*
X148999363Y-118516759D01*
X149199241Y-118716637D01*
X149431759Y-118872000D01*
X149199241Y-119027363D01*
X148999363Y-119227241D01*
X148842320Y-119462273D01*
X148734147Y-119723426D01*
X148679000Y-120000665D01*
X148679000Y-120283335D01*
X148734147Y-120560574D01*
X148842320Y-120821727D01*
X148999363Y-121056759D01*
X149199241Y-121256637D01*
X149431759Y-121412000D01*
X149199241Y-121567363D01*
X148999363Y-121767241D01*
X148842320Y-122002273D01*
X148734147Y-122263426D01*
X148679000Y-122540665D01*
X148679000Y-122823335D01*
X148734147Y-123100574D01*
X148842320Y-123361727D01*
X148999363Y-123596759D01*
X149199241Y-123796637D01*
X149431759Y-123952000D01*
X149199241Y-124107363D01*
X148999363Y-124307241D01*
X148842320Y-124542273D01*
X148734147Y-124803426D01*
X148679000Y-125080665D01*
X148679000Y-125363335D01*
X148734147Y-125640574D01*
X148842320Y-125901727D01*
X148999363Y-126136759D01*
X149199241Y-126336637D01*
X149431759Y-126492000D01*
X149199241Y-126647363D01*
X148999363Y-126847241D01*
X148979479Y-126877000D01*
X148707169Y-126877000D01*
X148663700Y-126872719D01*
X148620231Y-126877000D01*
X148620223Y-126877000D01*
X148490210Y-126889805D01*
X148323386Y-126940411D01*
X148169641Y-127022589D01*
X148068653Y-127105468D01*
X148068651Y-127105470D01*
X148034883Y-127133183D01*
X148007170Y-127166951D01*
X146836922Y-128337200D01*
X143801709Y-128337200D01*
X143845246Y-128245087D01*
X143885904Y-128111039D01*
X143763915Y-127889000D01*
X142621000Y-127889000D01*
X142621000Y-127909000D01*
X142367000Y-127909000D01*
X142367000Y-127889000D01*
X142347000Y-127889000D01*
X142347000Y-127635000D01*
X142367000Y-127635000D01*
X142367000Y-127615000D01*
X142621000Y-127615000D01*
X142621000Y-127635000D01*
X143763915Y-127635000D01*
X143885904Y-127412961D01*
X143845246Y-127278913D01*
X143725037Y-127024580D01*
X143557519Y-126798586D01*
X143349131Y-126609615D01*
X143163135Y-126498067D01*
X143173727Y-126493680D01*
X143408759Y-126336637D01*
X143608637Y-126136759D01*
X143765680Y-125901727D01*
X143873853Y-125640574D01*
X143929000Y-125363335D01*
X143929000Y-125080665D01*
X143873853Y-124803426D01*
X143765680Y-124542273D01*
X143608637Y-124307241D01*
X143408759Y-124107363D01*
X143176241Y-123952000D01*
X143408759Y-123796637D01*
X143608637Y-123596759D01*
X143765680Y-123361727D01*
X143873853Y-123100574D01*
X143929000Y-122823335D01*
X143929000Y-122540665D01*
X143873853Y-122263426D01*
X143765680Y-122002273D01*
X143608637Y-121767241D01*
X143408759Y-121567363D01*
X143176241Y-121412000D01*
X143408759Y-121256637D01*
X143608637Y-121056759D01*
X143765680Y-120821727D01*
X143873853Y-120560574D01*
X143929000Y-120283335D01*
X143929000Y-120000665D01*
X143873853Y-119723426D01*
X143765680Y-119462273D01*
X143608637Y-119227241D01*
X143408759Y-119027363D01*
X143176241Y-118872000D01*
X143408759Y-118716637D01*
X143608637Y-118516759D01*
X143765680Y-118281727D01*
X143873853Y-118020574D01*
X143929000Y-117743335D01*
X143929000Y-117460665D01*
X143873853Y-117183426D01*
X143765680Y-116922273D01*
X143608637Y-116687241D01*
X143408759Y-116487363D01*
X143176241Y-116332000D01*
X143408759Y-116176637D01*
X143608637Y-115976759D01*
X143765680Y-115741727D01*
X143873853Y-115480574D01*
X143929000Y-115203335D01*
X143929000Y-114920665D01*
X143873853Y-114643426D01*
X143765680Y-114382273D01*
X143608637Y-114147241D01*
X143408759Y-113947363D01*
X143176241Y-113792000D01*
X143408759Y-113636637D01*
X143608637Y-113436759D01*
X143765680Y-113201727D01*
X143873853Y-112940574D01*
X143929000Y-112663335D01*
X143929000Y-112380665D01*
X143873853Y-112103426D01*
X143765680Y-111842273D01*
X143608637Y-111607241D01*
X143408759Y-111407363D01*
X143176241Y-111252000D01*
X143408759Y-111096637D01*
X143608637Y-110896759D01*
X143628521Y-110867000D01*
X143900824Y-110867000D01*
X143944300Y-110871282D01*
X144117790Y-110854195D01*
X144284613Y-110803589D01*
X144438359Y-110721411D01*
X144573117Y-110610817D01*
X144683711Y-110476059D01*
X144765889Y-110322313D01*
X144816495Y-110155490D01*
X144829300Y-110025477D01*
X144833582Y-109982000D01*
X144829300Y-109938523D01*
X144829300Y-109322878D01*
X148762692Y-105389487D01*
X148842320Y-105581727D01*
G04 #@! TA.AperFunction,Conductor*
D24*
G36*
X148842320Y-105581727D02*
G01*
X148999363Y-105816759D01*
X149199241Y-106016637D01*
X149434273Y-106173680D01*
X149444865Y-106178067D01*
X149258869Y-106289615D01*
X149050481Y-106478586D01*
X148882963Y-106704580D01*
X148762754Y-106958913D01*
X148722096Y-107092961D01*
X148844085Y-107315000D01*
X149987000Y-107315000D01*
X149987000Y-107295000D01*
X150241000Y-107295000D01*
X150241000Y-107315000D01*
X150261000Y-107315000D01*
X150261000Y-107569000D01*
X150241000Y-107569000D01*
X150241000Y-107589000D01*
X149987000Y-107589000D01*
X149987000Y-107569000D01*
X148844085Y-107569000D01*
X148722096Y-107791039D01*
X148762754Y-107925087D01*
X148882963Y-108179420D01*
X149050481Y-108405414D01*
X149258869Y-108594385D01*
X149444865Y-108705933D01*
X149434273Y-108710320D01*
X149199241Y-108867363D01*
X148999363Y-109067241D01*
X148842320Y-109302273D01*
X148734147Y-109563426D01*
X148679000Y-109840665D01*
X148679000Y-110123335D01*
X148734147Y-110400574D01*
X148842320Y-110661727D01*
X148999363Y-110896759D01*
X149199241Y-111096637D01*
X149431759Y-111252000D01*
X149199241Y-111407363D01*
X148999363Y-111607241D01*
X148842320Y-111842273D01*
X148734147Y-112103426D01*
X148679000Y-112380665D01*
X148679000Y-112663335D01*
X148734147Y-112940574D01*
X148842320Y-113201727D01*
X148999363Y-113436759D01*
X149199241Y-113636637D01*
X149431759Y-113792000D01*
X149199241Y-113947363D01*
X148999363Y-114147241D01*
X148842320Y-114382273D01*
X148734147Y-114643426D01*
X148679000Y-114920665D01*
X148679000Y-115203335D01*
X148734147Y-115480574D01*
X148842320Y-115741727D01*
X148999363Y-115976759D01*
X149199241Y-116176637D01*
X149431759Y-116332000D01*
X149199241Y-116487363D01*
X148999363Y-116687241D01*
X148842320Y-116922273D01*
X148734147Y-117183426D01*
X148679000Y-117460665D01*
X148679000Y-117743335D01*
X148734147Y-118020574D01*
X148842320Y-118281727D01*
X148999363Y-118516759D01*
X149199241Y-118716637D01*
X149431759Y-118872000D01*
X149199241Y-119027363D01*
X148999363Y-119227241D01*
X148842320Y-119462273D01*
X148734147Y-119723426D01*
X148679000Y-120000665D01*
X148679000Y-120283335D01*
X148734147Y-120560574D01*
X148842320Y-120821727D01*
X148999363Y-121056759D01*
X149199241Y-121256637D01*
X149431759Y-121412000D01*
X149199241Y-121567363D01*
X148999363Y-121767241D01*
X148842320Y-122002273D01*
X148734147Y-122263426D01*
X148679000Y-122540665D01*
X148679000Y-122823335D01*
X148734147Y-123100574D01*
X148842320Y-123361727D01*
X148999363Y-123596759D01*
X149199241Y-123796637D01*
X149431759Y-123952000D01*
X149199241Y-124107363D01*
X148999363Y-124307241D01*
X148842320Y-124542273D01*
X148734147Y-124803426D01*
X148679000Y-125080665D01*
X148679000Y-125363335D01*
X148734147Y-125640574D01*
X148842320Y-125901727D01*
X148999363Y-126136759D01*
X149199241Y-126336637D01*
X149431759Y-126492000D01*
X149199241Y-126647363D01*
X148999363Y-126847241D01*
X148979479Y-126877000D01*
X148707169Y-126877000D01*
X148663700Y-126872719D01*
X148620231Y-126877000D01*
X148620223Y-126877000D01*
X148490210Y-126889805D01*
X148323386Y-126940411D01*
X148169641Y-127022589D01*
X148068653Y-127105468D01*
X148068651Y-127105470D01*
X148034883Y-127133183D01*
X148007170Y-127166951D01*
X146836922Y-128337200D01*
X143801709Y-128337200D01*
X143845246Y-128245087D01*
X143885904Y-128111039D01*
X143763915Y-127889000D01*
X142621000Y-127889000D01*
X142621000Y-127909000D01*
X142367000Y-127909000D01*
X142367000Y-127889000D01*
X142347000Y-127889000D01*
X142347000Y-127635000D01*
X142367000Y-127635000D01*
X142367000Y-127615000D01*
X142621000Y-127615000D01*
X142621000Y-127635000D01*
X143763915Y-127635000D01*
X143885904Y-127412961D01*
X143845246Y-127278913D01*
X143725037Y-127024580D01*
X143557519Y-126798586D01*
X143349131Y-126609615D01*
X143163135Y-126498067D01*
X143173727Y-126493680D01*
X143408759Y-126336637D01*
X143608637Y-126136759D01*
X143765680Y-125901727D01*
X143873853Y-125640574D01*
X143929000Y-125363335D01*
X143929000Y-125080665D01*
X143873853Y-124803426D01*
X143765680Y-124542273D01*
X143608637Y-124307241D01*
X143408759Y-124107363D01*
X143176241Y-123952000D01*
X143408759Y-123796637D01*
X143608637Y-123596759D01*
X143765680Y-123361727D01*
X143873853Y-123100574D01*
X143929000Y-122823335D01*
X143929000Y-122540665D01*
X143873853Y-122263426D01*
X143765680Y-122002273D01*
X143608637Y-121767241D01*
X143408759Y-121567363D01*
X143176241Y-121412000D01*
X143408759Y-121256637D01*
X143608637Y-121056759D01*
X143765680Y-120821727D01*
X143873853Y-120560574D01*
X143929000Y-120283335D01*
X143929000Y-120000665D01*
X143873853Y-119723426D01*
X143765680Y-119462273D01*
X143608637Y-119227241D01*
X143408759Y-119027363D01*
X143176241Y-118872000D01*
X143408759Y-118716637D01*
X143608637Y-118516759D01*
X143765680Y-118281727D01*
X143873853Y-118020574D01*
X143929000Y-117743335D01*
X143929000Y-117460665D01*
X143873853Y-117183426D01*
X143765680Y-116922273D01*
X143608637Y-116687241D01*
X143408759Y-116487363D01*
X143176241Y-116332000D01*
X143408759Y-116176637D01*
X143608637Y-115976759D01*
X143765680Y-115741727D01*
X143873853Y-115480574D01*
X143929000Y-115203335D01*
X143929000Y-114920665D01*
X143873853Y-114643426D01*
X143765680Y-114382273D01*
X143608637Y-114147241D01*
X143408759Y-113947363D01*
X143176241Y-113792000D01*
X143408759Y-113636637D01*
X143608637Y-113436759D01*
X143765680Y-113201727D01*
X143873853Y-112940574D01*
X143929000Y-112663335D01*
X143929000Y-112380665D01*
X143873853Y-112103426D01*
X143765680Y-111842273D01*
X143608637Y-111607241D01*
X143408759Y-111407363D01*
X143176241Y-111252000D01*
X143408759Y-111096637D01*
X143608637Y-110896759D01*
X143628521Y-110867000D01*
X143900824Y-110867000D01*
X143944300Y-110871282D01*
X144117790Y-110854195D01*
X144284613Y-110803589D01*
X144438359Y-110721411D01*
X144573117Y-110610817D01*
X144683711Y-110476059D01*
X144765889Y-110322313D01*
X144816495Y-110155490D01*
X144829300Y-110025477D01*
X144833582Y-109982000D01*
X144829300Y-109938523D01*
X144829300Y-109322878D01*
X148762692Y-105389487D01*
X148842320Y-105581727D01*
G37*
G04 #@! TD.AperFunction*
M02*
