G04 #@! TF.GenerationSoftware,KiCad,Pcbnew,5.1.10-1.fc34*
G04 #@! TF.CreationDate,2021-08-21T17:02:38+03:00*
G04 #@! TF.ProjectId,nmea0183-5V-buffer-board,6e6d6561-3031-4383-932d-35562d627566,rev?*
G04 #@! TF.SameCoordinates,Original*
G04 #@! TF.FileFunction,Legend,Top*
G04 #@! TF.FilePolarity,Positive*
%FSLAX46Y46*%
G04 Gerber Fmt 4.6, Leading zero omitted, Abs format (unit mm)*
G04 Created by KiCad (PCBNEW 5.1.10-1.fc34) date 2021-08-21 17:02:38*
%MOMM*%
%LPD*%
G01*
G04 APERTURE LIST*
%ADD10C,0.150000*%
%ADD11C,0.203200*%
%ADD12C,0.120000*%
%ADD13C,0.127000*%
%ADD14C,3.200000*%
%ADD15C,2.235200*%
%ADD16O,1.600000X1.600000*%
%ADD17R,1.600000X1.600000*%
%ADD18O,1.905000X2.000000*%
%ADD19R,1.905000X2.000000*%
%ADD20O,1.700000X1.700000*%
%ADD21R,1.700000X1.700000*%
%ADD22C,1.600000*%
%ADD23C,2.000000*%
%ADD24R,2.000000X2.000000*%
G04 APERTURE END LIST*
D10*
X160853428Y-86233523D02*
X160805809Y-86376380D01*
X160758190Y-86424000D01*
X160662952Y-86471619D01*
X160520095Y-86471619D01*
X160424857Y-86424000D01*
X160377238Y-86376380D01*
X160329619Y-86281142D01*
X160329619Y-85900190D01*
X161329619Y-85900190D01*
X161329619Y-86233523D01*
X161282000Y-86328761D01*
X161234380Y-86376380D01*
X161139142Y-86424000D01*
X161043904Y-86424000D01*
X160948666Y-86376380D01*
X160901047Y-86328761D01*
X160853428Y-86233523D01*
X160853428Y-85900190D01*
X160996285Y-87328761D02*
X160329619Y-87328761D01*
X160996285Y-86900190D02*
X160472476Y-86900190D01*
X160377238Y-86947809D01*
X160329619Y-87043047D01*
X160329619Y-87185904D01*
X160377238Y-87281142D01*
X160424857Y-87328761D01*
X160996285Y-87662095D02*
X160996285Y-88043047D01*
X160329619Y-87804952D02*
X161186761Y-87804952D01*
X161282000Y-87852571D01*
X161329619Y-87947809D01*
X161329619Y-88043047D01*
X160996285Y-88233523D02*
X160996285Y-88614476D01*
X160329619Y-88376380D02*
X161186761Y-88376380D01*
X161282000Y-88424000D01*
X161329619Y-88519238D01*
X161329619Y-88614476D01*
X160377238Y-89328761D02*
X160329619Y-89233523D01*
X160329619Y-89043047D01*
X160377238Y-88947809D01*
X160472476Y-88900190D01*
X160853428Y-88900190D01*
X160948666Y-88947809D01*
X160996285Y-89043047D01*
X160996285Y-89233523D01*
X160948666Y-89328761D01*
X160853428Y-89376380D01*
X160758190Y-89376380D01*
X160662952Y-88900190D01*
X160329619Y-89804952D02*
X160996285Y-89804952D01*
X160805809Y-89804952D02*
X160901047Y-89852571D01*
X160948666Y-89900190D01*
X160996285Y-89995428D01*
X160996285Y-90090666D01*
X160329619Y-91185904D02*
X161329619Y-91185904D01*
X160948666Y-91185904D02*
X160996285Y-91281142D01*
X160996285Y-91471619D01*
X160948666Y-91566857D01*
X160901047Y-91614476D01*
X160805809Y-91662095D01*
X160520095Y-91662095D01*
X160424857Y-91614476D01*
X160377238Y-91566857D01*
X160329619Y-91471619D01*
X160329619Y-91281142D01*
X160377238Y-91185904D01*
X160329619Y-92233523D02*
X160377238Y-92138285D01*
X160424857Y-92090666D01*
X160520095Y-92043047D01*
X160805809Y-92043047D01*
X160901047Y-92090666D01*
X160948666Y-92138285D01*
X160996285Y-92233523D01*
X160996285Y-92376380D01*
X160948666Y-92471619D01*
X160901047Y-92519238D01*
X160805809Y-92566857D01*
X160520095Y-92566857D01*
X160424857Y-92519238D01*
X160377238Y-92471619D01*
X160329619Y-92376380D01*
X160329619Y-92233523D01*
X160329619Y-93424000D02*
X160853428Y-93424000D01*
X160948666Y-93376380D01*
X160996285Y-93281142D01*
X160996285Y-93090666D01*
X160948666Y-92995428D01*
X160377238Y-93424000D02*
X160329619Y-93328761D01*
X160329619Y-93090666D01*
X160377238Y-92995428D01*
X160472476Y-92947809D01*
X160567714Y-92947809D01*
X160662952Y-92995428D01*
X160710571Y-93090666D01*
X160710571Y-93328761D01*
X160758190Y-93424000D01*
X160329619Y-93900190D02*
X160996285Y-93900190D01*
X160805809Y-93900190D02*
X160901047Y-93947809D01*
X160948666Y-93995428D01*
X160996285Y-94090666D01*
X160996285Y-94185904D01*
X160329619Y-94947809D02*
X161329619Y-94947809D01*
X160377238Y-94947809D02*
X160329619Y-94852571D01*
X160329619Y-94662095D01*
X160377238Y-94566857D01*
X160424857Y-94519238D01*
X160520095Y-94471619D01*
X160805809Y-94471619D01*
X160901047Y-94519238D01*
X160948666Y-94566857D01*
X160996285Y-94662095D01*
X160996285Y-94852571D01*
X160948666Y-94947809D01*
D11*
X143205200Y-76573380D02*
X154401520Y-76573380D01*
X154401520Y-76573380D02*
X154401520Y-83070700D01*
X154401520Y-83070700D02*
X154401520Y-84071460D01*
X154401520Y-84071460D02*
X143205200Y-84071460D01*
X143205200Y-84071460D02*
X143205200Y-83070700D01*
X143205200Y-83070700D02*
X143205200Y-76573380D01*
X154401520Y-83070700D02*
X143205200Y-83070700D01*
D12*
X145304000Y-103572000D02*
X143654000Y-103572000D01*
X143654000Y-103572000D02*
X143654000Y-129092000D01*
X143654000Y-129092000D02*
X148954000Y-129092000D01*
X148954000Y-129092000D02*
X148954000Y-103572000D01*
X148954000Y-103572000D02*
X147304000Y-103572000D01*
X147304000Y-103572000D02*
G75*
G02*
X145304000Y-103572000I-1000000J0D01*
G01*
X141184000Y-95536000D02*
X151424000Y-95536000D01*
X141184000Y-100177000D02*
X151424000Y-100177000D01*
X141184000Y-95536000D02*
X141184000Y-100177000D01*
X151424000Y-95536000D02*
X151424000Y-100177000D01*
X141184000Y-97046000D02*
X151424000Y-97046000D01*
X144454000Y-95536000D02*
X144454000Y-97046000D01*
X148155000Y-95536000D02*
X148155000Y-97046000D01*
X154626000Y-129092000D02*
X157286000Y-129092000D01*
X154626000Y-101092000D02*
X154626000Y-129092000D01*
X157286000Y-101092000D02*
X157286000Y-129092000D01*
X154626000Y-101092000D02*
X157286000Y-101092000D01*
X154626000Y-99822000D02*
X154626000Y-98492000D01*
X154626000Y-98492000D02*
X155956000Y-98492000D01*
X133798000Y-129198000D02*
X136458000Y-129198000D01*
X133798000Y-101198000D02*
X133798000Y-129198000D01*
X136458000Y-101198000D02*
X136458000Y-129198000D01*
X133798000Y-101198000D02*
X136458000Y-101198000D01*
X133798000Y-99928000D02*
X133798000Y-98598000D01*
X133798000Y-98598000D02*
X135128000Y-98598000D01*
X156818000Y-91186000D02*
G75*
G03*
X156818000Y-91186000I-2620000J0D01*
G01*
X154198000Y-93766000D02*
X154198000Y-88606000D01*
X154158000Y-93766000D02*
X154158000Y-88606000D01*
X154118000Y-93765000D02*
X154118000Y-88607000D01*
X154078000Y-93764000D02*
X154078000Y-88608000D01*
X154038000Y-93762000D02*
X154038000Y-88610000D01*
X153998000Y-93759000D02*
X153998000Y-88613000D01*
X153958000Y-93755000D02*
X153958000Y-92226000D01*
X153958000Y-90146000D02*
X153958000Y-88617000D01*
X153918000Y-93751000D02*
X153918000Y-92226000D01*
X153918000Y-90146000D02*
X153918000Y-88621000D01*
X153878000Y-93747000D02*
X153878000Y-92226000D01*
X153878000Y-90146000D02*
X153878000Y-88625000D01*
X153838000Y-93742000D02*
X153838000Y-92226000D01*
X153838000Y-90146000D02*
X153838000Y-88630000D01*
X153798000Y-93736000D02*
X153798000Y-92226000D01*
X153798000Y-90146000D02*
X153798000Y-88636000D01*
X153758000Y-93729000D02*
X153758000Y-92226000D01*
X153758000Y-90146000D02*
X153758000Y-88643000D01*
X153718000Y-93722000D02*
X153718000Y-92226000D01*
X153718000Y-90146000D02*
X153718000Y-88650000D01*
X153678000Y-93714000D02*
X153678000Y-92226000D01*
X153678000Y-90146000D02*
X153678000Y-88658000D01*
X153638000Y-93706000D02*
X153638000Y-92226000D01*
X153638000Y-90146000D02*
X153638000Y-88666000D01*
X153598000Y-93697000D02*
X153598000Y-92226000D01*
X153598000Y-90146000D02*
X153598000Y-88675000D01*
X153558000Y-93687000D02*
X153558000Y-92226000D01*
X153558000Y-90146000D02*
X153558000Y-88685000D01*
X153518000Y-93677000D02*
X153518000Y-92226000D01*
X153518000Y-90146000D02*
X153518000Y-88695000D01*
X153477000Y-93666000D02*
X153477000Y-92226000D01*
X153477000Y-90146000D02*
X153477000Y-88706000D01*
X153437000Y-93654000D02*
X153437000Y-92226000D01*
X153437000Y-90146000D02*
X153437000Y-88718000D01*
X153397000Y-93641000D02*
X153397000Y-92226000D01*
X153397000Y-90146000D02*
X153397000Y-88731000D01*
X153357000Y-93628000D02*
X153357000Y-92226000D01*
X153357000Y-90146000D02*
X153357000Y-88744000D01*
X153317000Y-93614000D02*
X153317000Y-92226000D01*
X153317000Y-90146000D02*
X153317000Y-88758000D01*
X153277000Y-93600000D02*
X153277000Y-92226000D01*
X153277000Y-90146000D02*
X153277000Y-88772000D01*
X153237000Y-93584000D02*
X153237000Y-92226000D01*
X153237000Y-90146000D02*
X153237000Y-88788000D01*
X153197000Y-93568000D02*
X153197000Y-92226000D01*
X153197000Y-90146000D02*
X153197000Y-88804000D01*
X153157000Y-93551000D02*
X153157000Y-92226000D01*
X153157000Y-90146000D02*
X153157000Y-88821000D01*
X153117000Y-93534000D02*
X153117000Y-92226000D01*
X153117000Y-90146000D02*
X153117000Y-88838000D01*
X153077000Y-93515000D02*
X153077000Y-92226000D01*
X153077000Y-90146000D02*
X153077000Y-88857000D01*
X153037000Y-93496000D02*
X153037000Y-92226000D01*
X153037000Y-90146000D02*
X153037000Y-88876000D01*
X152997000Y-93476000D02*
X152997000Y-92226000D01*
X152997000Y-90146000D02*
X152997000Y-88896000D01*
X152957000Y-93454000D02*
X152957000Y-92226000D01*
X152957000Y-90146000D02*
X152957000Y-88918000D01*
X152917000Y-93433000D02*
X152917000Y-92226000D01*
X152917000Y-90146000D02*
X152917000Y-88939000D01*
X152877000Y-93410000D02*
X152877000Y-92226000D01*
X152877000Y-90146000D02*
X152877000Y-88962000D01*
X152837000Y-93386000D02*
X152837000Y-92226000D01*
X152837000Y-90146000D02*
X152837000Y-88986000D01*
X152797000Y-93361000D02*
X152797000Y-92226000D01*
X152797000Y-90146000D02*
X152797000Y-89011000D01*
X152757000Y-93335000D02*
X152757000Y-92226000D01*
X152757000Y-90146000D02*
X152757000Y-89037000D01*
X152717000Y-93308000D02*
X152717000Y-92226000D01*
X152717000Y-90146000D02*
X152717000Y-89064000D01*
X152677000Y-93281000D02*
X152677000Y-92226000D01*
X152677000Y-90146000D02*
X152677000Y-89091000D01*
X152637000Y-93251000D02*
X152637000Y-92226000D01*
X152637000Y-90146000D02*
X152637000Y-89121000D01*
X152597000Y-93221000D02*
X152597000Y-92226000D01*
X152597000Y-90146000D02*
X152597000Y-89151000D01*
X152557000Y-93190000D02*
X152557000Y-92226000D01*
X152557000Y-90146000D02*
X152557000Y-89182000D01*
X152517000Y-93157000D02*
X152517000Y-92226000D01*
X152517000Y-90146000D02*
X152517000Y-89215000D01*
X152477000Y-93123000D02*
X152477000Y-92226000D01*
X152477000Y-90146000D02*
X152477000Y-89249000D01*
X152437000Y-93087000D02*
X152437000Y-92226000D01*
X152437000Y-90146000D02*
X152437000Y-89285000D01*
X152397000Y-93050000D02*
X152397000Y-92226000D01*
X152397000Y-90146000D02*
X152397000Y-89322000D01*
X152357000Y-93012000D02*
X152357000Y-92226000D01*
X152357000Y-90146000D02*
X152357000Y-89360000D01*
X152317000Y-92971000D02*
X152317000Y-92226000D01*
X152317000Y-90146000D02*
X152317000Y-89401000D01*
X152277000Y-92929000D02*
X152277000Y-92226000D01*
X152277000Y-90146000D02*
X152277000Y-89443000D01*
X152237000Y-92885000D02*
X152237000Y-92226000D01*
X152237000Y-90146000D02*
X152237000Y-89487000D01*
X152197000Y-92839000D02*
X152197000Y-92226000D01*
X152197000Y-90146000D02*
X152197000Y-89533000D01*
X152157000Y-92791000D02*
X152157000Y-92226000D01*
X152157000Y-90146000D02*
X152157000Y-89581000D01*
X152117000Y-92740000D02*
X152117000Y-92226000D01*
X152117000Y-90146000D02*
X152117000Y-89632000D01*
X152077000Y-92686000D02*
X152077000Y-92226000D01*
X152077000Y-90146000D02*
X152077000Y-89686000D01*
X152037000Y-92629000D02*
X152037000Y-92226000D01*
X152037000Y-90146000D02*
X152037000Y-89743000D01*
X151997000Y-92569000D02*
X151997000Y-92226000D01*
X151997000Y-90146000D02*
X151997000Y-89803000D01*
X151957000Y-92505000D02*
X151957000Y-92226000D01*
X151957000Y-90146000D02*
X151957000Y-89867000D01*
X151917000Y-92437000D02*
X151917000Y-92226000D01*
X151917000Y-90146000D02*
X151917000Y-89935000D01*
X151877000Y-92364000D02*
X151877000Y-90008000D01*
X151837000Y-92284000D02*
X151837000Y-90088000D01*
X151797000Y-92197000D02*
X151797000Y-90175000D01*
X151757000Y-92101000D02*
X151757000Y-90271000D01*
X151717000Y-91991000D02*
X151717000Y-90381000D01*
X151677000Y-91863000D02*
X151677000Y-90509000D01*
X151637000Y-91704000D02*
X151637000Y-90668000D01*
X151597000Y-91470000D02*
X151597000Y-90902000D01*
X157002775Y-92661000D02*
X156502775Y-92661000D01*
X156752775Y-92911000D02*
X156752775Y-92411000D01*
X143510000Y-87376000D02*
G75*
G03*
X143510000Y-87376000I-5120000J0D01*
G01*
X138390000Y-82296000D02*
X138390000Y-92456000D01*
X138430000Y-82296000D02*
X138430000Y-92456000D01*
X138470000Y-82296000D02*
X138470000Y-92456000D01*
X138510000Y-82297000D02*
X138510000Y-92455000D01*
X138550000Y-82298000D02*
X138550000Y-92454000D01*
X138590000Y-82299000D02*
X138590000Y-92453000D01*
X138630000Y-82301000D02*
X138630000Y-92451000D01*
X138670000Y-82303000D02*
X138670000Y-92449000D01*
X138710000Y-82306000D02*
X138710000Y-92446000D01*
X138750000Y-82308000D02*
X138750000Y-92444000D01*
X138790000Y-82311000D02*
X138790000Y-92441000D01*
X138830000Y-82314000D02*
X138830000Y-92438000D01*
X138870000Y-82318000D02*
X138870000Y-92434000D01*
X138910000Y-82322000D02*
X138910000Y-92430000D01*
X138950000Y-82326000D02*
X138950000Y-92426000D01*
X138990000Y-82331000D02*
X138990000Y-92421000D01*
X139030000Y-82336000D02*
X139030000Y-92416000D01*
X139070000Y-82341000D02*
X139070000Y-92411000D01*
X139111000Y-82346000D02*
X139111000Y-92406000D01*
X139151000Y-82352000D02*
X139151000Y-92400000D01*
X139191000Y-82358000D02*
X139191000Y-92394000D01*
X139231000Y-82365000D02*
X139231000Y-92387000D01*
X139271000Y-82372000D02*
X139271000Y-92380000D01*
X139311000Y-82379000D02*
X139311000Y-92373000D01*
X139351000Y-82386000D02*
X139351000Y-92366000D01*
X139391000Y-82394000D02*
X139391000Y-92358000D01*
X139431000Y-82402000D02*
X139431000Y-92350000D01*
X139471000Y-82411000D02*
X139471000Y-92341000D01*
X139511000Y-82420000D02*
X139511000Y-92332000D01*
X139551000Y-82429000D02*
X139551000Y-92323000D01*
X139591000Y-82438000D02*
X139591000Y-92314000D01*
X139631000Y-82448000D02*
X139631000Y-92304000D01*
X139671000Y-82458000D02*
X139671000Y-86135000D01*
X139671000Y-88617000D02*
X139671000Y-92294000D01*
X139711000Y-82469000D02*
X139711000Y-86135000D01*
X139711000Y-88617000D02*
X139711000Y-92283000D01*
X139751000Y-82479000D02*
X139751000Y-86135000D01*
X139751000Y-88617000D02*
X139751000Y-92273000D01*
X139791000Y-82491000D02*
X139791000Y-86135000D01*
X139791000Y-88617000D02*
X139791000Y-92261000D01*
X139831000Y-82502000D02*
X139831000Y-86135000D01*
X139831000Y-88617000D02*
X139831000Y-92250000D01*
X139871000Y-82514000D02*
X139871000Y-86135000D01*
X139871000Y-88617000D02*
X139871000Y-92238000D01*
X139911000Y-82526000D02*
X139911000Y-86135000D01*
X139911000Y-88617000D02*
X139911000Y-92226000D01*
X139951000Y-82539000D02*
X139951000Y-86135000D01*
X139951000Y-88617000D02*
X139951000Y-92213000D01*
X139991000Y-82552000D02*
X139991000Y-86135000D01*
X139991000Y-88617000D02*
X139991000Y-92200000D01*
X140031000Y-82565000D02*
X140031000Y-86135000D01*
X140031000Y-88617000D02*
X140031000Y-92187000D01*
X140071000Y-82579000D02*
X140071000Y-86135000D01*
X140071000Y-88617000D02*
X140071000Y-92173000D01*
X140111000Y-82593000D02*
X140111000Y-86135000D01*
X140111000Y-88617000D02*
X140111000Y-92159000D01*
X140151000Y-82608000D02*
X140151000Y-86135000D01*
X140151000Y-88617000D02*
X140151000Y-92144000D01*
X140191000Y-82622000D02*
X140191000Y-86135000D01*
X140191000Y-88617000D02*
X140191000Y-92130000D01*
X140231000Y-82638000D02*
X140231000Y-86135000D01*
X140231000Y-88617000D02*
X140231000Y-92114000D01*
X140271000Y-82653000D02*
X140271000Y-86135000D01*
X140271000Y-88617000D02*
X140271000Y-92099000D01*
X140311000Y-82669000D02*
X140311000Y-86135000D01*
X140311000Y-88617000D02*
X140311000Y-92083000D01*
X140351000Y-82686000D02*
X140351000Y-86135000D01*
X140351000Y-88617000D02*
X140351000Y-92066000D01*
X140391000Y-82702000D02*
X140391000Y-86135000D01*
X140391000Y-88617000D02*
X140391000Y-92050000D01*
X140431000Y-82719000D02*
X140431000Y-86135000D01*
X140431000Y-88617000D02*
X140431000Y-92033000D01*
X140471000Y-82737000D02*
X140471000Y-86135000D01*
X140471000Y-88617000D02*
X140471000Y-92015000D01*
X140511000Y-82755000D02*
X140511000Y-86135000D01*
X140511000Y-88617000D02*
X140511000Y-91997000D01*
X140551000Y-82773000D02*
X140551000Y-86135000D01*
X140551000Y-88617000D02*
X140551000Y-91979000D01*
X140591000Y-82792000D02*
X140591000Y-86135000D01*
X140591000Y-88617000D02*
X140591000Y-91960000D01*
X140631000Y-82812000D02*
X140631000Y-86135000D01*
X140631000Y-88617000D02*
X140631000Y-91940000D01*
X140671000Y-82831000D02*
X140671000Y-86135000D01*
X140671000Y-88617000D02*
X140671000Y-91921000D01*
X140711000Y-82851000D02*
X140711000Y-86135000D01*
X140711000Y-88617000D02*
X140711000Y-91901000D01*
X140751000Y-82872000D02*
X140751000Y-86135000D01*
X140751000Y-88617000D02*
X140751000Y-91880000D01*
X140791000Y-82893000D02*
X140791000Y-86135000D01*
X140791000Y-88617000D02*
X140791000Y-91859000D01*
X140831000Y-82914000D02*
X140831000Y-86135000D01*
X140831000Y-88617000D02*
X140831000Y-91838000D01*
X140871000Y-82936000D02*
X140871000Y-86135000D01*
X140871000Y-88617000D02*
X140871000Y-91816000D01*
X140911000Y-82959000D02*
X140911000Y-86135000D01*
X140911000Y-88617000D02*
X140911000Y-91793000D01*
X140951000Y-82981000D02*
X140951000Y-86135000D01*
X140951000Y-88617000D02*
X140951000Y-91771000D01*
X140991000Y-83005000D02*
X140991000Y-86135000D01*
X140991000Y-88617000D02*
X140991000Y-91747000D01*
X141031000Y-83029000D02*
X141031000Y-86135000D01*
X141031000Y-88617000D02*
X141031000Y-91723000D01*
X141071000Y-83053000D02*
X141071000Y-86135000D01*
X141071000Y-88617000D02*
X141071000Y-91699000D01*
X141111000Y-83078000D02*
X141111000Y-86135000D01*
X141111000Y-88617000D02*
X141111000Y-91674000D01*
X141151000Y-83103000D02*
X141151000Y-86135000D01*
X141151000Y-88617000D02*
X141151000Y-91649000D01*
X141191000Y-83129000D02*
X141191000Y-86135000D01*
X141191000Y-88617000D02*
X141191000Y-91623000D01*
X141231000Y-83155000D02*
X141231000Y-86135000D01*
X141231000Y-88617000D02*
X141231000Y-91597000D01*
X141271000Y-83182000D02*
X141271000Y-86135000D01*
X141271000Y-88617000D02*
X141271000Y-91570000D01*
X141311000Y-83210000D02*
X141311000Y-86135000D01*
X141311000Y-88617000D02*
X141311000Y-91542000D01*
X141351000Y-83238000D02*
X141351000Y-86135000D01*
X141351000Y-88617000D02*
X141351000Y-91514000D01*
X141391000Y-83266000D02*
X141391000Y-86135000D01*
X141391000Y-88617000D02*
X141391000Y-91486000D01*
X141431000Y-83296000D02*
X141431000Y-86135000D01*
X141431000Y-88617000D02*
X141431000Y-91456000D01*
X141471000Y-83326000D02*
X141471000Y-86135000D01*
X141471000Y-88617000D02*
X141471000Y-91426000D01*
X141511000Y-83356000D02*
X141511000Y-86135000D01*
X141511000Y-88617000D02*
X141511000Y-91396000D01*
X141551000Y-83387000D02*
X141551000Y-86135000D01*
X141551000Y-88617000D02*
X141551000Y-91365000D01*
X141591000Y-83419000D02*
X141591000Y-86135000D01*
X141591000Y-88617000D02*
X141591000Y-91333000D01*
X141631000Y-83451000D02*
X141631000Y-86135000D01*
X141631000Y-88617000D02*
X141631000Y-91301000D01*
X141671000Y-83484000D02*
X141671000Y-86135000D01*
X141671000Y-88617000D02*
X141671000Y-91268000D01*
X141711000Y-83518000D02*
X141711000Y-86135000D01*
X141711000Y-88617000D02*
X141711000Y-91234000D01*
X141751000Y-83552000D02*
X141751000Y-86135000D01*
X141751000Y-88617000D02*
X141751000Y-91200000D01*
X141791000Y-83587000D02*
X141791000Y-86135000D01*
X141791000Y-88617000D02*
X141791000Y-91165000D01*
X141831000Y-83623000D02*
X141831000Y-86135000D01*
X141831000Y-88617000D02*
X141831000Y-91129000D01*
X141871000Y-83660000D02*
X141871000Y-86135000D01*
X141871000Y-88617000D02*
X141871000Y-91092000D01*
X141911000Y-83697000D02*
X141911000Y-86135000D01*
X141911000Y-88617000D02*
X141911000Y-91055000D01*
X141951000Y-83736000D02*
X141951000Y-86135000D01*
X141951000Y-88617000D02*
X141951000Y-91016000D01*
X141991000Y-83775000D02*
X141991000Y-86135000D01*
X141991000Y-88617000D02*
X141991000Y-90977000D01*
X142031000Y-83815000D02*
X142031000Y-86135000D01*
X142031000Y-88617000D02*
X142031000Y-90937000D01*
X142071000Y-83856000D02*
X142071000Y-86135000D01*
X142071000Y-88617000D02*
X142071000Y-90896000D01*
X142111000Y-83898000D02*
X142111000Y-86135000D01*
X142111000Y-88617000D02*
X142111000Y-90854000D01*
X142151000Y-83940000D02*
X142151000Y-90812000D01*
X142191000Y-83984000D02*
X142191000Y-90768000D01*
X142231000Y-84029000D02*
X142231000Y-90723000D01*
X142271000Y-84075000D02*
X142271000Y-90677000D01*
X142311000Y-84122000D02*
X142311000Y-90630000D01*
X142351000Y-84170000D02*
X142351000Y-90582000D01*
X142391000Y-84220000D02*
X142391000Y-90532000D01*
X142431000Y-84270000D02*
X142431000Y-90482000D01*
X142471000Y-84322000D02*
X142471000Y-90430000D01*
X142511000Y-84376000D02*
X142511000Y-90376000D01*
X142551000Y-84431000D02*
X142551000Y-90321000D01*
X142591000Y-84487000D02*
X142591000Y-90265000D01*
X142631000Y-84546000D02*
X142631000Y-90206000D01*
X142671000Y-84606000D02*
X142671000Y-90146000D01*
X142711000Y-84667000D02*
X142711000Y-90085000D01*
X142751000Y-84731000D02*
X142751000Y-90021000D01*
X142791000Y-84797000D02*
X142791000Y-89955000D01*
X142831000Y-84866000D02*
X142831000Y-89886000D01*
X142871000Y-84937000D02*
X142871000Y-89815000D01*
X142911000Y-85011000D02*
X142911000Y-89741000D01*
X142951000Y-85087000D02*
X142951000Y-89665000D01*
X142991000Y-85167000D02*
X142991000Y-89585000D01*
X143031000Y-85251000D02*
X143031000Y-89501000D01*
X143071000Y-85339000D02*
X143071000Y-89413000D01*
X143111000Y-85432000D02*
X143111000Y-89320000D01*
X143151000Y-85530000D02*
X143151000Y-89222000D01*
X143191000Y-85634000D02*
X143191000Y-89118000D01*
X143231000Y-85746000D02*
X143231000Y-89006000D01*
X143271000Y-85866000D02*
X143271000Y-88886000D01*
X143311000Y-85998000D02*
X143311000Y-88754000D01*
X143351000Y-86146000D02*
X143351000Y-88606000D01*
X143391000Y-86314000D02*
X143391000Y-88438000D01*
X143431000Y-86514000D02*
X143431000Y-88238000D01*
X143471000Y-86777000D02*
X143471000Y-87975000D01*
X132910354Y-84501000D02*
X133910354Y-84501000D01*
X133410354Y-84001000D02*
X133410354Y-85001000D01*
D13*
X142036800Y-79422171D02*
X142036800Y-79857600D01*
X142007771Y-79944685D01*
X141949714Y-80002742D01*
X141862628Y-80031771D01*
X141804571Y-80031771D01*
X142298057Y-79480228D02*
X142327085Y-79451200D01*
X142385142Y-79422171D01*
X142530285Y-79422171D01*
X142588342Y-79451200D01*
X142617371Y-79480228D01*
X142646400Y-79538285D01*
X142646400Y-79596342D01*
X142617371Y-79683428D01*
X142269028Y-80031771D01*
X142646400Y-80031771D01*
X144402628Y-84984771D02*
X144402628Y-84375171D01*
X144634857Y-84375171D01*
X144692914Y-84404200D01*
X144721942Y-84433228D01*
X144750971Y-84491285D01*
X144750971Y-84578371D01*
X144721942Y-84636428D01*
X144692914Y-84665457D01*
X144634857Y-84694485D01*
X144402628Y-84694485D01*
X145099314Y-84984771D02*
X145041257Y-84955742D01*
X145012228Y-84926714D01*
X144983200Y-84868657D01*
X144983200Y-84694485D01*
X145012228Y-84636428D01*
X145041257Y-84607400D01*
X145099314Y-84578371D01*
X145186400Y-84578371D01*
X145244457Y-84607400D01*
X145273485Y-84636428D01*
X145302514Y-84694485D01*
X145302514Y-84868657D01*
X145273485Y-84926714D01*
X145244457Y-84955742D01*
X145186400Y-84984771D01*
X145099314Y-84984771D01*
X145505714Y-84578371D02*
X145621828Y-84984771D01*
X145737942Y-84694485D01*
X145854057Y-84984771D01*
X145970171Y-84578371D01*
X146434628Y-84955742D02*
X146376571Y-84984771D01*
X146260457Y-84984771D01*
X146202400Y-84955742D01*
X146173371Y-84897685D01*
X146173371Y-84665457D01*
X146202400Y-84607400D01*
X146260457Y-84578371D01*
X146376571Y-84578371D01*
X146434628Y-84607400D01*
X146463657Y-84665457D01*
X146463657Y-84723514D01*
X146173371Y-84781571D01*
X146724914Y-84984771D02*
X146724914Y-84578371D01*
X146724914Y-84694485D02*
X146753942Y-84636428D01*
X146782971Y-84607400D01*
X146841028Y-84578371D01*
X146899085Y-84578371D01*
X147566742Y-84984771D02*
X147566742Y-84375171D01*
X147857028Y-84984771D02*
X147857028Y-84375171D01*
X148205371Y-84984771D01*
X148205371Y-84375171D01*
D10*
X145542095Y-102024380D02*
X145542095Y-102833904D01*
X145589714Y-102929142D01*
X145637333Y-102976761D01*
X145732571Y-103024380D01*
X145923047Y-103024380D01*
X146018285Y-102976761D01*
X146065904Y-102929142D01*
X146113523Y-102833904D01*
X146113523Y-102024380D01*
X146542095Y-102119619D02*
X146589714Y-102072000D01*
X146684952Y-102024380D01*
X146923047Y-102024380D01*
X147018285Y-102072000D01*
X147065904Y-102119619D01*
X147113523Y-102214857D01*
X147113523Y-102310095D01*
X147065904Y-102452952D01*
X146494476Y-103024380D01*
X147113523Y-103024380D01*
X145542095Y-93988380D02*
X145542095Y-94797904D01*
X145589714Y-94893142D01*
X145637333Y-94940761D01*
X145732571Y-94988380D01*
X145923047Y-94988380D01*
X146018285Y-94940761D01*
X146065904Y-94893142D01*
X146113523Y-94797904D01*
X146113523Y-93988380D01*
X147113523Y-94988380D02*
X146542095Y-94988380D01*
X146827809Y-94988380D02*
X146827809Y-93988380D01*
X146732571Y-94131238D01*
X146637333Y-94226476D01*
X146542095Y-94274095D01*
X155622666Y-96944380D02*
X155622666Y-97658666D01*
X155575047Y-97801523D01*
X155479809Y-97896761D01*
X155336952Y-97944380D01*
X155241714Y-97944380D01*
X156003619Y-96944380D02*
X156622666Y-96944380D01*
X156289333Y-97325333D01*
X156432190Y-97325333D01*
X156527428Y-97372952D01*
X156575047Y-97420571D01*
X156622666Y-97515809D01*
X156622666Y-97753904D01*
X156575047Y-97849142D01*
X156527428Y-97896761D01*
X156432190Y-97944380D01*
X156146476Y-97944380D01*
X156051238Y-97896761D01*
X156003619Y-97849142D01*
X134794666Y-97050380D02*
X134794666Y-97764666D01*
X134747047Y-97907523D01*
X134651809Y-98002761D01*
X134508952Y-98050380D01*
X134413714Y-98050380D01*
X135794666Y-98050380D02*
X135223238Y-98050380D01*
X135508952Y-98050380D02*
X135508952Y-97050380D01*
X135413714Y-97193238D01*
X135318476Y-97288476D01*
X135223238Y-97336095D01*
X154031333Y-95293142D02*
X153983714Y-95340761D01*
X153840857Y-95388380D01*
X153745619Y-95388380D01*
X153602761Y-95340761D01*
X153507523Y-95245523D01*
X153459904Y-95150285D01*
X153412285Y-94959809D01*
X153412285Y-94816952D01*
X153459904Y-94626476D01*
X153507523Y-94531238D01*
X153602761Y-94436000D01*
X153745619Y-94388380D01*
X153840857Y-94388380D01*
X153983714Y-94436000D01*
X154031333Y-94483619D01*
X154412285Y-94483619D02*
X154459904Y-94436000D01*
X154555142Y-94388380D01*
X154793238Y-94388380D01*
X154888476Y-94436000D01*
X154936095Y-94483619D01*
X154983714Y-94578857D01*
X154983714Y-94674095D01*
X154936095Y-94816952D01*
X154364666Y-95388380D01*
X154983714Y-95388380D01*
X138223333Y-81483142D02*
X138175714Y-81530761D01*
X138032857Y-81578380D01*
X137937619Y-81578380D01*
X137794761Y-81530761D01*
X137699523Y-81435523D01*
X137651904Y-81340285D01*
X137604285Y-81149809D01*
X137604285Y-81006952D01*
X137651904Y-80816476D01*
X137699523Y-80721238D01*
X137794761Y-80626000D01*
X137937619Y-80578380D01*
X138032857Y-80578380D01*
X138175714Y-80626000D01*
X138223333Y-80673619D01*
X139175714Y-81578380D02*
X138604285Y-81578380D01*
X138890000Y-81578380D02*
X138890000Y-80578380D01*
X138794761Y-80721238D01*
X138699523Y-80816476D01*
X138604285Y-80864095D01*
%LPC*%
D14*
X160274000Y-132080000D03*
X160274000Y-79756000D03*
X130810000Y-132080000D03*
X130810000Y-79756000D03*
D15*
X151302720Y-80772000D03*
G36*
G01*
X145186400Y-81788000D02*
X145186400Y-79756000D01*
G75*
G02*
X145288000Y-79654400I101600J0D01*
G01*
X147320000Y-79654400D01*
G75*
G02*
X147421600Y-79756000I0J-101600D01*
G01*
X147421600Y-81788000D01*
G75*
G02*
X147320000Y-81889600I-101600J0D01*
G01*
X145288000Y-81889600D01*
G75*
G02*
X145186400Y-81788000I0J101600D01*
G01*
G37*
D16*
X150114000Y-104902000D03*
X142494000Y-127762000D03*
X150114000Y-107442000D03*
X142494000Y-125222000D03*
X150114000Y-109982000D03*
X142494000Y-122682000D03*
X150114000Y-112522000D03*
X142494000Y-120142000D03*
X150114000Y-115062000D03*
X142494000Y-117602000D03*
X150114000Y-117602000D03*
X142494000Y-115062000D03*
X150114000Y-120142000D03*
X142494000Y-112522000D03*
X150114000Y-122682000D03*
X142494000Y-109982000D03*
X150114000Y-125222000D03*
X142494000Y-107442000D03*
X150114000Y-127762000D03*
D17*
X142494000Y-104902000D03*
D18*
X148844000Y-98806000D03*
X146304000Y-98806000D03*
D19*
X143764000Y-98806000D03*
D20*
X155956000Y-127762000D03*
X155956000Y-125222000D03*
X155956000Y-122682000D03*
X155956000Y-120142000D03*
X155956000Y-117602000D03*
X155956000Y-115062000D03*
X155956000Y-112522000D03*
X155956000Y-109982000D03*
X155956000Y-107442000D03*
X155956000Y-104902000D03*
X155956000Y-102362000D03*
D21*
X155956000Y-99822000D03*
D20*
X135128000Y-127868000D03*
X135128000Y-125328000D03*
X135128000Y-122788000D03*
X135128000Y-120248000D03*
X135128000Y-117708000D03*
X135128000Y-115168000D03*
X135128000Y-112628000D03*
X135128000Y-110088000D03*
X135128000Y-107548000D03*
X135128000Y-105008000D03*
X135128000Y-102468000D03*
D21*
X135128000Y-99928000D03*
D22*
X152948000Y-91186000D03*
D17*
X155448000Y-91186000D03*
D23*
X140890000Y-87376000D03*
D24*
X135890000Y-87376000D03*
M02*
