%FSLAX45Y45*%
G04 Gerber Fmt 4.5, Leading zero omitted, Abs format (unit mm)*
G04 Created by KiCad (PCBNEW 5.1.10-1.fc34) date 2021-08-21 17:03:26*
%MOMM*%
%LPD*%
G01*
G04 APERTURE LIST*
%TA.AperFunction,Profile*%
%ADD10C,0.150000*%
%TD*%
%ADD11C,0.200000*%
%ADD12C,0.300000*%
G04 APERTURE END LIST*
D10*
X12725400Y-13563600D02*
X12725400Y-7620000D01*
X16383000Y-13563600D02*
X12725400Y-13563600D01*
X16383000Y-7620000D02*
X16383000Y-13563600D01*
X12725400Y-7620000D02*
X16383000Y-7620000D01*
D11*
X12921000Y-7815600D02*
X13241000Y-8135600D01*
X13241000Y-7815600D02*
X12921000Y-8135600D01*
X12921000Y-13048000D02*
X13241000Y-13368000D01*
X13241000Y-13048000D02*
X12921000Y-13368000D01*
X15867400Y-7815600D02*
X16187400Y-8135600D01*
X16187400Y-7815600D02*
X15867400Y-8135600D01*
X15867400Y-13048000D02*
X16187400Y-13368000D01*
X16187400Y-13048000D02*
X15867400Y-13368000D01*
D12*
X13004328Y-14036814D02*
X13004328Y-13736814D01*
X13075757Y-13736814D01*
X13118614Y-13751100D01*
X13147186Y-13779671D01*
X13161471Y-13808243D01*
X13175757Y-13865386D01*
X13175757Y-13908243D01*
X13161471Y-13965386D01*
X13147186Y-13993957D01*
X13118614Y-14022529D01*
X13075757Y-14036814D01*
X13004328Y-14036814D01*
X13304328Y-14036814D02*
X13304328Y-13836814D01*
X13304328Y-13893957D02*
X13318614Y-13865386D01*
X13332900Y-13851100D01*
X13361471Y-13836814D01*
X13390043Y-13836814D01*
X13490043Y-14036814D02*
X13490043Y-13836814D01*
X13490043Y-13736814D02*
X13475757Y-13751100D01*
X13490043Y-13765386D01*
X13504328Y-13751100D01*
X13490043Y-13736814D01*
X13490043Y-13765386D01*
X13675757Y-14036814D02*
X13647186Y-14022529D01*
X13632900Y-13993957D01*
X13632900Y-13736814D01*
X13832900Y-14036814D02*
X13804328Y-14022529D01*
X13790043Y-13993957D01*
X13790043Y-13736814D01*
X14175757Y-14036814D02*
X14175757Y-13736814D01*
X14275757Y-13951100D01*
X14375757Y-13736814D01*
X14375757Y-14036814D01*
X14647186Y-14036814D02*
X14647186Y-13879671D01*
X14632900Y-13851100D01*
X14604328Y-13836814D01*
X14547186Y-13836814D01*
X14518614Y-13851100D01*
X14647186Y-14022529D02*
X14618614Y-14036814D01*
X14547186Y-14036814D01*
X14518614Y-14022529D01*
X14504328Y-13993957D01*
X14504328Y-13965386D01*
X14518614Y-13936814D01*
X14547186Y-13922529D01*
X14618614Y-13922529D01*
X14647186Y-13908243D01*
X14790043Y-13836814D02*
X14790043Y-14136814D01*
X14790043Y-13851100D02*
X14818614Y-13836814D01*
X14875757Y-13836814D01*
X14904328Y-13851100D01*
X14918614Y-13865386D01*
X14932900Y-13893957D01*
X14932900Y-13979671D01*
X14918614Y-14008243D01*
X14904328Y-14022529D01*
X14875757Y-14036814D01*
X14818614Y-14036814D01*
X14790043Y-14022529D01*
X15061471Y-14008243D02*
X15075757Y-14022529D01*
X15061471Y-14036814D01*
X15047186Y-14022529D01*
X15061471Y-14008243D01*
X15061471Y-14036814D01*
X15061471Y-13851100D02*
X15075757Y-13865386D01*
X15061471Y-13879671D01*
X15047186Y-13865386D01*
X15061471Y-13851100D01*
X15061471Y-13879671D01*
X12397900Y-14371100D02*
X12717900Y-14691100D01*
X12717900Y-14371100D02*
X12397900Y-14691100D01*
X12975757Y-14366814D02*
X13161471Y-14366814D01*
X13061471Y-14481100D01*
X13104328Y-14481100D01*
X13132900Y-14495386D01*
X13147186Y-14509671D01*
X13161471Y-14538243D01*
X13161471Y-14609671D01*
X13147186Y-14638243D01*
X13132900Y-14652529D01*
X13104328Y-14666814D01*
X13018614Y-14666814D01*
X12990043Y-14652529D01*
X12975757Y-14638243D01*
X13290043Y-14638243D02*
X13304328Y-14652529D01*
X13290043Y-14666814D01*
X13275757Y-14652529D01*
X13290043Y-14638243D01*
X13290043Y-14666814D01*
X13418614Y-14395386D02*
X13432900Y-14381100D01*
X13461471Y-14366814D01*
X13532900Y-14366814D01*
X13561471Y-14381100D01*
X13575757Y-14395386D01*
X13590043Y-14423957D01*
X13590043Y-14452529D01*
X13575757Y-14495386D01*
X13404328Y-14666814D01*
X13590043Y-14666814D01*
X13775757Y-14366814D02*
X13804328Y-14366814D01*
X13832900Y-14381100D01*
X13847186Y-14395386D01*
X13861471Y-14423957D01*
X13875757Y-14481100D01*
X13875757Y-14552529D01*
X13861471Y-14609671D01*
X13847186Y-14638243D01*
X13832900Y-14652529D01*
X13804328Y-14666814D01*
X13775757Y-14666814D01*
X13747186Y-14652529D01*
X13732900Y-14638243D01*
X13718614Y-14609671D01*
X13704328Y-14552529D01*
X13704328Y-14481100D01*
X13718614Y-14423957D01*
X13732900Y-14395386D01*
X13747186Y-14381100D01*
X13775757Y-14366814D01*
X14061471Y-14366814D02*
X14090043Y-14366814D01*
X14118614Y-14381100D01*
X14132900Y-14395386D01*
X14147186Y-14423957D01*
X14161471Y-14481100D01*
X14161471Y-14552529D01*
X14147186Y-14609671D01*
X14132900Y-14638243D01*
X14118614Y-14652529D01*
X14090043Y-14666814D01*
X14061471Y-14666814D01*
X14032900Y-14652529D01*
X14018614Y-14638243D01*
X14004328Y-14609671D01*
X13990043Y-14552529D01*
X13990043Y-14481100D01*
X14004328Y-14423957D01*
X14018614Y-14395386D01*
X14032900Y-14381100D01*
X14061471Y-14366814D01*
X14290043Y-14666814D02*
X14290043Y-14466814D01*
X14290043Y-14495386D02*
X14304328Y-14481100D01*
X14332900Y-14466814D01*
X14375757Y-14466814D01*
X14404328Y-14481100D01*
X14418614Y-14509671D01*
X14418614Y-14666814D01*
X14418614Y-14509671D02*
X14432900Y-14481100D01*
X14461471Y-14466814D01*
X14504328Y-14466814D01*
X14532900Y-14481100D01*
X14547186Y-14509671D01*
X14547186Y-14666814D01*
X14690043Y-14666814D02*
X14690043Y-14466814D01*
X14690043Y-14495386D02*
X14704328Y-14481100D01*
X14732900Y-14466814D01*
X14775757Y-14466814D01*
X14804328Y-14481100D01*
X14818614Y-14509671D01*
X14818614Y-14666814D01*
X14818614Y-14509671D02*
X14832900Y-14481100D01*
X14861471Y-14466814D01*
X14904328Y-14466814D01*
X14932900Y-14481100D01*
X14947186Y-14509671D01*
X14947186Y-14666814D01*
X15532900Y-14352529D02*
X15275757Y-14738243D01*
X15918614Y-14366814D02*
X15947186Y-14366814D01*
X15975757Y-14381100D01*
X15990043Y-14395386D01*
X16004328Y-14423957D01*
X16018614Y-14481100D01*
X16018614Y-14552529D01*
X16004328Y-14609671D01*
X15990043Y-14638243D01*
X15975757Y-14652529D01*
X15947186Y-14666814D01*
X15918614Y-14666814D01*
X15890043Y-14652529D01*
X15875757Y-14638243D01*
X15861471Y-14609671D01*
X15847186Y-14552529D01*
X15847186Y-14481100D01*
X15861471Y-14423957D01*
X15875757Y-14395386D01*
X15890043Y-14381100D01*
X15918614Y-14366814D01*
X16147186Y-14638243D02*
X16161471Y-14652529D01*
X16147186Y-14666814D01*
X16132900Y-14652529D01*
X16147186Y-14638243D01*
X16147186Y-14666814D01*
X16447186Y-14666814D02*
X16275757Y-14666814D01*
X16361471Y-14666814D02*
X16361471Y-14366814D01*
X16332900Y-14409671D01*
X16304328Y-14438243D01*
X16275757Y-14452529D01*
X16561471Y-14395386D02*
X16575757Y-14381100D01*
X16604328Y-14366814D01*
X16675757Y-14366814D01*
X16704328Y-14381100D01*
X16718614Y-14395386D01*
X16732900Y-14423957D01*
X16732900Y-14452529D01*
X16718614Y-14495386D01*
X16547186Y-14666814D01*
X16732900Y-14666814D01*
X16990043Y-14366814D02*
X16932900Y-14366814D01*
X16904328Y-14381100D01*
X16890043Y-14395386D01*
X16861471Y-14438243D01*
X16847186Y-14495386D01*
X16847186Y-14609671D01*
X16861471Y-14638243D01*
X16875757Y-14652529D01*
X16904328Y-14666814D01*
X16961471Y-14666814D01*
X16990043Y-14652529D01*
X17004328Y-14638243D01*
X17018614Y-14609671D01*
X17018614Y-14538243D01*
X17004328Y-14509671D01*
X16990043Y-14495386D01*
X16961471Y-14481100D01*
X16904328Y-14481100D01*
X16875757Y-14495386D01*
X16861471Y-14509671D01*
X16847186Y-14538243D01*
X17204328Y-14366814D02*
X17232900Y-14366814D01*
X17261471Y-14381100D01*
X17275757Y-14395386D01*
X17290043Y-14423957D01*
X17304328Y-14481100D01*
X17304328Y-14552529D01*
X17290043Y-14609671D01*
X17275757Y-14638243D01*
X17261471Y-14652529D01*
X17232900Y-14666814D01*
X17204328Y-14666814D01*
X17175757Y-14652529D01*
X17161471Y-14638243D01*
X17147186Y-14609671D01*
X17132900Y-14552529D01*
X17132900Y-14481100D01*
X17147186Y-14423957D01*
X17161471Y-14395386D01*
X17175757Y-14381100D01*
X17204328Y-14366814D01*
X17418614Y-14366814D02*
X17418614Y-14423957D01*
X17532900Y-14366814D02*
X17532900Y-14423957D01*
X17975757Y-14781100D02*
X17961471Y-14766814D01*
X17932900Y-14723957D01*
X17918614Y-14695386D01*
X17904328Y-14652529D01*
X17890043Y-14581100D01*
X17890043Y-14523957D01*
X17904328Y-14452529D01*
X17918614Y-14409671D01*
X17932900Y-14381100D01*
X17961471Y-14338243D01*
X17975757Y-14323957D01*
X18218614Y-14466814D02*
X18218614Y-14666814D01*
X18147186Y-14352529D02*
X18075757Y-14566814D01*
X18261471Y-14566814D01*
X18604328Y-14666814D02*
X18604328Y-14366814D01*
X18732900Y-14666814D02*
X18732900Y-14509671D01*
X18718614Y-14481100D01*
X18690043Y-14466814D01*
X18647186Y-14466814D01*
X18618614Y-14481100D01*
X18604328Y-14495386D01*
X18918614Y-14666814D02*
X18890043Y-14652529D01*
X18875757Y-14638243D01*
X18861471Y-14609671D01*
X18861471Y-14523957D01*
X18875757Y-14495386D01*
X18890043Y-14481100D01*
X18918614Y-14466814D01*
X18961471Y-14466814D01*
X18990043Y-14481100D01*
X19004328Y-14495386D01*
X19018614Y-14523957D01*
X19018614Y-14609671D01*
X19004328Y-14638243D01*
X18990043Y-14652529D01*
X18961471Y-14666814D01*
X18918614Y-14666814D01*
X19190043Y-14666814D02*
X19161471Y-14652529D01*
X19147186Y-14623957D01*
X19147186Y-14366814D01*
X19418614Y-14652529D02*
X19390043Y-14666814D01*
X19332900Y-14666814D01*
X19304328Y-14652529D01*
X19290043Y-14623957D01*
X19290043Y-14509671D01*
X19304328Y-14481100D01*
X19332900Y-14466814D01*
X19390043Y-14466814D01*
X19418614Y-14481100D01*
X19432900Y-14509671D01*
X19432900Y-14538243D01*
X19290043Y-14566814D01*
X19547186Y-14652529D02*
X19575757Y-14666814D01*
X19632900Y-14666814D01*
X19661471Y-14652529D01*
X19675757Y-14623957D01*
X19675757Y-14609671D01*
X19661471Y-14581100D01*
X19632900Y-14566814D01*
X19590043Y-14566814D01*
X19561471Y-14552529D01*
X19547186Y-14523957D01*
X19547186Y-14509671D01*
X19561471Y-14481100D01*
X19590043Y-14466814D01*
X19632900Y-14466814D01*
X19661471Y-14481100D01*
X19775757Y-14781100D02*
X19790043Y-14766814D01*
X19818614Y-14723957D01*
X19832900Y-14695386D01*
X19847186Y-14652529D01*
X19861471Y-14581100D01*
X19861471Y-14523957D01*
X19847186Y-14452529D01*
X19832900Y-14409671D01*
X19818614Y-14381100D01*
X19790043Y-14338243D01*
X19775757Y-14323957D01*
X20318614Y-14781100D02*
X20304328Y-14766814D01*
X20275757Y-14723957D01*
X20261471Y-14695386D01*
X20247186Y-14652529D01*
X20232900Y-14581100D01*
X20232900Y-14523957D01*
X20247186Y-14452529D01*
X20261471Y-14409671D01*
X20275757Y-14381100D01*
X20304328Y-14338243D01*
X20318614Y-14323957D01*
X20432900Y-14466814D02*
X20432900Y-14666814D01*
X20432900Y-14495386D02*
X20447186Y-14481100D01*
X20475757Y-14466814D01*
X20518614Y-14466814D01*
X20547186Y-14481100D01*
X20561471Y-14509671D01*
X20561471Y-14666814D01*
X20747186Y-14666814D02*
X20718614Y-14652529D01*
X20704328Y-14638243D01*
X20690043Y-14609671D01*
X20690043Y-14523957D01*
X20704328Y-14495386D01*
X20718614Y-14481100D01*
X20747186Y-14466814D01*
X20790043Y-14466814D01*
X20818614Y-14481100D01*
X20832900Y-14495386D01*
X20847186Y-14523957D01*
X20847186Y-14609671D01*
X20832900Y-14638243D01*
X20818614Y-14652529D01*
X20790043Y-14666814D01*
X20747186Y-14666814D01*
X20932900Y-14466814D02*
X21047186Y-14466814D01*
X20975757Y-14366814D02*
X20975757Y-14623957D01*
X20990043Y-14652529D01*
X21018614Y-14666814D01*
X21047186Y-14666814D01*
X21375757Y-14466814D02*
X21375757Y-14766814D01*
X21375757Y-14481100D02*
X21404328Y-14466814D01*
X21461471Y-14466814D01*
X21490043Y-14481100D01*
X21504328Y-14495386D01*
X21518614Y-14523957D01*
X21518614Y-14609671D01*
X21504328Y-14638243D01*
X21490043Y-14652529D01*
X21461471Y-14666814D01*
X21404328Y-14666814D01*
X21375757Y-14652529D01*
X21690043Y-14666814D02*
X21661471Y-14652529D01*
X21647186Y-14623957D01*
X21647186Y-14366814D01*
X21932900Y-14666814D02*
X21932900Y-14509671D01*
X21918614Y-14481100D01*
X21890043Y-14466814D01*
X21832900Y-14466814D01*
X21804328Y-14481100D01*
X21932900Y-14652529D02*
X21904328Y-14666814D01*
X21832900Y-14666814D01*
X21804328Y-14652529D01*
X21790043Y-14623957D01*
X21790043Y-14595386D01*
X21804328Y-14566814D01*
X21832900Y-14552529D01*
X21904328Y-14552529D01*
X21932900Y-14538243D01*
X22032900Y-14466814D02*
X22147186Y-14466814D01*
X22075757Y-14366814D02*
X22075757Y-14623957D01*
X22090043Y-14652529D01*
X22118614Y-14666814D01*
X22147186Y-14666814D01*
X22361471Y-14652529D02*
X22332900Y-14666814D01*
X22275757Y-14666814D01*
X22247186Y-14652529D01*
X22232900Y-14623957D01*
X22232900Y-14509671D01*
X22247186Y-14481100D01*
X22275757Y-14466814D01*
X22332900Y-14466814D01*
X22361471Y-14481100D01*
X22375757Y-14509671D01*
X22375757Y-14538243D01*
X22232900Y-14566814D01*
X22632900Y-14666814D02*
X22632900Y-14366814D01*
X22632900Y-14652529D02*
X22604328Y-14666814D01*
X22547186Y-14666814D01*
X22518614Y-14652529D01*
X22504328Y-14638243D01*
X22490043Y-14609671D01*
X22490043Y-14523957D01*
X22504328Y-14495386D01*
X22518614Y-14481100D01*
X22547186Y-14466814D01*
X22604328Y-14466814D01*
X22632900Y-14481100D01*
X22747186Y-14781100D02*
X22761471Y-14766814D01*
X22790043Y-14723957D01*
X22804328Y-14695386D01*
X22818614Y-14652529D01*
X22832900Y-14581100D01*
X22832900Y-14523957D01*
X22818614Y-14452529D01*
X22804328Y-14409671D01*
X22790043Y-14381100D01*
X22761471Y-14338243D01*
X22747186Y-14323957D01*
M02*
