M48
; DRILL file {KiCad 5.1.10-1.fc34} date Sat Aug 21 17:03:23 2021
; FORMAT={-:-/ absolute / metric / decimal}
; #@! TF.CreationDate,2021-08-21T17:03:23+03:00
; #@! TF.GenerationSoftware,Kicad,Pcbnew,5.1.10-1.fc34
; #@! TF.FileFunction,Plated,1,2,PTH
FMAT,2
METRIC
T1C0.400
T2C0.800
T3C1.000
T4C1.100
T5C1.298
%
G90
G05
T1
X129.032Y-83.566
X129.032Y-88.392
X129.032Y-94.996
X129.032Y-101.6
X129.032Y-106.68
X129.032Y-111.76
X129.032Y-117.094
X129.032Y-122.174
X129.286Y-127.254
X135.382Y-77.724
X135.382Y-133.858
X139.446Y-134.112
X140.462Y-77.724
X145.288Y-77.724
X145.288Y-134.112
X150.114Y-77.724
X151.13Y-134.112
X154.432Y-77.724
X156.21Y-133.604
X162.052Y-84.836
X162.052Y-91.186
X162.052Y-96.266
X162.052Y-101.092
X162.052Y-106.426
X162.052Y-111.506
X162.052Y-116.586
X162.052Y-121.412
X162.052Y-126.746
T2
X142.494Y-104.902
X142.494Y-107.442
X142.494Y-109.982
X142.494Y-112.522
X142.494Y-115.062
X142.494Y-117.602
X142.494Y-120.142
X142.494Y-122.682
X142.494Y-125.222
X142.494Y-127.762
X150.114Y-104.902
X150.114Y-107.442
X150.114Y-109.982
X150.114Y-112.522
X150.114Y-115.062
X150.114Y-117.602
X150.114Y-120.142
X150.114Y-122.682
X150.114Y-125.222
X150.114Y-127.762
X152.948Y-91.186
X155.448Y-91.186
T3
X135.128Y-99.928
X135.128Y-102.468
X135.128Y-105.008
X135.128Y-107.548
X135.128Y-110.088
X135.128Y-112.628
X135.128Y-115.168
X135.128Y-117.708
X135.128Y-120.248
X135.128Y-122.788
X135.128Y-125.328
X135.128Y-127.868
X135.89Y-87.376
X140.89Y-87.376
X155.956Y-99.822
X155.956Y-102.362
X155.956Y-104.902
X155.956Y-107.442
X155.956Y-109.982
X155.956Y-112.522
X155.956Y-115.062
X155.956Y-117.602
X155.956Y-120.142
X155.956Y-122.682
X155.956Y-125.222
X155.956Y-127.762
T4
X143.764Y-98.806
X146.304Y-98.806
X148.844Y-98.806
T5
X146.304Y-80.772
X151.303Y-80.772
T0
M30
